<svg width="60" height="36" viewBox="0 0 60 36" fill="none" xmlns="http://www.w3.org/2000/svg">
<path d="M43.7912 28.9637H43.0024C42.7305 28.3529 42.59 27.6918 42.59 27.0232C42.59 26.3547 42.7305 25.6936 43.0024 25.0828H43.796C44.2213 25.0828 44.6291 24.9139 44.9298 24.6133C45.2305 24.3127 45.3994 23.905 45.3994 23.4799C45.3994 23.0547 45.2305 22.647 44.9298 22.3464C44.6291 22.0458 44.2213 21.8769 43.796 21.8769H40.6022C41.0233 21.3977 41.2554 20.7815 41.255 20.1436V15.1205C41.254 14.4219 40.9759 13.7521 40.4817 13.2581C39.9876 12.7641 39.3177 12.486 38.6188 12.485H37.3219C37.4463 12.2364 37.505 11.9601 37.4926 11.6824C37.4801 11.4047 37.3969 11.1348 37.2507 10.8984C37.1046 10.6619 36.9005 10.4667 36.6576 10.3312C36.4148 10.1958 36.1414 10.1247 35.8634 10.1246H35.417C35.2199 9.66244 35.1184 9.16524 35.1184 8.66285C35.1184 8.16047 35.2199 7.66327 35.417 7.20111H35.8642C36.2907 7.19167 36.6966 7.01565 36.9949 6.71075C37.2932 6.40585 37.4602 5.9963 37.4602 5.5698C37.4602 5.1433 37.2932 4.73375 36.9949 4.42885C36.6966 4.12394 36.2907 3.94793 35.8642 3.93849H20.6462C19.711 3.93672 18.7964 4.21267 18.0184 4.73135C17.2404 5.25003 16.634 5.98805 16.2761 6.8518C15.9183 7.71555 15.8251 8.66609 16.0085 9.58285C16.1918 10.4996 16.6434 11.3413 17.3059 12.0011C17.4819 12.1768 17.6713 12.3386 17.8724 12.485H17.5235C17.0983 12.485 16.6905 12.6539 16.3898 12.9545C16.0891 13.2551 15.9202 13.6628 15.9202 14.0879C15.9202 14.513 16.0891 14.9207 16.3898 15.2213C16.6905 15.5219 17.0983 15.6908 17.5235 15.6908H18.3172C18.5891 16.3016 18.7296 16.9627 18.7296 17.6313C18.7296 18.2998 18.5891 18.9609 18.3172 19.5717H17.5235C17.2307 19.5707 16.9432 19.6501 16.6923 19.8012C16.4415 19.9523 16.2369 20.1693 16.101 20.4286C15.965 20.6879 15.9028 20.9795 15.9211 21.2717C15.9395 21.5639 16.0377 21.8454 16.205 22.0857C15.7291 22.2885 15.3233 22.6266 15.038 23.0581C14.7526 23.4895 14.6004 23.9953 14.6001 24.5125V29.5356C14.6012 30.2338 14.8789 30.9032 15.3725 31.3972C15.8662 31.8911 16.5355 32.1694 17.2339 32.1711H43.7912C44.2165 32.1711 44.6243 32.0022 44.925 31.7016C45.2257 31.401 45.3946 30.9933 45.3946 30.5682C45.3946 30.1431 45.2257 29.7354 44.925 29.4348C44.6243 29.1342 44.2165 28.9653 43.7912 28.9653V28.9637ZM43.7912 22.7784C43.9731 22.7845 44.1455 22.8611 44.272 22.9919C44.3985 23.1227 44.4692 23.2975 44.4692 23.4795C44.4692 23.6614 44.3985 23.8362 44.272 23.967C44.1455 24.0978 43.9731 24.1744 43.7912 24.1805H35.6498C35.5301 24.1805 35.4153 24.2281 35.3307 24.3127C35.2461 24.3973 35.1986 24.512 35.1986 24.6316C35.1986 24.7513 35.2461 24.866 35.3307 24.9506C35.4153 25.0352 35.5301 25.0828 35.6498 25.0828H42.0303C41.8575 25.5629 41.7483 26.0636 41.7055 26.5721C41.6199 27.3839 41.7316 28.2043 42.0311 28.9637H17.938C17.9035 28.9633 17.8706 28.9494 17.8462 28.925C17.8218 28.9007 17.808 28.8678 17.8076 28.8333V25.2139C17.808 25.1795 17.8218 25.1466 17.8462 25.1222C17.8706 25.0979 17.9035 25.084 17.938 25.0836H22.4063V26.5649C22.3804 26.698 22.3974 26.8358 22.455 26.9586C22.5125 27.0814 22.6075 27.1827 22.7264 27.248C22.8545 27.3027 22.997 27.3146 23.1325 27.2819C23.268 27.2492 23.3893 27.1736 23.4784 27.0664L23.4856 27.06L24.7465 25.8602L26.0074 27.06L26.0146 27.0664C26.1498 27.2096 26.3348 27.2955 26.5315 27.3064C26.6147 27.3068 26.6968 27.2879 26.7715 27.2512C26.8905 27.1859 26.9856 27.0844 27.0431 26.9615C27.1007 26.8385 27.1176 26.7005 27.0915 26.5673V25.0876H33.4304C33.5501 25.0876 33.6649 25.04 33.7495 24.9554C33.8341 24.8708 33.8816 24.7561 33.8816 24.6364C33.8816 24.5168 33.8341 24.4021 33.7495 24.3175C33.6649 24.2329 33.5501 24.1853 33.4304 24.1853H27.0907V22.7792H43.7912V22.7784ZM19.6093 17.1794C19.5659 16.6708 19.4561 16.1701 19.2829 15.69H37.9172C37.9516 15.6904 37.9846 15.7043 38.0089 15.7287C38.0333 15.753 38.0472 15.7859 38.0476 15.8204V19.4406C38.0472 19.475 38.0333 19.5079 38.0089 19.5323C37.9846 19.5567 37.9516 19.5705 37.9172 19.5709H27.0923V18.0832H30.2494C30.369 18.0832 30.4838 18.0357 30.5684 17.9511C30.6531 17.8665 30.7006 17.7517 30.7006 17.6321C30.7006 17.5124 30.6531 17.3977 30.5684 17.3131C30.4838 17.2285 30.369 17.181 30.2494 17.181H19.6093V17.1794ZM22.4055 19.5741H19.2853C19.4584 19.0939 19.5684 18.5933 19.6125 18.0848H22.4127L22.4055 19.5741ZM26.1914 18.0848V25.9842L25.0633 24.9084C24.9794 24.8285 24.868 24.7839 24.7521 24.7839C24.6362 24.7839 24.5248 24.8285 24.4409 24.9084L23.3128 25.9842V18.0848H26.193H26.1914ZM16.8219 8.66245C16.8234 7.64912 17.2268 6.67775 17.9438 5.96144C18.6607 5.24513 19.6326 4.84237 20.6462 4.84153H35.8634C36.0569 4.84153 36.2425 4.91838 36.3794 5.05518C36.5162 5.19199 36.5931 5.37753 36.5931 5.571C36.5931 5.76447 36.5162 5.95001 36.3794 6.08681C36.2425 6.22362 36.0569 6.30047 35.8634 6.30047H27.5475C27.4279 6.30047 27.3131 6.348 27.2285 6.4326C27.1438 6.5172 27.0963 6.63195 27.0963 6.75159C27.0963 6.87124 27.1438 6.98598 27.2285 7.07058C27.3131 7.15518 27.4279 7.20271 27.5475 7.20271H34.4553C34.1364 8.15114 34.1364 9.17777 34.4553 10.1262H20.6462C20.2584 10.1262 19.8865 9.97219 19.6123 9.69806C19.3381 9.42393 19.1841 9.05213 19.1841 8.66445C19.1841 8.27678 19.3381 7.90498 19.6123 7.63085C19.8865 7.35672 20.2584 7.20271 20.6462 7.20271H25.3266C25.4462 7.20271 25.561 7.15518 25.6456 7.07058C25.7303 6.98598 25.7778 6.87124 25.7778 6.75159C25.7778 6.63195 25.7303 6.5172 25.6456 6.4326C25.561 6.348 25.4462 6.30047 25.3266 6.30047H20.6462C20.0192 6.30047 19.4178 6.54949 18.9744 6.99275C18.5311 7.43601 18.282 8.03719 18.282 8.66405C18.282 9.29092 18.5311 9.8921 18.9744 10.3354C19.4178 10.7786 20.0192 11.0276 20.6462 11.0276H35.8634C36.0569 11.0276 36.2425 11.1045 36.3794 11.2413C36.5162 11.3781 36.5931 11.5636 36.5931 11.7571C36.5931 11.9506 36.5162 12.1361 36.3794 12.2729C36.2425 12.4097 36.0569 12.4866 35.8634 12.4866H20.6462C19.6324 12.4849 18.6607 12.0815 17.9439 11.3649C17.227 10.6482 16.8236 9.67594 16.8219 8.66245ZM17.5227 14.7894C17.3408 14.7832 17.1685 14.7067 17.042 14.5759C16.9155 14.4451 16.8448 14.2702 16.8448 14.0883C16.8448 13.9064 16.9155 13.7315 17.042 13.6007C17.1685 13.4699 17.3408 13.3934 17.5227 13.3872H38.618C39.0777 13.3876 39.5185 13.5704 39.8435 13.8954C40.1685 14.2203 40.3513 14.661 40.3518 15.1205V20.1428C40.3513 20.6024 40.1685 21.043 39.8435 21.368C39.5185 21.693 39.0777 21.8757 38.618 21.8761H27.0915V20.4748H37.9164C38.1902 20.4746 38.4528 20.3657 38.6465 20.1721C38.8402 19.9785 38.949 19.716 38.9493 19.4422V15.8228C38.949 15.549 38.8402 15.2865 38.6465 15.0929C38.4528 14.8993 38.1902 14.7904 37.9164 14.7902H17.5235L17.5227 14.7894ZM17.5227 20.474H22.4031V21.8761H17.5227C17.3408 21.87 17.1685 21.7934 17.042 21.6626C16.9155 21.5318 16.8448 21.357 16.8448 21.1751C16.8448 20.9931 16.9155 20.8183 17.042 20.6875C17.1685 20.5567 17.3408 20.4801 17.5227 20.474ZM43.7912 31.2681H17.2339C16.7744 31.2674 16.334 31.0846 16.0092 30.7596C15.6845 30.4346 15.502 29.9941 15.5018 29.5348V24.5117C15.502 24.0523 15.6845 23.6118 16.0092 23.2868C16.334 22.9619 16.7744 22.779 17.2339 22.7784H22.4063V24.1813H17.938C17.6642 24.1815 17.4018 24.2903 17.2081 24.4837C17.0145 24.6772 16.9055 24.9395 16.9051 25.2131V28.8333C16.9053 29.1071 17.0142 29.3696 17.2078 29.5632C17.4015 29.7569 17.6641 29.8657 17.938 29.8659H43.7912C43.9731 29.8721 44.1455 29.9486 44.272 30.0794C44.3985 30.2102 44.4692 30.3851 44.4692 30.567C44.4692 30.7489 44.3985 30.9238 44.272 31.0546C44.1455 31.1854 43.9731 31.2619 43.7912 31.2681Z" fill="#0065C1"/>
</svg>
