<svg width="60" height="48" viewBox="0 0 60 48" fill="none" xmlns="http://www.w3.org/2000/svg">
<path d="M36.9674 37.8545H28.2653C27.339 39.4505 26.0102 40.7754 24.4115 41.6967C22.8128 42.6181 21.0003 43.1036 19.1551 43.1049C16.3621 43.1019 13.6843 41.991 11.7093 40.016C9.73428 38.041 8.6233 35.3631 8.62012 32.5698C8.61784 30.5808 9.1802 28.6319 10.2418 26.9499C10.4552 26.6136 10.687 26.2893 10.9363 25.9786C10.9363 25.9786 8.97774 22.8141 11.8691 20.9595C12.7042 20.4285 13.5966 19.9934 14.5293 19.6625V9.45635C14.0809 9.35684 13.6797 9.10748 13.3921 8.74938C13.1044 8.39128 12.9473 7.94584 12.9468 7.48649C12.9474 6.95179 13.1601 6.4392 13.5383 6.06119C13.9164 5.68318 14.429 5.47064 14.9637 5.47022H28.3845C28.4666 5.47022 28.548 5.4864 28.6239 5.51784C28.6998 5.54929 28.7688 5.59537 28.8269 5.65347C28.885 5.71157 28.931 5.78055 28.9625 5.85646C28.9939 5.93237 29.0101 6.01373 29.0101 6.0959C29.0101 6.17807 28.9939 6.25943 28.9625 6.33534C28.931 6.41125 28.885 6.48022 28.8269 6.53832C28.7688 6.59642 28.6998 6.64251 28.6239 6.67396C28.548 6.7054 28.4666 6.72158 28.3845 6.72158H14.9637C14.7611 6.72179 14.5669 6.80237 14.4237 6.94562C14.2804 7.08887 14.1999 7.2831 14.1996 7.48569C14.1999 7.68827 14.2804 7.8825 14.4237 8.02575C14.5669 8.169 14.7611 8.24958 14.9637 8.24979H33.348C33.5505 8.24958 33.7447 8.169 33.888 8.02575C34.0312 7.8825 34.1118 7.68827 34.112 7.48569C34.1118 7.2831 34.0312 7.08887 33.888 6.94562C33.7447 6.80237 33.5505 6.72179 33.348 6.72158H30.8822C30.8 6.72169 30.7185 6.70558 30.6425 6.67419C30.5666 6.64279 30.4975 6.59672 30.4393 6.53861C30.3811 6.4805 30.335 6.41149 30.3035 6.33552C30.272 6.25956 30.2558 6.17813 30.2558 6.0959C30.2558 6.01367 30.272 5.93224 30.3035 5.85628C30.335 5.78031 30.3811 5.7113 30.4393 5.65319C30.4975 5.59508 30.5666 5.54901 30.6425 5.51761C30.7185 5.48622 30.8 5.47011 30.8822 5.47022H33.348C33.8826 5.47064 34.3953 5.68318 34.7734 6.06119C35.1515 6.4392 35.3642 6.95179 35.3649 7.48649C35.3644 7.91914 35.2249 8.34021 34.9671 8.68764C34.7093 9.03508 34.3467 9.29052 33.9328 9.41634L36.9034 19.5201H38.6291V15.4716C38.3323 15.2705 38.0893 14.9999 37.9213 14.6833C37.7532 14.3667 37.6652 14.0138 37.665 13.6553V12.864C37.6656 12.2825 37.8969 11.7249 38.308 11.3137C38.719 10.9024 39.2765 10.671 39.8579 10.6701H41.6836C42.2651 10.671 42.8225 10.9024 43.2336 11.3137C43.6447 11.7249 43.8759 12.2825 43.8766 12.864V13.6553C43.8763 14.0138 43.7883 14.3667 43.6203 14.6833C43.4523 14.9999 43.2092 15.2705 42.9125 15.4716V19.5241H44.8398C49.8937 19.5241 50.1265 24.2447 50.1265 24.8112V31.6841C50.9336 32.8891 51.3636 34.3071 51.3618 35.7575C51.3591 37.7063 50.5837 39.5744 49.2057 40.9524C47.8277 42.3303 45.9596 43.1055 44.011 43.1081C42.4282 43.1062 40.8881 42.5941 39.6193 41.6477C38.3505 40.7014 37.4205 39.3712 36.9674 37.8545ZM37.913 35.7535C37.9151 37.3702 38.5583 38.9201 39.7014 40.0634C40.8445 41.2066 42.3943 41.8498 44.011 41.8519C45.6279 41.8502 47.1781 41.2072 48.3216 40.0639C49.465 38.9207 50.1084 37.3705 50.1105 35.7535C50.1086 34.1364 49.4653 32.5861 48.3218 31.4428C47.1783 30.2995 45.6279 29.6565 44.011 29.6551C42.3943 29.657 40.8444 30.3001 39.7012 31.4433C38.558 32.5866 37.9149 34.1367 37.913 35.7535ZM15.2981 23.4158C15.3722 23.5645 15.3843 23.7365 15.3316 23.894C15.279 24.0516 15.1659 24.1817 15.0173 24.2559C13.468 25.0216 12.1644 26.2065 11.2548 27.676C10.3451 29.1455 9.86585 30.8407 9.8714 32.569C9.87478 35.0295 10.8536 37.3883 12.5933 39.1281C14.333 40.868 16.6916 41.8469 19.1519 41.8503C21.6123 41.8471 23.971 40.8682 25.7108 39.1284C27.4505 37.3885 28.4293 35.0296 28.4325 32.569C28.4291 30.1085 27.4502 27.7498 25.7105 26.01C23.9708 24.2701 21.6122 23.2912 19.1519 23.2878C18.5188 23.2877 17.8873 23.3518 17.267 23.479C17.1865 23.4956 17.1035 23.4962 17.0227 23.4807C16.942 23.4652 16.8651 23.4339 16.7964 23.3886C16.7277 23.3434 16.6687 23.285 16.6226 23.2169C16.5765 23.1488 16.5443 23.0723 16.5278 22.9918C16.4945 22.8291 16.5271 22.6599 16.6184 22.5213C16.7098 22.3827 16.8524 22.286 17.015 22.2525C17.7182 22.1082 18.4341 22.0356 19.1519 22.0356C21.8233 22.0381 24.3942 23.0542 26.3456 24.8788C28.297 26.7033 29.4834 29.2004 29.6653 31.8657C30.1216 31.7412 30.5239 31.4692 30.8094 31.092C31.0069 30.8354 31.1421 30.5364 31.2043 30.2185C31.2665 29.9007 31.254 29.5728 31.1678 29.2606C30.4379 26.6336 28.8688 24.3174 26.7 22.6653C24.5311 21.0131 21.8815 20.1157 19.1551 20.1098C16.8128 20.1096 14.5181 20.7714 12.5356 22.0188C12.0599 22.3237 11.723 22.8033 11.5976 23.3542C11.4722 23.9051 11.5683 24.4833 11.8651 24.964C12.6327 24.2277 13.5072 23.6116 14.4589 23.1366C14.5455 23.093 14.6411 23.0702 14.7381 23.0702C14.8543 23.0702 14.9682 23.1025 15.0671 23.1635C15.166 23.2246 15.246 23.3119 15.2981 23.4158ZM32.3743 28.927C32.5129 29.4249 32.5335 29.9483 32.4346 30.4556C32.3358 30.963 32.1201 31.4403 31.8047 31.8497C31.2854 32.5376 30.523 33.001 29.6733 33.1451C29.6098 34.3334 29.3438 35.5021 28.8869 36.6008H36.7106C36.6776 36.3193 36.661 36.0361 36.6609 35.7527C36.6635 33.8039 37.4387 31.9356 38.8165 30.5575C40.1943 29.1795 42.0623 28.404 44.011 28.4013C45.8035 28.3995 47.5344 29.0557 48.8753 30.2455V24.8048C48.8749 24.5249 48.8457 24.2458 48.7881 23.9719H45.6063C45.3494 23.9725 45.1033 24.0749 44.9219 24.2567C44.7404 24.4385 44.6384 24.6848 44.6382 24.9416C44.6386 25.1983 44.7408 25.4443 44.9222 25.6257C45.1037 25.8072 45.3497 25.9093 45.6063 25.9098H46.6463C46.8125 25.9097 46.972 25.9757 47.0896 26.0932C47.2072 26.2107 47.2733 26.37 47.2736 26.5362C47.2735 26.6185 47.2572 26.7 47.2256 26.7759C47.194 26.8519 47.1478 26.9209 47.0895 26.979C47.0313 27.0371 46.9622 27.0832 46.8861 27.1145C46.8101 27.1459 46.7286 27.162 46.6463 27.1619H45.6063C45.0175 27.1611 44.4531 26.9268 44.0368 26.5104C43.6204 26.0941 43.3862 25.5296 43.3853 24.9408C43.3862 24.352 43.6204 23.7876 44.0368 23.3712C44.4531 22.9548 45.0175 22.7206 45.6063 22.7197H48.2928C47.9337 22.125 47.4272 21.6331 46.8223 21.2915C46.2173 20.9499 45.5345 20.7702 44.8398 20.7699H26.1251C29.186 22.5772 31.4262 25.5017 32.3743 28.9278V28.927ZM39.8819 19.5193H41.6604V15.8444H39.8819V19.5193ZM25.7835 19.5193H35.5977L32.6527 9.50276H25.7835V19.5193ZM23.3522 19.5193H24.5306V9.50276H15.7805V19.2785C16.8833 18.9984 18.0166 18.8568 19.1543 18.8568C20.58 18.8567 21.9968 19.0805 23.353 19.5201L23.3522 19.5193ZM38.9171 12.8576V13.6497C38.9175 13.8991 39.0168 14.1382 39.1931 14.3146C39.3695 14.4909 39.6085 14.5902 39.8579 14.5906H41.6836C41.933 14.5902 42.1721 14.4909 42.3485 14.3146C42.5248 14.1382 42.6241 13.8991 42.6245 13.6497V12.8576C42.6241 12.6082 42.5248 12.3691 42.3485 12.1927C42.1721 12.0164 41.933 11.9171 41.6836 11.9167H39.8579C39.6083 11.9171 39.369 12.0166 39.1926 12.1933C39.0162 12.37 38.9171 12.6095 38.9171 12.8592V12.8576ZM40.6076 35.7519C40.6086 34.8495 40.9675 33.9844 41.6056 33.3463C42.2436 32.7082 43.1087 32.3493 44.011 32.3482C44.9133 32.3493 45.7783 32.7082 46.4164 33.3463C47.0544 33.9844 47.4133 34.8495 47.4144 35.7519C47.4133 36.6542 47.0544 37.5194 46.4164 38.1574C45.7783 38.7955 44.9133 39.1545 44.011 39.1555C43.1089 39.1545 42.2441 38.7957 41.6061 38.158C40.9682 37.5203 40.6091 36.6556 40.6076 35.7535V35.7519ZM41.8589 35.7519C41.8597 36.3221 42.0867 36.8688 42.4899 37.272C42.8932 37.6752 43.4399 37.9019 44.0102 37.9026C44.5804 37.9019 45.1271 37.6752 45.5304 37.272C45.9337 36.8688 46.1607 36.3221 46.1615 35.7519C46.1607 35.1815 45.9337 34.6348 45.5305 34.2315C45.1272 33.8282 44.5805 33.6012 44.0102 33.6004C43.4397 33.6014 42.893 33.8287 42.4898 34.2323C42.0867 34.6359 41.8601 35.183 41.8596 35.7535L41.8589 35.7519ZM13.9804 32.5674C13.9819 31.1957 14.5274 29.8806 15.4972 28.9106C16.467 27.9406 17.7819 27.3948 19.1535 27.3932C20.5252 27.3948 21.8402 27.9405 22.8102 28.9105C23.7801 29.8805 24.3257 31.1957 24.3274 32.5674C24.3257 33.9392 23.7801 35.2542 22.8101 36.2241C21.8402 37.1939 20.5251 37.7395 19.1535 37.7409C17.7824 37.7392 16.4679 37.1938 15.4983 36.2243C14.5287 35.2548 13.9831 33.9403 13.9812 32.569L13.9804 32.5674ZM15.2333 32.5674C15.2344 33.6069 15.6477 34.6035 16.3827 35.3385C17.1176 36.0735 18.1142 36.4869 19.1535 36.488C20.1928 36.4865 21.1891 36.073 21.9239 35.338C22.6588 34.6031 23.0723 33.6068 23.0738 32.5674C23.0721 31.5282 22.6585 30.532 21.9237 29.7971C21.1889 29.0622 20.1927 28.6486 19.1535 28.6469C18.1141 28.6484 17.1177 29.0622 16.3829 29.7975C15.6481 30.5328 15.235 31.5295 15.2341 32.569L15.2333 32.5674Z" fill="#0065C1"/>
</svg>
