<svg width="60" height="45" viewBox="0 0 60 45" fill="none" xmlns="http://www.w3.org/2000/svg">
<path d="M30.4863 39.1581C30.1164 38.8503 29.819 38.4647 29.6151 38.0288C29.4111 37.593 29.3057 37.1175 29.3064 36.6363V31.5448H29.2264C28.8398 31.5441 28.4692 31.3903 28.1959 31.1169C27.9225 30.8435 27.7687 30.4729 27.7681 30.0863V28.9126C26.5846 28.461 25.566 27.6609 24.8468 26.6182C24.1275 25.5754 23.7414 24.339 23.7395 23.0722V19.7831C23.1812 19.6302 22.6885 19.2983 22.3371 18.8382C21.9857 18.3782 21.7949 17.8155 21.7941 17.2366C21.795 16.5968 22.0278 15.979 22.4494 15.4978C22.871 15.0166 23.4527 14.7046 24.0867 14.6196V10.2889C24.0884 9.7377 24.3081 9.20958 24.6978 8.81985C25.0874 8.43011 25.6155 8.21041 26.1666 8.20872C26.7184 8.20935 27.2474 8.42859 27.638 8.81844C28.0285 9.20829 28.2487 9.73701 28.2504 10.2889V14.5964H31.7238V10.2889C31.7255 9.7377 31.9451 9.20958 32.3348 8.81985C32.7245 8.43011 33.2525 8.21041 33.8036 8.20872C34.3554 8.20935 34.8845 8.42859 35.275 8.81844C35.6656 9.20829 35.8858 9.73701 35.8875 10.2889V14.6196C36.5215 14.7047 37.1031 15.0168 37.5246 15.498C37.9462 15.9791 38.1791 16.5968 38.1801 17.2366C38.1791 17.8154 37.9882 18.378 37.6368 18.838C37.2854 19.2979 36.7928 19.63 36.2347 19.7831V23.0722C36.2326 24.339 35.8465 25.5753 35.1273 26.6181C34.408 27.6608 33.3895 28.4609 32.2061 28.9126V30.0855C32.2057 30.4722 32.052 30.843 31.7786 31.1166C31.5052 31.3901 31.1346 31.5441 30.7479 31.5448H30.6871V36.6363C30.6867 36.9141 30.7476 37.1885 30.8654 37.44C30.9832 37.6916 31.155 37.9141 31.3686 38.0916C31.5833 38.2713 31.835 38.4014 32.1057 38.4726C32.3765 38.5438 32.6596 38.5544 32.9349 38.5037C35.3307 38.0724 37.5985 37.1066 39.5696 35.6779C39.6438 35.6246 39.7277 35.5865 39.8166 35.5658C39.9054 35.545 39.9975 35.542 40.0876 35.5568C40.1776 35.5717 40.2638 35.6042 40.3413 35.6524C40.4188 35.7006 40.4861 35.7636 40.5392 35.8379C40.5924 35.912 40.6305 35.9959 40.6512 36.0848C40.672 36.1737 40.675 36.2658 40.6602 36.3559C40.6453 36.4459 40.6128 36.5322 40.5646 36.6097C40.5164 36.6872 40.4534 36.7544 40.3792 36.8075C38.2405 38.3582 35.7796 39.4064 33.1797 39.8741C32.9833 39.9099 32.7841 39.9278 32.5845 39.9277C31.8167 39.9243 31.0743 39.652 30.4863 39.1581ZM30.0183 30.1551H30.7566C30.7751 30.1551 30.7928 30.1477 30.8059 30.1347C30.8189 30.1216 30.8262 30.1039 30.8262 30.0855V29.2654C30.5499 29.3022 30.2715 29.3206 29.9927 29.3206C29.7142 29.3206 29.436 29.3022 29.16 29.2654V30.0855C29.16 30.1039 29.1673 30.1216 29.1803 30.1347C29.1934 30.1477 29.2111 30.1551 29.2296 30.1551H30.0023H30.0183ZM25.1306 23.069C25.1319 24.3582 25.6444 25.5943 26.5558 26.506C27.4671 27.4178 28.7029 27.9308 29.9919 27.9325C31.2812 27.9312 32.5174 27.4184 33.4291 26.5066C34.3407 25.5948 34.8535 24.3585 34.8548 23.069V19.8735H25.1306V23.069ZM23.1852 17.2342C23.1856 17.5657 23.3175 17.8835 23.5519 18.1179C23.7862 18.3523 24.104 18.4842 24.4355 18.4846H35.5499C35.8814 18.4842 36.1992 18.3523 36.4336 18.1179C36.6679 17.8835 36.7998 17.5657 36.8002 17.2342C36.7998 16.9026 36.6679 16.5848 36.4336 16.3504C36.1992 16.116 35.8814 15.9841 35.5499 15.9837H24.4355C24.1039 15.9839 23.7859 16.1157 23.5513 16.3501C23.3168 16.5846 23.1848 16.9025 23.1844 17.2342H23.1852ZM33.1181 10.2865V14.594H34.5076V10.2865C34.5074 10.1022 34.434 9.92558 34.3037 9.79537C34.1734 9.66516 33.9967 9.59202 33.8124 9.59202C33.6283 9.59223 33.4519 9.66546 33.3217 9.79565C33.1915 9.92584 33.1183 10.1024 33.1181 10.2865ZM25.477 10.2865V14.594H26.8665V10.2865C26.8663 10.1022 26.793 9.92558 26.6626 9.79537C26.5323 9.66516 26.3556 9.59202 26.1714 9.59202C25.9873 9.59223 25.8108 9.66546 25.6806 9.79565C25.5505 9.92584 25.4772 10.1024 25.477 10.2865ZM15.8281 36.5403C15.333 36.0439 15.0311 35.3872 14.9766 34.6882C14.9221 33.9892 15.1184 33.2937 15.5305 32.7264C13.4206 29.7965 12.2614 26.289 12.2099 22.6785C12.1328 18.8814 13.2831 15.1607 15.4897 12.0698C15.597 11.9201 15.7593 11.8192 15.941 11.7892C16.1226 11.7592 16.3088 11.8025 16.4584 11.9098C16.6081 12.0171 16.709 12.1794 16.739 12.3611C16.769 12.5428 16.7257 12.7289 16.6184 12.8786C14.6665 15.6508 13.6161 18.9571 13.6101 22.3476C13.6041 25.7381 14.6428 29.0482 16.5848 31.8272C16.9932 31.6232 17.4435 31.5172 17.8999 31.5176C18.2863 31.5167 18.6691 31.5925 19.026 31.7403C19.383 31.8882 19.7072 32.1054 19.9798 32.3792C20.53 32.9316 20.839 33.6796 20.839 34.4594C20.839 35.2391 20.53 35.9871 19.9798 36.5395C19.7069 36.8129 19.3826 37.0297 19.0257 37.1774C18.6688 37.3251 18.2862 37.4009 17.8999 37.4004C17.1227 37.3995 16.3776 37.0901 15.8281 36.5403ZM16.8112 33.3601C16.5201 33.6517 16.3566 34.0469 16.3566 34.459C16.3566 34.871 16.5201 35.2662 16.8112 35.5578C17.1028 35.8487 17.4977 36.0121 17.9095 36.0121C18.3213 36.0121 18.7163 35.8487 19.0079 35.5578C19.2992 35.2663 19.4628 34.8711 19.4628 34.459C19.4628 34.0468 19.2992 33.6516 19.0079 33.3601C18.8641 33.2152 18.6929 33.1004 18.5044 33.0222C18.3158 32.9441 18.1136 32.9042 17.9095 32.9049C17.7054 32.9042 17.5033 32.9441 17.3147 33.0222C17.1262 33.1004 16.955 33.2152 16.8112 33.3601ZM41.5999 34.9682C41.4654 34.8424 41.3864 34.6684 41.3801 34.4843C41.3738 34.3003 41.4408 34.1213 41.5663 33.9865L41.5815 33.9705C41.7087 33.8421 41.8809 33.7683 42.0616 33.7647C42.2423 33.7611 42.4172 33.8281 42.5494 33.9513C42.6161 34.0136 42.6698 34.0883 42.7076 34.1714C42.7454 34.2544 42.7664 34.344 42.7695 34.4352C42.7727 34.5264 42.7578 34.6172 42.7258 34.7027C42.6938 34.7881 42.6453 34.8663 42.583 34.933L42.5678 34.949C42.5033 35.0143 42.4264 35.0661 42.3417 35.1014C42.2569 35.1366 42.166 35.1548 42.0743 35.1546C41.8984 35.1561 41.7285 35.0906 41.5991 34.9714L41.5999 34.9682ZM43.3894 33.0073C43.2408 32.8985 43.1414 32.7352 43.1132 32.5532C43.085 32.3712 43.1303 32.1854 43.239 32.0368C45.5612 28.8856 46.672 25.0037 46.3683 21.1008C46.0645 17.198 44.3665 13.5348 41.5847 10.7809C38.8263 8.07615 35.2105 6.41926 31.3611 6.09616C27.5117 5.77307 23.6703 6.80405 20.4998 9.01118C20.4253 9.06387 20.3413 9.10139 20.2523 9.12158C20.1634 9.14177 20.0714 9.14425 19.9815 9.12888C19.8916 9.1135 19.8056 9.08056 19.7285 9.03195C19.6513 8.98334 19.5845 8.92001 19.5318 8.84557C19.4257 8.69494 19.3836 8.50836 19.4148 8.32673C19.446 8.14511 19.5479 7.98327 19.6982 7.8767C23.1102 5.48099 27.2514 4.35194 31.407 4.68447C35.617 5.00621 39.574 6.81988 42.5662 9.79923C45.5841 12.8165 47.416 16.8188 47.7275 21.0752C48.0357 25.2773 46.8426 29.4524 44.3605 32.8569C44.296 32.9449 44.2118 33.0166 44.1145 33.066C44.0172 33.1155 43.9097 33.1414 43.8005 33.1417C43.6523 33.1424 43.5087 33.0952 43.3894 33.0073ZM29.1784 26.3052C29.099 26.2603 29.0292 26.2002 28.9731 26.1283C28.917 26.0564 28.8755 25.9742 28.8512 25.8863C28.8268 25.7984 28.82 25.7066 28.8311 25.6161C28.8422 25.5255 28.8711 25.4381 28.916 25.3587L29.7663 23.857H29.0256C28.895 23.8568 28.7671 23.8198 28.6565 23.7503C28.5459 23.6809 28.457 23.5817 28.4 23.4642C28.3431 23.3467 28.3204 23.2156 28.3345 23.0859C28.3487 22.9561 28.3991 22.833 28.48 22.7305L30.2847 20.4504C30.3413 20.3788 30.4116 20.319 30.4913 20.2745C30.5711 20.2301 30.6588 20.2017 30.7495 20.1912C30.8402 20.1806 30.9321 20.1881 31.0199 20.2131C31.1078 20.238 31.1898 20.2801 31.2614 20.3368C31.4058 20.4512 31.4989 20.6183 31.5202 20.8013C31.5415 20.9843 31.4893 21.1683 31.375 21.3128L30.4607 22.4673H30.9566C31.0781 22.4673 31.1973 22.4992 31.3026 22.5597C31.4079 22.6202 31.4955 22.7072 31.5566 22.8121C31.6178 22.917 31.6505 23.0361 31.6513 23.1575C31.6522 23.279 31.6212 23.3985 31.5614 23.5042L30.1215 26.0436C30.0609 26.1506 29.973 26.2396 29.8668 26.3015C29.7605 26.3633 29.6397 26.3958 29.5167 26.3956C29.3978 26.3954 29.2817 26.3642 29.1784 26.3052ZM17.3272 10.8777C17.2624 10.8136 17.2108 10.7373 17.1755 10.6533C17.1402 10.5692 17.1217 10.479 17.1213 10.3879C17.1208 10.2967 17.1384 10.2063 17.1729 10.1219C17.2074 10.0375 17.2582 9.96078 17.3224 9.89604L17.3336 9.88484C17.3977 9.81989 17.474 9.76823 17.5581 9.73282C17.6422 9.69742 17.7325 9.67896 17.8238 9.67852C17.915 9.67807 18.0055 9.69564 18.0899 9.73022C18.1744 9.76481 18.2512 9.81572 18.3159 9.88004C18.3807 9.94415 18.4323 10.0204 18.4676 10.1045C18.5029 10.1885 18.5214 10.2787 18.5218 10.3699C18.5223 10.4611 18.5047 10.5514 18.4702 10.6358C18.4357 10.7202 18.3849 10.797 18.3207 10.8617L18.3095 10.8729C18.2451 10.9382 18.1684 10.9899 18.0838 11.0252C17.9992 11.0605 17.9084 11.0786 17.8168 11.0785C17.6342 11.0785 17.4591 11.0064 17.3296 10.8777H17.3272Z" fill="#0065C1"/>
</svg>
