<svg width="60" height="46" viewBox="0 0 60 46" fill="none" xmlns="http://www.w3.org/2000/svg">
<path d="M11.7603 41.3317C11.6145 41.3317 11.4746 41.2738 11.3714 41.1708C11.2683 41.0677 11.2102 40.9279 11.21 40.7821C11.2102 40.6362 11.2682 40.4963 11.3714 40.3932C11.4746 40.29 11.6144 40.232 11.7603 40.2317H13.9298V37.6911C13.9298 37.5453 13.9877 37.4054 14.0907 37.3022C14.1937 37.199 14.3335 37.141 14.4793 37.1408C14.6252 37.141 14.7651 37.199 14.8683 37.3022C14.9714 37.4054 15.0295 37.5452 15.0297 37.6911V40.2309H20.1342V32.5515H15.0297V35.2929C15.0295 35.4388 14.9714 35.5786 14.8683 35.6818C14.7651 35.785 14.6252 35.843 14.4793 35.8432C14.3335 35.843 14.1937 35.785 14.0907 35.6818C13.9877 35.5786 13.9298 35.4387 13.9298 35.2929V31.9979C13.9298 31.8521 13.9877 31.7122 14.0907 31.609C14.1937 31.5058 14.3335 31.4478 14.4793 31.4475H20.135V28.5294C20.135 28.4571 20.1492 28.3856 20.1769 28.3189C20.2046 28.2521 20.2451 28.1915 20.2962 28.1405C20.3473 28.0894 20.408 28.049 20.4748 28.0214C20.5415 27.9938 20.6131 27.9797 20.6853 27.9798H26.341V24.392C26.341 24.2461 26.3989 24.1061 26.5022 24.0029C26.6054 23.8997 26.7454 23.8417 26.8913 23.8417H32.547V20.2547C32.547 20.1088 32.6049 19.9688 32.7082 19.8656C32.8114 19.7623 32.9514 19.7044 33.0973 19.7044H38.7537V16.4062C38.7537 16.2604 38.8116 16.1205 38.9147 16.0173C39.0177 15.9141 39.1575 15.856 39.3033 15.8558H41.2904C41.4363 15.856 41.5761 15.9141 41.6793 16.0173C41.7825 16.1204 41.8405 16.2603 41.8407 16.4062C41.8405 16.5521 41.7825 16.6919 41.6793 16.7951C41.5761 16.8983 41.4363 16.9563 41.2904 16.9565H39.8505V40.2349H44.9557V16.9565H43.6854C43.5395 16.9563 43.3997 16.8983 43.2965 16.7951C43.1933 16.6919 43.1353 16.5521 43.1351 16.4062C43.1353 16.2603 43.1933 16.1204 43.2965 16.0173C43.3997 15.9141 43.5395 15.856 43.6854 15.8558H45.5061C45.6519 15.856 45.7917 15.9141 45.8947 16.0173C45.9978 16.1205 46.0557 16.2604 46.0557 16.4062V40.2317H48.2251C48.3709 40.232 48.5107 40.29 48.6138 40.3932C48.7168 40.4964 48.7747 40.6363 48.7747 40.7821C48.7747 40.9279 48.7168 41.0676 48.6137 41.1707C48.5107 41.2738 48.3709 41.3317 48.2251 41.3317H11.7603ZM33.6469 24.392V40.2309H38.7513V20.8059H33.6469V24.392ZM27.4409 28.5294V40.2317H32.5462V24.9424H27.4409V28.5294ZM21.2349 40.2317H26.341V29.0797H21.2349V40.2317ZM13.6482 28.3214C13.5219 28.1448 13.4321 27.9449 13.3838 27.7332C13.3356 27.5216 13.3301 27.3025 13.3674 27.0886C13.4033 26.8747 13.4813 26.6699 13.597 26.4864C13.7126 26.3028 13.8635 26.1439 14.041 26.0191L27.1185 16.7494C27.2376 16.665 27.3854 16.6315 27.5293 16.6561C27.6731 16.6807 27.8013 16.7614 27.8857 16.8806C27.97 16.9997 28.0035 17.1474 27.9789 17.2913C27.9543 17.4352 27.8736 17.5634 27.7545 17.6477L14.6769 26.9167C14.5578 27.0011 14.477 27.1295 14.4524 27.2735C14.4278 27.4175 14.4614 27.5654 14.5457 27.6846C14.5964 27.7567 14.6637 27.8153 14.742 27.8556C14.8203 27.8959 14.9073 27.9165 14.9953 27.9158C15.1098 27.9167 15.2217 27.8817 15.3153 27.8158L41.1696 9.48986C41.2585 9.42678 41.3641 9.39151 41.473 9.38852C41.582 9.38553 41.6893 9.41495 41.7815 9.47306C41.8738 9.53127 41.9468 9.61554 41.9912 9.7152C42.0357 9.81487 42.0495 9.92547 42.0311 10.033L41.8447 11.1273C41.8325 11.1985 41.8345 11.2714 41.8506 11.3419C41.8666 11.4123 41.8965 11.4789 41.9383 11.5377C41.98 11.5969 42.033 11.6472 42.0943 11.6857C42.1555 11.7243 42.2238 11.7504 42.2951 11.7625C42.326 11.7678 42.3573 11.7705 42.3887 11.7705C42.5186 11.7708 42.6443 11.7249 42.7435 11.6411C42.8426 11.5573 42.9088 11.441 42.9303 11.3129L43.563 7.59959C43.5756 7.5284 43.5737 7.45543 43.5577 7.38495C43.5416 7.31448 43.5116 7.24793 43.4694 7.18922C43.4279 7.12992 43.3749 7.0795 43.3137 7.0409C43.2524 7.00231 43.1841 6.97631 43.1127 6.96443L39.3993 6.33168C39.3281 6.31946 39.2552 6.32144 39.1848 6.3375C39.1143 6.35356 39.0478 6.38339 38.9889 6.42527C38.8697 6.5097 38.7888 6.63802 38.7641 6.78204C38.7402 6.92592 38.7742 7.07341 38.8585 7.19238C38.9429 7.31135 39.0708 7.39216 39.2145 7.4172L40.308 7.60279C40.4153 7.62108 40.5147 7.67074 40.5937 7.74549C40.6727 7.82024 40.7278 7.91672 40.752 8.02276C40.7761 8.12889 40.7682 8.23976 40.7293 8.3414C40.6904 8.44304 40.6223 8.53091 40.5336 8.59392L30.1559 15.9486C30.0368 16.0329 29.889 16.0665 29.7452 16.0419C29.6013 16.0173 29.4731 15.9365 29.3888 15.8174C29.347 15.7585 29.3173 15.6919 29.3013 15.6215C29.2853 15.5511 29.2834 15.4782 29.2956 15.4071C29.3077 15.3359 29.3338 15.2678 29.3723 15.2067C29.4108 15.1457 29.461 15.0928 29.52 15.0511L38.8281 8.45313C38.4438 8.33575 38.1153 8.08254 37.9039 7.74076C37.6925 7.39897 37.6128 6.99195 37.6794 6.59566C37.7153 6.38168 37.7933 6.17695 37.909 5.99336C38.0246 5.80976 38.1755 5.65095 38.353 5.52613C38.5295 5.40007 38.7293 5.31034 38.9408 5.26214C39.1522 5.21393 39.3712 5.20823 39.5849 5.24535L43.2982 5.87811C43.5121 5.91412 43.7167 5.9921 43.9003 6.10757C44.0838 6.22303 44.2427 6.37369 44.3678 6.55086C44.4937 6.72745 44.5833 6.92725 44.6315 7.13871C44.6797 7.35016 44.6855 7.56907 44.6486 7.78278L44.0078 11.4945C43.9435 11.8792 43.7448 12.2285 43.4469 12.4802C43.149 12.7319 42.7715 12.8696 42.3815 12.8688C42.2871 12.8687 42.1929 12.8604 42.0999 12.844C41.8865 12.808 41.6824 12.7299 41.4994 12.6145C41.3163 12.499 41.158 12.3483 41.0336 12.1713C40.8207 11.8727 40.7139 11.5113 40.7304 11.1449L15.9456 28.7125C15.6673 28.9108 15.3339 29.0171 14.9921 29.0165C14.7289 29.0158 14.4696 28.9523 14.2359 28.8312C14.0022 28.7102 13.8007 28.5359 13.6482 28.3214Z" fill="#0065C1"/>
</svg>
