<svg width="60" height="47" viewBox="0 0 60 47" fill="none" xmlns="http://www.w3.org/2000/svg">
<path d="M10.1804 42.2274C9.62591 42.2267 9.09437 42.0061 8.70245 41.6139C8.31054 41.2217 8.0903 40.69 8.09009 40.1355C8.09071 39.7187 8.21565 39.3116 8.44893 38.9661C8.6822 38.6207 9.01321 38.3527 9.39961 38.1965C9.43021 37.898 9.5165 37.6079 9.654 37.3413C9.85352 36.9536 10.1525 36.6259 10.5204 36.3918C10.6332 36.32 10.7305 36.2265 10.8066 36.1166C10.8827 36.0067 10.9361 35.8826 10.9635 35.7518C11.0783 35.1992 11.3319 34.6848 11.7004 34.2573C12.0689 33.8297 12.5401 33.503 13.0698 33.308C13.2228 33.252 13.3797 33.2076 13.5394 33.1752V18.2074L12.3122 18.8217C12.0704 18.9431 11.8016 19.0006 11.5313 18.9886C11.261 18.9767 10.9982 18.8958 10.768 18.7537C10.5378 18.6115 10.3478 18.4128 10.2161 18.1765C10.0844 17.9401 10.0154 17.674 10.0156 17.4034V15.9091C10.0145 15.6145 10.096 15.3254 10.2508 15.0748C10.4056 14.8241 10.6276 14.6218 10.8915 14.4908L29.2905 5.27305C29.5112 5.16315 29.7543 5.10596 30.0008 5.10596C30.2474 5.10596 30.4905 5.16315 30.7112 5.27305L49.1102 14.4908C49.3747 14.6214 49.5974 14.8235 49.753 15.0742C49.9085 15.3248 49.9907 15.6141 49.9901 15.9091V17.4002C49.9901 17.671 49.9208 17.9372 49.7889 18.1736C49.6569 18.41 49.4667 18.6087 49.2363 18.7508C49.0059 18.893 48.743 18.9738 48.4725 18.9857C48.202 18.9975 47.933 18.94 47.6911 18.8185L46.4655 18.2042V20.5816C46.4655 20.7514 46.3981 20.9141 46.2781 21.0341C46.1581 21.1542 45.9953 21.2216 45.8256 21.2216C45.6558 21.2216 45.493 21.1542 45.373 21.0341C45.253 20.9141 45.1856 20.7514 45.1856 20.5816V17.5642L30.1464 10.0279C30.1043 10.007 30.0579 9.99611 30.0108 9.99611C29.9638 9.99611 29.9174 10.007 29.8753 10.0279L14.8361 17.5642V38.0429H17.3856V36.4678C17.3856 36.3837 17.4021 36.3005 17.4343 36.2229C17.4664 36.1452 17.5136 36.0747 17.573 36.0152C17.6324 35.9558 17.703 35.9087 17.7806 35.8765C17.8583 35.8444 17.9415 35.8278 18.0255 35.8278C18.1096 35.8278 18.1928 35.8444 18.2704 35.8765C18.3481 35.9087 18.4186 35.9558 18.478 36.0152C18.5375 36.0747 18.5846 36.1452 18.6168 36.2229C18.6489 36.3005 18.6655 36.3837 18.6655 36.4678V38.0477H25.7851V24.9533H18.6655V33.4872C18.6655 33.5712 18.6489 33.6544 18.6168 33.7321C18.5846 33.8097 18.5375 33.8803 18.478 33.9397C18.4186 33.9991 18.3481 34.0462 18.2704 34.0784C18.1928 34.1106 18.1096 34.1271 18.0255 34.1271C17.9415 34.1271 17.8583 34.1106 17.7806 34.0784C17.703 34.0462 17.6324 33.9991 17.573 33.9397C17.5136 33.8803 17.4664 33.8097 17.4343 33.7321C17.4021 33.6544 17.3856 33.5712 17.3856 33.4872V24.9533H17.2576C17.0878 24.9533 16.9251 24.8859 16.805 24.7659C16.685 24.6459 16.6176 24.4831 16.6176 24.3134C16.6176 24.1437 16.685 23.9809 16.805 23.8609C16.9251 23.7408 17.0878 23.6734 17.2576 23.6734H27.2026C27.3723 23.6734 27.5351 23.7408 27.6551 23.8609C27.7751 23.9809 27.8426 24.1437 27.8426 24.3134C27.8426 24.4831 27.7751 24.6459 27.6551 24.7659C27.5351 24.8859 27.3723 24.9533 27.2026 24.9533H27.0746V38.0453H45.1864V23.5846C45.1864 23.4149 45.2538 23.2521 45.3738 23.1321C45.4938 23.0121 45.6566 22.9447 45.8264 22.9447C45.9961 22.9447 46.1589 23.0121 46.2789 23.1321C46.3989 23.2521 46.4663 23.4149 46.4663 23.5846V33.1768C46.6262 33.2093 46.7834 33.2537 46.9367 33.3096C47.4662 33.5048 47.9373 33.8316 48.3056 34.2591C48.6739 34.6866 48.9274 35.2009 49.0422 35.7534C49.0696 35.8844 49.123 36.0085 49.1993 36.1184C49.2755 36.2283 49.3731 36.3218 49.4861 36.3934C49.8536 36.6279 50.1525 36.9555 50.3525 37.3429C50.4891 37.6099 50.5753 37.8998 50.6069 38.1981C50.993 38.3546 51.3237 38.6227 51.5568 38.9681C51.7899 39.3135 51.9148 39.7205 51.9156 40.1371C51.915 40.6913 51.6945 41.2226 51.3027 41.6145C50.9108 42.0063 50.3795 42.2267 49.8253 42.2274H10.1804ZM9.37402 40.1371C9.37444 40.3508 9.45953 40.5557 9.61066 40.7068C9.76179 40.858 9.96664 40.943 10.1804 40.9435H49.8149C50.0287 40.943 50.2337 40.858 50.3849 40.7069C50.5362 40.5558 50.6214 40.3509 50.6221 40.1371C50.6214 39.9233 50.5362 39.7185 50.3849 39.5674C50.2337 39.4163 50.0287 39.3312 49.8149 39.3308H10.1804C9.96622 39.3301 9.76059 39.4145 9.60864 39.5654C9.45669 39.7163 9.37086 39.9214 9.37002 40.1355L9.37402 40.1371ZM46.4559 38.0469H49.2518C49.2358 38.0085 49.2198 37.9669 49.2014 37.9325C49.1059 37.747 48.9629 37.5902 48.787 37.4781C48.53 37.3141 48.3081 37.1006 48.1342 36.8501C47.9604 36.5997 47.838 36.3172 47.7742 36.019C47.7041 35.679 47.5483 35.3625 47.3217 35.0995C47.095 34.8364 46.805 34.6356 46.4791 34.5159L46.4559 34.5079V38.0469ZM13.5154 34.5159C13.1894 34.6355 12.8992 34.8364 12.6725 35.0994C12.4457 35.3624 12.2898 35.6789 12.2195 36.019C12.1561 36.3171 12.034 36.5996 11.8605 36.8501C11.6869 37.1006 11.4652 37.3141 11.2083 37.4781C11.0322 37.59 10.8892 37.7468 10.7939 37.9325C10.7746 37.9693 10.758 38.0076 10.7443 38.0469H13.5394V34.5063L13.5154 34.5159ZM30.708 8.88321L48.2574 17.6762C48.3036 17.6993 48.3549 17.7102 48.4064 17.7078C48.458 17.7055 48.508 17.6899 48.5519 17.6628C48.5958 17.6356 48.6319 17.5976 48.657 17.5525C48.682 17.5074 48.6951 17.4566 48.695 17.405V15.9091C48.6953 15.853 48.6799 15.7979 48.6505 15.7501C48.6211 15.7023 48.5788 15.6637 48.5286 15.6388L30.1296 6.42097C30.0875 6.40004 30.0411 6.38915 29.994 6.38915C29.947 6.38915 29.9006 6.40004 29.8585 6.42097L11.4635 15.6388C11.4129 15.6636 11.3703 15.702 11.3405 15.7498C11.3106 15.7976 11.2948 15.8528 11.2947 15.9091V17.4002C11.2946 17.4521 11.3078 17.5031 11.333 17.5484C11.3583 17.5937 11.3947 17.6317 11.4388 17.6589C11.4829 17.6862 11.5333 17.7016 11.5851 17.7038C11.6369 17.7059 11.6884 17.6948 11.7347 17.6714L29.2833 8.87841C29.5037 8.76776 29.747 8.71023 29.9937 8.71042C30.2419 8.71059 30.4866 8.76924 30.708 8.88161V8.88321ZM22.8517 32.0577V30.9417C22.8529 30.7717 22.9213 30.6091 23.0419 30.4892C23.1625 30.3693 23.3256 30.302 23.4956 30.3018C23.6653 30.3018 23.8281 30.3692 23.9481 30.4892C24.0682 30.6092 24.1356 30.772 24.1356 30.9417V32.0553C24.1356 32.225 24.0682 32.3878 23.9481 32.5078C23.8281 32.6278 23.6653 32.6952 23.4956 32.6952C23.3256 32.695 23.1625 32.6276 23.0419 32.5078C22.9213 32.3879 22.8529 32.2253 22.8517 32.0553V32.0577ZM31.0912 31.2033C30.7266 31.2025 30.3772 31.0572 30.1195 30.7993C29.8618 30.5415 29.7167 30.192 29.7161 29.8274V25.0429C29.7167 24.6785 29.8618 24.3292 30.1196 24.0716C30.3773 23.8139 30.7268 23.669 31.0912 23.6686H41.2506C41.615 23.669 41.9645 23.8139 42.2222 24.0716C42.48 24.3292 42.6251 24.6785 42.6257 25.0429V29.8282C42.6251 30.1928 42.48 30.5423 42.2223 30.8001C41.9646 31.058 41.6152 31.2033 41.2506 31.2041L31.0912 31.2033ZM31 25.0437V29.8282C30.9999 29.8403 31.0022 29.8522 31.0067 29.8634C31.0112 29.8745 31.0179 29.8847 31.0264 29.8932C31.0349 29.9018 31.045 29.9086 31.0561 29.9132C31.0672 29.9178 31.0791 29.9202 31.0912 29.9202H41.2506C41.2627 29.9202 41.2746 29.9178 41.2857 29.9132C41.2968 29.9086 41.3069 29.9018 41.3154 29.8932C41.3239 29.8847 41.3306 29.8745 41.3351 29.8634C41.3396 29.8522 41.3419 29.8403 41.3418 29.8282V25.0429C41.3418 25.031 41.3394 25.0192 41.3349 25.0082C41.3303 24.9971 41.3235 24.9871 41.315 24.9787C41.3066 24.9703 41.2965 24.9637 41.2855 24.9592C41.2744 24.9547 41.2626 24.9524 41.2506 24.9525H31.0912C31.0791 24.9523 31.0671 24.9545 31.0559 24.9589C31.0446 24.9634 31.0344 24.9699 31.0257 24.9783C31.017 24.9867 31.01 24.9968 31.0052 25.0078C31.0004 25.0189 30.9978 25.0308 30.9976 25.0429L31 25.0437Z" fill="#0065C1"/>
</svg>
