<svg width="60" height="41" viewBox="0 0 60 41" fill="none" xmlns="http://www.w3.org/2000/svg">
<path d="M46.9471 35.5338H45.7711V19.625C45.7711 19.4423 45.6985 19.2671 45.5694 19.1379C45.4402 19.0087 45.265 18.9362 45.0823 18.9362H40.1223C39.9396 18.9362 39.7644 19.0087 39.6353 19.1379C39.5061 19.2671 39.4335 19.4423 39.4335 19.625V35.5354H37.3735V25.8706C37.3735 25.7801 37.3557 25.6905 37.3211 25.607C37.2865 25.5234 37.2357 25.4475 37.1718 25.3835C37.1078 25.3196 37.0319 25.2688 36.9483 25.2342C36.8647 25.1996 36.7752 25.1818 36.6847 25.1818H31.7247C31.6343 25.1818 31.5447 25.1996 31.4611 25.2342C31.3776 25.2688 31.3016 25.3196 31.2377 25.3835C31.1737 25.4475 31.123 25.5234 31.0883 25.607C31.0537 25.6905 31.0359 25.7801 31.0359 25.8706V35.5338H28.9767V31.021C28.9799 30.9286 28.9644 30.8365 28.9312 30.7503C28.898 30.664 28.8478 30.5853 28.7836 30.5188C28.7194 30.4524 28.6424 30.3995 28.5573 30.3634C28.4722 30.3273 28.3807 30.3087 28.2883 30.3087C28.1959 30.3087 28.1044 30.3273 28.0193 30.3634C27.9342 30.3995 27.8573 30.4524 27.793 30.5188C27.7288 30.5853 27.6786 30.664 27.6454 30.7503C27.6122 30.8365 27.5968 30.9286 27.5999 31.021V35.5338H24.0191V20.3114H27.5999V24.8234C27.606 25.0019 27.6812 25.1711 27.8096 25.2952C27.9381 25.4193 28.1097 25.4887 28.2883 25.4887C28.4669 25.4887 28.6386 25.4193 28.767 25.2952C28.8954 25.1711 28.9706 25.0019 28.9767 24.8234V19.6234C28.9767 19.4407 28.9041 19.2655 28.775 19.1363C28.6458 19.0071 28.4706 18.9346 28.2879 18.9346H23.3279C23.1452 18.9346 22.97 19.0071 22.8409 19.1363C22.7117 19.2655 22.6391 19.4407 22.6391 19.6234V35.5338H20.5799V25.8706C20.5799 25.7801 20.5621 25.6905 20.5275 25.607C20.4929 25.5234 20.4421 25.4475 20.3782 25.3835C20.3142 25.3196 20.2383 25.2688 20.1547 25.2342C20.0711 25.1996 19.9816 25.1818 19.8911 25.1818H14.9311C14.8407 25.1818 14.7511 25.1996 14.6675 25.2342C14.584 25.2688 14.508 25.3196 14.4441 25.3835C14.3801 25.4475 14.3294 25.5234 14.2947 25.607C14.2601 25.6905 14.2423 25.7801 14.2423 25.8706V35.5338H13.0687C12.9763 35.5306 12.8843 35.5461 12.798 35.5793C12.7117 35.6124 12.633 35.6627 12.5666 35.7269C12.5001 35.7911 12.4472 35.8681 12.4111 35.9532C12.375 36.0383 12.3564 36.1297 12.3564 36.2222C12.3564 36.3146 12.375 36.4061 12.4111 36.4912C12.4472 36.5763 12.5001 36.6532 12.5666 36.7175C12.633 36.7817 12.7117 36.8319 12.798 36.8651C12.8843 36.8982 12.9763 36.9137 13.0687 36.9106H46.9471C47.0395 36.9137 47.1316 36.8982 47.2178 36.8651C47.3041 36.8319 47.3828 36.7817 47.4493 36.7175C47.5157 36.6532 47.5686 36.5763 47.6047 36.4912C47.6408 36.4061 47.6594 36.3146 47.6594 36.2222C47.6594 36.1297 47.6408 36.0383 47.6047 35.9532C47.5686 35.8681 47.5157 35.7911 47.4493 35.7269C47.3828 35.6627 47.3041 35.6124 47.2178 35.5793C47.1316 35.5461 47.0395 35.5306 46.9471 35.5338ZM15.6223 35.5338V26.5594H19.2023V35.5338H15.6223ZM32.4159 35.5338V26.5594H35.9967V35.5338H32.4159ZM40.8159 35.5338V20.3114H44.3967V35.533L40.8159 35.5338Z" fill="#0065C1"/>
<path d="M17.4119 19.1415C17.9793 19.142 18.5364 18.99 19.0248 18.7014C19.5133 18.4127 19.9152 17.9981 20.1884 17.5009C20.4616 17.0036 20.5962 16.4421 20.5779 15.875C20.5597 15.3079 20.3894 14.7562 20.0847 14.2775L24.1119 10.2495C24.6189 10.5728 25.2075 10.7445 25.8087 10.7445C26.4099 10.7445 26.9986 10.5728 27.5055 10.2495L31.5375 14.2775C31.2328 14.7563 31.0624 15.3082 31.044 15.8755C31.0256 16.4427 31.16 17.0045 31.4331 17.502C31.7062 17.9996 32.108 18.4146 32.5964 18.7036C33.0849 18.9927 33.642 19.1452 34.2095 19.1452C34.7771 19.1452 35.3342 18.9927 35.8226 18.7036C36.3111 18.4146 36.7128 17.9996 36.9859 17.502C37.2591 17.0045 37.3935 16.4427 37.3751 15.8755C37.3567 15.3082 37.1863 14.7563 36.8815 14.2775L40.9063 10.2495C41.5657 10.6686 42.3566 10.8295 43.1273 10.7015C43.898 10.5736 44.5944 10.1656 45.083 9.55594C45.5715 8.94625 45.8179 8.17771 45.7749 7.39762C45.7318 6.61752 45.4024 5.88075 44.8497 5.32853C44.297 4.77631 43.56 4.44748 42.7799 4.40507C41.9997 4.36266 41.2314 4.60966 40.6221 5.09872C40.0128 5.58778 39.6055 6.28449 39.4781 7.05533C39.3507 7.82616 39.5124 8.61688 39.9319 9.27593L35.9039 13.3039C35.3968 12.9802 34.8076 12.8082 34.2059 12.8082C33.6043 12.8082 33.0151 12.9802 32.5079 13.3039L28.4799 9.27593C28.785 8.79715 28.9557 8.2452 28.9742 7.67782C28.9928 7.11045 28.8586 6.54851 28.5855 6.05081C28.3125 5.55311 27.9107 5.13795 27.4222 4.84877C26.9337 4.55958 26.3764 4.40701 25.8087 4.40701C25.2411 4.40701 24.6838 4.55958 24.1953 4.84877C23.7068 5.13795 23.305 5.55311 23.032 6.05081C22.7589 6.54851 22.6247 7.11045 22.6432 7.67782C22.6618 8.2452 22.8325 8.79715 23.1375 9.27593L19.1111 13.3023C18.6964 13.0392 18.2262 12.8761 17.7376 12.826C17.249 12.7759 16.7554 12.8402 16.2959 13.0138C15.8365 13.1873 15.4236 13.4653 15.0901 13.8259C14.7566 14.1865 14.5116 14.6197 14.3744 15.0913C14.2372 15.5629 14.2115 16.06 14.2995 16.5432C14.3875 17.0264 14.5867 17.4825 14.8814 17.8755C15.176 18.2685 15.5581 18.5875 15.9973 18.8074C16.4365 19.0272 16.9208 19.1411 17.4119 19.1415ZM42.6031 5.78633C42.9572 5.78633 43.3034 5.89133 43.5978 6.08806C43.8923 6.2848 44.1217 6.56442 44.2573 6.89157C44.3928 7.21872 44.4282 7.57871 44.3591 7.92602C44.2901 8.27332 44.1195 8.59234 43.8691 8.84273C43.6188 9.09312 43.2997 9.26364 42.9524 9.33273C42.6051 9.40181 42.2451 9.36635 41.918 9.23084C41.5908 9.09533 41.3112 8.86585 41.1145 8.57142C40.9177 8.27699 40.8127 7.93083 40.8127 7.57673C40.8132 7.10201 41.0019 6.64686 41.3376 6.31119C41.6733 5.97552 42.1284 5.78675 42.6031 5.78633ZM35.9959 15.9759C35.9959 16.33 35.8909 16.6762 35.6942 16.9706C35.4975 17.265 35.2179 17.4945 34.8907 17.63C34.5635 17.7656 34.2036 17.801 33.8563 17.7319C33.5089 17.6628 33.1899 17.4923 32.9395 17.2419C32.6891 16.9915 32.5186 16.6725 32.4495 16.3252C32.3805 15.9779 32.4159 15.6179 32.5514 15.2908C32.6869 14.9636 32.9164 14.684 33.2108 14.4873C33.5053 14.2905 33.8514 14.1855 34.2055 14.1855C34.6803 14.186 35.1354 14.3747 35.4711 14.7104C35.8068 15.0461 35.9955 15.5012 35.9959 15.9759ZM25.8087 5.78633C26.1628 5.78649 26.5089 5.89163 26.8032 6.08845C27.0975 6.28528 27.3269 6.56496 27.4623 6.89212C27.5977 7.21929 27.633 7.57926 27.5638 7.92651C27.4947 8.27376 27.3241 8.5927 27.0737 8.84301C26.8232 9.09333 26.5042 9.26376 26.1569 9.33278C25.8097 9.4018 25.4497 9.3663 25.1226 9.23076C24.7955 9.09523 24.5159 8.86575 24.3192 8.57134C24.1225 8.27692 24.0175 7.9308 24.0175 7.57673C24.018 7.10188 24.2068 6.6466 24.5427 6.31091C24.8785 5.97521 25.3339 5.78654 25.8087 5.78633ZM17.4087 14.1863C17.7628 14.1863 18.109 14.2913 18.4034 14.4881C18.6979 14.6848 18.9273 14.9644 19.0629 15.2916C19.1984 15.6187 19.2338 15.9787 19.1647 16.326C19.0957 16.6733 18.9251 16.9923 18.6747 17.2427C18.4244 17.4931 18.1053 17.6636 17.758 17.7327C17.4107 17.8018 17.0507 17.7664 16.7236 17.6308C16.3964 17.4953 16.1168 17.2658 15.9201 16.9714C15.7233 16.677 15.6183 16.3308 15.6183 15.9767C15.6182 15.7412 15.6646 15.508 15.7547 15.2903C15.8448 15.0727 15.9769 14.875 16.1435 14.7085C16.3101 14.542 16.5078 14.41 16.7255 14.32C16.9431 14.2299 17.1764 14.1837 17.4119 14.1839L17.4087 14.1863ZM28.2887 27.2343C28.1294 27.2344 27.975 27.2897 27.8518 27.3909C27.7287 27.492 27.6444 27.6327 27.6134 27.789C27.5824 27.9453 27.6065 28.1075 27.6817 28.2481C27.7569 28.3886 27.8784 28.4987 28.0257 28.5596C28.1729 28.6205 28.3367 28.6285 28.4892 28.5822C28.6417 28.5359 28.7734 28.4381 28.8619 28.3056C28.9504 28.1731 28.9902 28.014 28.9745 27.8554C28.9588 27.6968 28.8887 27.5486 28.7759 27.4359C28.6464 27.3072 28.4713 27.2348 28.2887 27.2343Z" fill="#0065C1"/>
</svg>
