<svg width="60" height="42" viewBox="0 0 60 42" fill="none" xmlns="http://www.w3.org/2000/svg">
<path d="M45.5708 8.72817C45.2903 7.84105 44.9148 6.98683 44.4508 6.18036C44.3984 6.09675 44.3215 6.03131 44.2306 5.99295C44.1397 5.95459 44.0392 5.94517 43.9428 5.96597C43.0412 6.1954 42.1671 6.52154 41.3356 6.9387C39.707 7.64707 38.3834 8.91134 37.6012 10.5056C37.0965 11.8459 37.0213 13.31 37.386 14.6949C36.6445 13.8632 35.8016 13.1277 34.8772 12.5055C34.2671 11.3199 33.5366 10.2002 32.6972 9.16413C32.6185 9.06728 32.5045 9.00567 32.3804 8.99284C32.2562 8.98002 32.132 9.01703 32.0352 9.09574C31.9383 9.17445 31.8767 9.28841 31.8639 9.41255C31.8511 9.53669 31.8881 9.66084 31.9668 9.75769C32.6144 10.5599 33.195 11.4139 33.7028 12.3111L29.418 11.4784L25.3468 5.92518C25.7451 5.92978 26.1421 5.9702 26.5332 6.04597C27.9011 6.34991 29.1672 7.00246 30.2084 7.94023C30.3041 8.01926 30.4271 8.05742 30.5507 8.04643C30.6744 8.03545 30.7887 7.9762 30.869 7.88152C30.9493 7.78685 30.989 7.66437 30.9796 7.5406C30.9702 7.41684 30.9124 7.30176 30.8188 7.22028C29.6544 6.17884 28.2403 5.45653 26.714 5.12364C24.5588 4.70207 22.0444 5.25563 19.4436 6.72352C18.2656 7.38654 17.1627 8.17478 16.154 9.07454C16.0691 9.15772 16.0168 9.26854 16.0065 9.38695C15.9962 9.50536 16.0287 9.62354 16.098 9.72009C16.6861 10.8932 17.393 12.0029 18.2076 13.0318C18.8639 13.872 19.6096 14.6383 20.4316 15.3173C20.2124 15.5007 19.9991 15.6932 19.7916 15.8948C18.5016 17.1575 17.5463 18.7213 17.0117 20.4454C16.477 22.1694 16.38 23.9993 16.7292 25.7702C17.0784 27.5411 17.863 29.1973 19.0121 30.5893C20.1613 31.9813 21.6388 33.0654 23.3116 33.7439C23.4272 33.7908 23.5568 33.7898 23.6717 33.7412C23.7866 33.6926 23.8775 33.6003 23.9244 33.4847C23.9713 33.3691 23.9703 33.2396 23.9217 33.1246C23.8731 33.0097 23.7808 32.9188 23.6652 32.8719C22.9453 32.5795 22.2622 32.2037 21.63 31.752C21.8305 30.459 21.5455 29.1375 20.83 28.0419C20.6812 27.8099 21.1268 26.8972 21.39 26.3524C21.6782 25.815 21.9098 25.249 22.0812 24.6638C22.1596 24.4102 22.1578 24.1386 22.0759 23.8861C21.994 23.6336 21.836 23.4127 21.6236 23.2535C21.2826 23.0231 20.9034 22.8552 20.5036 22.7575C20.2887 22.7061 20.082 22.6254 19.8892 22.5175C19.5709 22.1197 19.3022 21.6845 19.0892 21.2216C18.8518 20.7224 18.5636 20.249 18.2292 19.8089C18.8783 18.2782 19.899 16.9334 21.1988 15.8964C22.3692 16.7243 23.7357 17.2319 25.1628 17.3691C23.5004 18.657 22.9628 20.3017 23.7316 21.8824C24.6292 23.727 26.4772 23.4327 28.1068 23.1727C28.3892 23.1279 28.6804 23.0815 28.9604 23.0463C29.0652 23.0335 29.0972 23.0615 29.1204 23.0807C29.4772 23.4007 29.4668 24.9141 29.4588 26.0221C29.4484 27.5539 29.4388 29.0002 30.0092 29.7434C30.1467 29.9255 30.3256 30.0724 30.531 30.1718C30.7365 30.2713 30.9626 30.3205 31.1908 30.3153C31.5114 30.3087 31.8274 30.2372 32.1196 30.105C33.5388 29.497 35.0132 27.6691 34.7884 26.222C34.5916 24.9573 34.462 24.1214 34.7684 23.4479C35.0524 22.8247 35.738 22.2479 37.0884 21.5104C37.4311 23.0526 37.4009 24.6542 37.0005 26.1824C36.6001 27.7105 35.8409 29.1212 34.786 30.2972C33.7311 31.4732 32.4108 32.3806 30.9349 32.9441C29.459 33.5077 27.8699 33.7111 26.2996 33.5375C26.1794 33.5311 26.0614 33.571 25.9696 33.6488C25.8779 33.7267 25.8194 33.8367 25.8063 33.9563C25.7931 34.0759 25.8261 34.196 25.8987 34.292C25.9712 34.388 26.0777 34.4527 26.1964 34.4726C27.797 34.6463 29.4162 34.4643 30.9384 33.9398C32.4606 33.4153 33.8481 32.5612 35.002 31.4385C36.1661 30.2998 37.0594 28.9141 37.6159 27.3838C38.1724 25.8535 38.378 24.2178 38.2173 22.5974C38.0566 20.977 37.5339 19.4134 36.6877 18.0222C35.8414 16.631 34.6934 15.4477 33.3284 14.5597C33.7915 14.231 34.2392 13.8811 34.67 13.511C36.4813 14.8074 37.9129 16.5646 38.8165 18.6004C39.72 20.6362 40.0627 22.8766 39.809 25.0894C39.5553 27.3022 38.7144 29.407 37.3735 31.1854C36.0325 32.9639 34.2403 34.3515 32.1826 35.2044C30.1249 36.0573 27.8765 36.3444 25.6705 36.036C23.4645 35.7276 21.3811 34.8349 19.6362 33.4505C17.8913 32.0661 16.5484 30.2402 15.7466 28.1622C14.9449 26.0842 14.7135 23.8295 15.0764 21.632C15.0942 21.5101 15.0634 21.3861 14.9907 21.2866C14.9181 21.1872 14.8093 21.1202 14.6877 21.1001C14.5662 21.08 14.4416 21.1083 14.3408 21.1791C14.2399 21.2498 14.1708 21.3573 14.1484 21.4784C13.8605 23.2184 13.9182 24.998 14.3183 26.7157C14.7183 28.4334 15.4529 30.0554 16.4801 31.4891C17.5072 32.9228 18.8068 34.1401 20.3046 35.0715C21.8024 36.0029 23.469 36.6301 25.2092 36.9172C25.9419 37.0384 26.6833 37.0994 27.426 37.0996C29.6521 37.093 31.8417 36.5336 33.7981 35.4716C35.7545 34.4096 37.4165 32.8784 38.6347 31.0153C39.853 29.1523 40.5894 27.0159 40.7777 24.798C40.9661 22.58 40.6006 20.35 39.714 18.3082C40.4601 18.0863 41.1857 17.8005 41.8828 17.4539C43.5111 16.7465 44.835 15.4834 45.618 13.8902C46.215 12.2183 46.1988 10.3886 45.5708 8.72817ZM18.266 21.6624C18.5203 22.2403 18.8664 22.7732 19.2908 23.2407C19.5749 23.4393 19.8946 23.5814 20.2324 23.659C21.1516 23.9414 21.2588 24.0806 21.1708 24.4438C21.0137 24.9633 20.8055 25.466 20.5492 25.9445C20.0636 26.9388 19.6044 27.8771 20.0396 28.5547C20.5183 29.298 20.7661 30.1665 20.7516 31.0505C19.3729 29.796 18.3713 28.1821 17.8592 26.3899C17.347 24.5977 17.3447 22.6983 17.8524 20.9049C17.9908 21.1448 18.1364 21.4176 18.266 21.664V21.6624ZM41.0268 12.4183L39.69 9.17933C40.3039 8.62234 40.9933 8.15482 41.738 7.79064C42.2195 7.5505 42.716 7.34155 43.2244 7.16508L41.0268 12.4183ZM44.0916 7.52906C44.3198 8.01726 44.5164 8.51959 44.6804 9.03294C44.9193 9.76744 45.0626 10.5297 45.1068 11.3008L41.9732 12.5935L44.0916 7.52906ZM38.4676 10.8688C38.6063 10.545 38.7827 10.2386 38.9932 9.95607L40.5132 13.6438L39.1484 16.9052C38.911 16.4031 38.7073 15.8857 38.5388 15.3565C38.0011 13.9119 37.9757 12.3266 38.4668 10.8656L38.4676 10.8688ZM41.4812 16.6028C41.0144 16.8358 40.5334 17.0394 40.0412 17.2123L41.458 13.8238L45.0652 12.3351C45.0148 12.7438 44.909 13.1437 44.7508 13.5238C44.0454 14.8941 42.8909 15.9807 41.4804 16.602L41.4812 16.6028ZM24.5212 16.3348C24.3557 16.3022 24.1915 16.263 24.0292 16.2172L29.2356 12.4007L33.5228 13.2358C31.9612 14.4661 28.1628 17.0483 24.5212 16.3348ZM19.7596 13.3918C18.8389 12.3832 18.0339 11.2748 17.3596 10.0873L22.8156 11.1512L19.7596 13.3918ZM20.7196 7.11549L23.002 10.2289L17.5148 9.15853C18.5113 8.36939 19.5863 7.68477 20.7228 7.11549H20.7196ZM24.3636 10.4944L21.5996 6.71952C22.4411 6.36469 23.3249 6.12027 24.2292 5.99237L28.0572 11.2136L24.3636 10.4944ZM24.074 11.3952L27.9756 12.1559L22.9676 15.826C22.0334 15.3782 21.1768 14.7841 20.43 14.0662L24.074 11.3952ZM36.8388 20.5849C35.1428 21.488 34.3124 22.1984 33.918 23.0647C33.4948 23.9942 33.65 24.9917 33.8644 26.3732C33.9916 27.1876 33.0236 28.7043 31.7556 29.2466C31.286 29.4474 30.9556 29.4234 30.762 29.1762C30.3884 28.6899 30.3988 27.2172 30.4068 26.0349C30.418 24.3982 30.4276 22.9855 29.7524 22.3847C29.631 22.2777 29.4877 22.1986 29.3325 22.1528C29.1773 22.1071 29.014 22.0959 28.854 22.12C28.558 22.1568 28.258 22.2048 27.9684 22.2511C26.2388 22.5263 25.1508 22.6367 24.5868 21.4784C23.6732 19.6017 25.522 18.2115 26.3596 17.7003C26.53 17.5955 26.6895 17.4738 26.8356 17.3371C28.8561 17.0349 30.7833 16.2841 32.4756 15.1397C34.5375 16.371 36.0866 18.3042 36.8388 20.5849Z" fill="#0065C1"/>
</svg>
