<svg width="60" height="47" viewBox="0 0 60 47" fill="none" xmlns="http://www.w3.org/2000/svg">
<path d="M12.054 41.7658C11.9659 41.7659 11.879 41.7445 11.8009 41.7036C11.7229 41.6626 11.656 41.6032 11.606 41.5306C11.5558 41.458 11.524 41.3742 11.5136 41.2865C11.5031 41.1988 11.5142 41.1099 11.546 41.0275L15.9834 29.3955C16.0226 29.2924 16.0923 29.2037 16.1832 29.1411C16.2741 29.0785 16.3819 29.045 16.4922 29.0451H24.8934C24.8429 28.9651 24.7917 28.8812 24.7405 28.7956C21.5089 23.4467 19.8815 18.7665 19.9063 14.8871C19.9062 13.5611 20.1673 12.2482 20.6748 11.0232C21.1823 9.79814 21.9261 8.68504 22.8639 7.74744C23.8017 6.80983 24.915 6.06608 26.1404 5.55864C27.3657 5.05121 28.679 4.79004 30.0052 4.79004C31.3318 4.78993 32.6453 5.05108 33.8709 5.55855C35.0964 6.06603 36.21 6.8099 37.1479 7.74767C38.0859 8.68545 38.8299 9.79876 39.3374 11.024C39.8449 12.2493 40.106 13.5625 40.1058 14.8887C40.1282 18.7665 38.5056 23.4475 35.2708 28.7956L35.1163 29.0451H43.5175C43.6278 29.0452 43.7355 29.0787 43.8264 29.1412C43.9172 29.2038 43.987 29.2924 44.0263 29.3955L48.4645 41.0275C48.4961 41.11 48.5071 41.1989 48.4965 41.2866C48.4859 41.3743 48.4541 41.4581 48.4037 41.5306C48.3538 41.6033 48.2869 41.6627 48.2088 41.7036C48.1307 41.7446 48.0438 41.766 47.9557 41.7658H12.054ZM38.0327 35.1779L42.2669 40.6772H47.1619L44.224 32.9766L38.0327 35.1779ZM22.5674 40.6772H40.8899L36.9534 35.5626L26.8024 39.171L22.5674 40.6772ZM12.8453 40.6772H19.319L25.7407 38.3935L19.3822 30.1322H16.8683L12.8453 40.6772ZM26.82 38.0103L43.8343 31.9607L43.1374 30.133H34.4282C33.2002 32.05 31.8601 33.893 30.4149 35.6522C30.3637 35.7123 30.3 35.7605 30.2283 35.7935C30.1566 35.8265 30.0786 35.8435 29.9996 35.8434C29.9208 35.8435 29.843 35.8264 29.7714 35.7934C29.6998 35.7604 29.6363 35.7122 29.5852 35.6522C28.1391 33.8916 26.7984 32.0471 25.5702 30.1282H20.752L26.82 38.0103ZM20.9912 14.8863C20.9448 22.6244 28.1754 32.1575 30.0028 34.4428C31.8303 32.1559 39.0601 22.6204 39.0137 14.8879C39.0138 13.7048 38.7808 12.5334 38.328 11.4404C37.8752 10.3474 37.2114 9.35427 36.3747 8.51775C35.5379 7.68122 34.5445 7.01767 33.4513 6.565C32.358 6.11232 31.1862 5.87939 30.0028 5.87949C27.6133 5.87949 25.3216 6.82836 23.6318 8.51742C21.942 10.2065 20.9917 12.4974 20.9912 14.8863ZM25.4054 14.8863C25.4054 13.6673 25.8898 12.4982 26.752 11.6363C27.6142 10.7743 28.7835 10.2901 30.0028 10.2901C31.222 10.2901 32.3913 10.7742 33.2534 11.636C34.1156 12.4978 34.6 13.6666 34.6003 14.8855C34.599 16.1043 34.1141 17.2728 33.2521 18.1346C32.39 18.9964 31.2212 19.4812 30.002 19.4824C28.7831 19.4822 27.6141 18.998 26.7523 18.1362C25.8904 17.2744 25.4062 16.1057 25.4062 14.8871L25.4054 14.8863ZM26.4944 14.8863C26.495 15.8163 26.8647 16.708 27.5224 17.3658C28.18 18.0235 29.0718 18.3935 30.002 18.3946C30.9325 18.3946 31.8249 18.025 32.4829 17.3673C33.1409 16.7095 33.5105 15.8173 33.5105 14.8871C33.5105 14.4264 33.4197 13.9702 33.2434 13.5446C33.067 13.119 32.8085 12.7323 32.4826 12.4066C32.1567 12.0809 31.7699 11.8225 31.3441 11.6463C30.9184 11.4701 30.462 11.3794 30.0012 11.3795C29.0712 11.38 28.1794 11.7496 27.522 12.4072C26.8645 13.0648 26.4944 13.9565 26.4944 14.8863Z" fill="#0065C1"/>
</svg>
