<svg width="60" height="47" viewBox="0 0 60 47" fill="none" xmlns="http://www.w3.org/2000/svg">
<path d="M31.2821 41.4715C31.2017 41.4831 31.1197 41.4757 31.0426 41.45C30.9656 41.4243 30.8956 41.381 30.8382 41.3236C30.7808 41.2661 30.7376 41.196 30.712 41.119C30.6864 41.0419 30.6792 40.9599 30.6908 40.8795C30.6793 40.7992 30.6867 40.7173 30.7123 40.6403C30.738 40.5634 30.7812 40.4934 30.8386 40.4361C30.8959 40.3787 30.9659 40.3355 31.0429 40.3098C31.1198 40.2842 31.2017 40.2768 31.2821 40.2883H36.8024C36.9045 40.2814 37.0007 40.2377 37.073 40.1653C37.1454 40.093 37.1891 39.9968 37.196 39.8947V38.9091C37.1891 38.807 37.1454 38.7109 37.073 38.6385C37.0007 38.5661 36.9045 38.5224 36.8024 38.5155H22.8095C22.7073 38.5223 22.6109 38.5659 22.5384 38.6383C22.4659 38.7106 22.4221 38.8069 22.4151 38.9091V39.8947C22.4221 39.997 22.4659 40.0932 22.5384 40.1656C22.6109 40.238 22.7073 40.2816 22.8095 40.2883H28.5243C28.6782 40.2974 28.8234 40.3626 28.9325 40.4716C29.0416 40.5805 29.107 40.7256 29.1163 40.8795C29.1072 41.0336 29.0419 41.1789 28.9328 41.288C28.8237 41.3971 28.6783 41.4624 28.5243 41.4715H22.8095C22.6016 41.4744 22.3953 41.4356 22.2027 41.3574C22.01 41.2792 21.835 41.1632 21.688 41.0162C21.541 40.8692 21.425 40.6942 21.3467 40.5016C21.2685 40.3089 21.2297 40.1026 21.2326 39.8947V38.9091C21.2485 38.5285 21.3939 38.1647 21.6447 37.8779C21.8955 37.5912 22.2368 37.3987 22.6119 37.3323C22.5816 36.7198 22.6767 36.1076 22.8912 35.5331C23.1058 34.9586 23.4353 34.4339 23.8596 33.9912C24.284 33.5484 24.7942 33.1969 25.3591 32.9582C25.924 32.7194 26.5317 32.5985 27.145 32.6027H27.5402V14.4731H17.8804L17.2892 15.0643L21.0334 23.5379H21.8215C21.9754 23.5469 22.1206 23.612 22.2296 23.721C22.3386 23.83 22.4038 23.9752 22.4127 24.1291V24.9171C22.4279 25.5 22.3276 26.0801 22.1175 26.624C21.9075 27.1679 21.5919 27.6648 21.1888 28.0862C20.7858 28.5075 20.3034 28.845 19.7694 29.079C19.2353 29.3131 18.6602 29.4391 18.0772 29.4499H14.333C13.735 29.4599 13.141 29.3494 12.5866 29.1252C12.0321 28.9009 11.5284 28.5674 11.1055 28.1445C10.6825 27.7216 10.349 27.2179 10.1247 26.6635C9.90043 26.109 9.78998 25.5151 9.79993 24.9171V24.1291C9.80889 23.9752 9.87406 23.83 9.98305 23.721C10.0921 23.612 10.2373 23.5469 10.3912 23.5379H11.3768L14.9242 15.0643C14.7317 14.8909 14.5792 14.6778 14.4771 14.4397C14.375 14.2016 14.3258 13.9441 14.333 13.6851C14.3321 13.4519 14.3773 13.2209 14.4661 13.0053C14.5549 12.7897 14.6855 12.5938 14.8504 12.4289C15.0153 12.264 15.2112 12.1334 15.4268 12.0446C15.6425 11.9558 15.8735 11.9106 16.1067 11.9115C16.3403 11.8824 16.5772 11.923 16.7877 12.0284C16.9981 12.1338 17.1726 12.2991 17.2892 12.5035C20.0867 11.1749 23.0817 10.3103 26.1569 9.94352C26.2682 9.36918 26.5019 8.82553 26.842 8.34956C27.1822 7.87358 27.6209 7.47643 28.1283 7.18512V6.19952C28.104 6.00327 28.1215 5.80411 28.1796 5.61508C28.2376 5.42605 28.3349 5.2514 28.4651 5.10256C28.5953 4.95373 28.7555 4.83405 28.9351 4.75136C29.1147 4.66867 29.3098 4.62484 29.5075 4.62272H30.0988C30.3067 4.6197 30.5131 4.65843 30.7058 4.7366C30.8985 4.81477 31.0735 4.93081 31.2205 5.07783C31.3676 5.22486 31.4836 5.39988 31.5618 5.59255C31.64 5.78522 31.6787 5.99162 31.6757 6.19952V7.18512C32.183 7.47643 32.6217 7.87358 32.9619 8.34956C33.3021 8.82553 33.5357 9.36918 33.647 9.94352C36.7085 10.3762 39.6937 11.238 42.5147 12.5035C42.688 12.3108 42.9011 12.1581 43.1393 12.0559C43.3774 11.9537 43.635 11.9044 43.894 11.9115C44.1272 11.9106 44.3583 11.9558 44.5739 12.0446C44.7895 12.1334 44.9855 12.264 45.1503 12.4289C45.3152 12.5938 45.4459 12.7897 45.5347 13.0053C45.6235 13.2209 45.6687 13.4519 45.6677 13.6851C45.6749 13.9441 45.6257 14.2016 45.5237 14.4397C45.4216 14.6778 45.269 14.8909 45.0765 15.0643L48.6239 23.5379H49.6096C49.7634 23.547 49.9085 23.6123 50.0175 23.7212C50.1265 23.8302 50.1917 23.9753 50.2008 24.1291V24.9171C50.2108 25.5151 50.1003 26.109 49.876 26.6635C49.6517 27.2179 49.3182 27.7216 48.8953 28.1445C48.4723 28.5674 47.9687 28.9009 47.4142 29.1252C46.8597 29.3494 46.2658 29.4599 45.6677 29.4499H41.9235C41.3405 29.4391 40.7654 29.3131 40.2314 29.079C39.6974 28.845 39.2149 28.5075 38.8119 28.0862C38.4089 27.6648 38.0933 27.1679 37.8832 26.624C37.6732 26.0801 37.5728 25.5 37.588 24.9171V24.1291C37.597 23.9752 37.6622 23.83 37.7712 23.721C37.8802 23.612 38.0254 23.5469 38.1793 23.5379H38.9673L42.7116 15.0643C42.5142 14.8681 42.3171 14.671 42.1203 14.4731H32.2669V22.7499C32.2579 22.9039 32.1927 23.0493 32.0835 23.1583C31.9743 23.2673 31.8289 23.3324 31.6749 23.3411C31.5946 23.3525 31.5128 23.345 31.4359 23.3193C31.3591 23.2936 31.2892 23.2504 31.2319 23.193C31.1747 23.1357 31.1315 23.0658 31.1059 22.9889C31.0803 22.912 31.073 22.8302 31.0844 22.7499V14.2763C30.3082 14.4737 29.4949 14.4737 28.7187 14.2763V32.6035H31.0844V25.5099C31.0934 25.3561 31.1584 25.2109 31.2672 25.1018C31.376 24.9927 31.5211 24.9273 31.6749 24.9179C31.8146 24.9604 31.9417 25.0366 32.045 25.1399C32.1482 25.2431 32.2245 25.3702 32.2669 25.5099V32.6035H32.6605C35.0255 32.6035 36.996 34.3771 36.996 37.3331C37.3712 37.3995 37.7126 37.5919 37.9635 37.8787C38.2145 38.1654 38.36 38.5292 38.3761 38.9099V39.8955C38.3954 40.1074 38.3678 40.321 38.2954 40.521C38.223 40.7211 38.1075 40.9028 37.957 41.0533C37.8065 41.2037 37.6248 41.3192 37.4247 41.3917C37.2247 41.4641 37.0111 41.4916 36.7992 41.4723L31.2821 41.4715ZM23.7936 37.3331H35.8151C35.8429 36.8928 35.7833 36.4513 35.6395 36.0341C35.4958 35.617 35.2709 35.2324 34.9778 34.9026C34.6846 34.5728 34.3291 34.3044 33.9316 34.1127C33.5342 33.921 33.1027 33.81 32.6621 33.7859H27.1418C26.6857 33.7883 26.2349 33.8832 25.8166 34.0649C25.3983 34.2466 25.0212 34.5112 24.7081 34.8428C24.395 35.1744 24.1525 35.5661 23.9951 35.9941C23.8378 36.4222 23.7698 36.8777 23.7936 37.3331ZM41.9243 28.2683H45.6685C46.1247 28.2661 46.5757 28.1714 46.9942 27.9898C47.4127 27.8082 47.79 27.5436 48.1033 27.212C48.4165 26.8804 48.6592 26.4886 48.8167 26.0605C48.9741 25.6323 49.043 25.1767 49.0191 24.7211H38.7705C38.7427 25.1615 38.8024 25.603 38.9461 26.0201C39.0898 26.4373 39.3147 26.8218 39.6079 27.1516C39.901 27.4814 40.2566 27.7499 40.654 27.9415C41.0514 28.1332 41.4837 28.2443 41.9243 28.2683ZM14.333 28.2683H18.0772C18.5178 28.2443 18.9493 28.1332 19.3467 27.9415C19.7442 27.7499 20.0997 27.4814 20.3929 27.1516C20.686 26.8218 20.9109 26.4373 21.0546 26.0201C21.1984 25.603 21.258 25.1615 21.2302 24.7211H10.9816C10.9578 25.1767 11.0267 25.6325 11.1842 26.0607C11.3416 26.4889 11.5844 26.8806 11.8977 27.2123C12.2111 27.5439 12.5885 27.8085 13.0071 27.99C13.4257 28.1716 13.8767 28.2662 14.333 28.2683ZM40.3474 23.5387H47.4422L43.894 15.4587H43.6972L40.3474 23.5387ZM12.5593 23.5387H19.6541L16.3035 15.4587H16.1067L12.5593 23.5387ZM43.3036 13.6859V13.8835C43.3036 14.0811 43.5012 14.2771 43.8948 14.2771C44.0489 14.2684 44.1943 14.2033 44.3034 14.0943C44.4126 13.9853 44.4779 13.8399 44.4869 13.6859C44.4444 13.5463 44.3681 13.4193 44.2648 13.3162C44.1616 13.2131 44.0345 13.137 43.8948 13.0947C43.7409 13.1035 43.5956 13.1684 43.4865 13.2773C43.3773 13.3861 43.312 13.5313 43.3028 13.6851L43.3036 13.6859ZM15.5155 13.6859C15.5245 13.8399 15.5897 13.9853 15.6989 14.0943C15.8081 14.2033 15.9535 14.2684 16.1075 14.2771C16.5011 14.2771 16.6988 14.0811 16.6988 13.8835V13.6859C16.6898 13.532 16.6246 13.3868 16.5156 13.2778C16.4066 13.1688 16.2614 13.1037 16.1075 13.0947C15.9678 13.1368 15.8406 13.2128 15.7372 13.3157C15.6338 13.4187 15.5574 13.5456 15.5147 13.6851L15.5155 13.6859ZM32.6621 13.2923H41.1363C38.7682 12.184 36.2416 11.4522 33.6478 11.1235C33.44 11.8954 33.1067 12.6278 32.6613 13.2915L32.6621 13.2923ZM28.9179 8.16752C28.4508 8.36181 28.0518 8.69011 27.7711 9.11099C27.4904 9.53187 27.3408 10.0265 27.341 10.5323C27.2928 10.8889 27.3241 11.2518 27.4328 11.5949C27.5414 11.9379 27.7247 12.2526 27.9695 12.5164C28.2143 12.7802 28.5144 12.9866 28.8484 13.1206C29.1824 13.2546 29.5419 13.313 29.9012 13.2915C30.2507 13.2793 30.5944 13.1981 30.9125 13.0526C31.2305 12.9071 31.5167 12.7003 31.7546 12.4439C31.9925 12.1875 32.1774 11.8866 32.2987 11.5586C32.42 11.2306 32.4752 10.8818 32.4613 10.5323C32.4582 10.1944 32.3877 9.86042 32.2539 9.55001C32.1202 9.23961 31.926 8.95897 31.6826 8.72449C31.4391 8.49002 31.1514 8.30641 30.8362 8.18441C30.521 8.0624 30.1846 8.00445 29.8468 8.01392C29.5306 8.01487 29.2175 8.06673 28.9179 8.16752ZM18.6693 13.2923H27.1434C26.5452 12.7251 26.1917 11.9471 26.1577 11.1235C23.5835 11.5446 21.0689 12.2725 18.6677 13.2915L18.6693 13.2923ZM29.3099 6.19792V6.78912H30.4932V6.19792C30.4861 6.09553 30.4421 5.99918 30.3695 5.92668C30.2968 5.85417 30.2004 5.81043 30.098 5.80352H29.5067C29.3999 5.90967 29.3307 6.04793 29.3099 6.19712V6.19792ZM28.1283 10.5331C28.1687 10.0945 28.3743 9.68759 28.7035 9.39484C29.0327 9.10208 29.4608 8.94533 29.9012 8.95632C30.3416 8.94532 30.7699 9.10204 31.0992 9.39478C31.4285 9.68752 31.6342 10.0944 31.6749 10.5331C31.6758 10.7663 31.6306 10.9974 31.5418 11.213C31.453 11.4286 31.3224 11.6245 31.1575 11.7894C30.9926 11.9543 30.7967 12.0849 30.5811 12.1737C30.3654 12.2624 30.1344 12.3077 29.9012 12.3067C29.668 12.3076 29.4369 12.2622 29.2213 12.1733C29.0057 12.0845 28.8099 11.9538 28.6451 11.7888C28.4803 11.6238 28.3497 11.4279 28.261 11.2122C28.1723 10.9966 28.1272 10.7663 28.1283 10.5331ZM29.3099 10.5331C29.2984 10.6134 29.3058 10.6953 29.3314 10.7723C29.3571 10.8493 29.4003 10.9192 29.4577 10.9766C29.515 11.034 29.585 11.0772 29.662 11.1028C29.739 11.1285 29.8208 11.1358 29.9012 11.1243C30.0551 11.1154 30.2005 11.0503 30.3096 10.9413C30.4187 10.8323 30.4841 10.6871 30.4932 10.5331C30.4932 10.3371 30.098 10.1395 29.9012 10.1395C29.5075 10.1403 29.3099 10.3363 29.3099 10.5331Z" fill="#0065C1"/>
</svg>
