<svg width="60" height="60" viewBox="0 0 60 60" fill="none" xmlns="http://www.w3.org/2000/svg">
<path d="M38.0097 53.1708C37.3404 53.1702 36.6988 52.904 36.2255 52.4308C35.7523 51.9576 35.4862 51.3159 35.4855 50.6467V48.765H24.517V50.6467C24.5163 51.3159 24.2502 51.9576 23.7769 52.4308C23.3037 52.904 22.6621 53.1702 21.9928 53.1708H17.3526C16.6833 53.1702 16.0415 52.9041 15.5682 52.4308C15.0948 51.9576 14.8285 51.316 14.8276 50.6467V48.6466C14.0974 48.4487 13.4524 48.0162 12.9922 47.4156C12.532 46.815 12.2822 46.0798 12.2811 45.3232V25.755C12.2811 25.5724 12.3536 25.3973 12.4827 25.2682C12.6119 25.139 12.787 25.0665 12.9695 25.0665C13.1521 25.0665 13.3272 25.139 13.4563 25.2682C13.5854 25.3973 13.658 25.5724 13.658 25.755V38.9669H18.3502C18.6108 38.9661 18.8659 39.042 19.0836 39.1851C19.3014 39.3282 19.4723 39.5322 19.5751 39.7717L21.0224 43.1415C21.0793 43.274 21.1024 43.4186 21.0897 43.5623C21.077 43.706 21.0288 43.8443 20.9496 43.9648C20.8703 44.0853 20.7624 44.1842 20.6354 44.2528C20.5085 44.3213 20.3666 44.3573 20.2223 44.3575H13.6604V45.3176C13.661 45.8652 13.8789 46.3901 14.2662 46.7773C14.6534 47.1644 15.1785 47.3821 15.7261 47.3825H44.2756C44.8225 47.3823 45.347 47.1654 45.7343 46.7793C46.1217 46.3931 46.3402 45.8693 46.3421 45.3224V44.3623H39.7818C39.6375 44.3621 39.4956 44.3261 39.3686 44.2576C39.2417 44.189 39.1338 44.0901 39.0545 43.9696C38.9752 43.8491 38.9271 43.7108 38.9144 43.5671C38.9017 43.4234 38.9248 43.2788 38.9817 43.1463L40.4218 39.7717C40.5242 39.5322 40.6948 39.328 40.9122 39.1847C41.1297 39.0413 41.3846 38.965 41.6451 38.9653H46.3421V13.4687C46.3417 12.9208 46.1238 12.3954 45.7364 12.0079C45.3489 11.6205 44.8235 11.4026 44.2756 11.4022H15.7261C15.1783 11.4028 14.6531 11.6208 14.2658 12.0082C13.8785 12.3956 13.6608 12.9209 13.6604 13.4687V22.542C13.6604 22.7246 13.5878 22.8997 13.4587 23.0288C13.3296 23.1579 13.1545 23.2304 12.9719 23.2304C12.7894 23.2304 12.6143 23.1579 12.4851 23.0288C12.356 22.8997 12.2835 22.7246 12.2835 22.542V16.9105H10.6314V25.3109C10.6308 25.6637 10.4903 26.0019 10.2407 26.2513C9.9912 26.5007 9.65296 26.641 9.30015 26.6414H7.83127C7.47833 26.641 7.13996 26.5006 6.89039 26.251C6.64082 26.0014 6.50042 25.6631 6.5 25.3101V16.8649C6.49979 16.6899 6.53406 16.5165 6.60085 16.3547C6.66764 16.1929 6.76564 16.0459 6.88926 15.9219C7.01288 15.798 7.15969 15.6997 7.32133 15.6325C7.48296 15.5653 7.65624 15.5306 7.83127 15.5304H12.2835V13.4687C12.2852 12.5568 12.6482 11.6828 13.293 11.038C13.9378 10.3932 14.8118 10.0302 15.7237 10.0285H18.1086V8.69485C18.1095 8.02518 18.376 7.38321 18.8497 6.90983C19.3233 6.43645 19.9655 6.17035 20.6351 6.16992H39.3665C40.0359 6.17077 40.6777 6.43706 41.151 6.91039C41.6243 7.38373 41.8906 8.02546 41.8915 8.69485V10.0261H44.2764C45.1883 10.0278 46.0623 10.3908 46.7071 11.0356C47.3519 11.6804 47.7149 12.5544 47.7166 13.4663V15.5304H52.1688C52.5217 15.5308 52.86 15.6713 53.1094 15.9209C53.3589 16.1704 53.4991 16.5088 53.4993 16.8617V25.3101C53.4989 25.6629 53.3586 26.0012 53.1092 26.2507C52.8598 26.5003 52.5216 26.6408 52.1688 26.6414H50.7015C50.3486 26.641 50.0102 26.5006 49.7607 26.251C49.5111 26.0014 49.3707 25.6631 49.3703 25.3101V16.9097H47.7182V45.3224C47.7169 46.0791 47.4669 46.8143 47.0066 47.4149C46.5462 48.0154 45.9012 48.4479 45.1708 48.6458V50.6459C45.1702 51.3151 44.9041 51.9568 44.4308 52.43C43.9576 52.9032 43.316 53.1694 42.6467 53.17L38.0097 53.1708ZM36.8624 50.6467C36.8628 50.9508 36.9838 51.2424 37.1989 51.4574C37.414 51.6725 37.7055 51.7935 38.0097 51.7939H42.6499C42.9541 51.7937 43.2458 51.6728 43.4609 51.4577C43.676 51.2426 43.797 50.9509 43.7972 50.6467V48.765H36.8624V50.6467ZM16.2077 50.6467C16.2081 50.9508 16.3291 51.2424 16.5442 51.4574C16.7593 51.6725 17.0508 51.7935 17.355 51.7939H21.9952C22.2991 51.7931 22.5902 51.6719 22.805 51.4569C23.0197 51.2419 23.1405 50.9505 23.1409 50.6467V48.765H16.2069L16.2077 50.6467ZM40.5474 42.9823H46.3421V40.3421H41.6787L40.5474 42.9823ZM13.6612 42.9823H19.4559L18.323 40.3421H13.6604L13.6612 42.9823ZM50.7479 25.2645H52.1248V16.9105H50.7479V25.2645ZM7.87687 25.2645H9.25455V16.9105H7.87687V25.2645ZM19.4879 8.69485V10.0261H40.5138V8.69485C40.5136 8.39057 40.3927 8.0988 40.1776 7.88357C39.9625 7.66834 39.6708 7.54722 39.3665 7.54679H20.6351C20.3309 7.54743 20.0394 7.66861 19.8243 7.8838C19.6093 8.09899 19.4883 8.39064 19.4879 8.69485ZM24.9962 44.3591C24.7556 44.3593 24.5202 44.2895 24.3187 44.1582C24.1171 44.027 23.9581 43.8399 23.8609 43.6199L21.5936 38.4812C21.5102 38.2926 21.4753 38.0861 21.4919 37.8805C21.5085 37.6749 21.5762 37.4767 21.6888 37.3039C21.8014 37.1311 21.9553 36.9891 22.1367 36.8909C22.318 36.7926 22.521 36.7411 22.7273 36.7411H31.1613C31.3439 36.7411 31.519 36.8137 31.6481 36.9428C31.7772 37.0719 31.8497 37.247 31.8497 37.4296C31.8497 37.6122 31.7772 37.7873 31.6481 37.9164C31.519 38.0455 31.3439 38.118 31.1613 38.118H22.9393L25.0858 42.9807H34.9151L37.0616 38.1188H34.3743C34.1917 38.1188 34.0166 38.0463 33.8875 37.9172C33.7584 37.7881 33.6858 37.613 33.6858 37.4304C33.6858 37.2478 33.7584 37.0727 33.8875 36.9436C34.0166 36.8145 34.1917 36.7419 34.3743 36.7419H37.2728C37.479 36.7421 37.6819 36.7937 37.8631 36.892C38.0443 36.9904 38.1982 37.1323 38.3107 37.3051C38.4233 37.4778 38.491 37.6759 38.5077 37.8814C38.5244 38.0869 38.4896 38.2934 38.4065 38.482L36.1392 43.6199C36.0419 43.8395 35.8831 44.0261 35.6818 44.1572C35.4806 44.2883 35.2457 44.3582 35.0055 44.3583L24.9962 44.3591ZM26.8123 41.239C26.6297 41.239 26.4546 41.1664 26.3255 41.0373C26.1964 40.9082 26.1238 40.7331 26.1238 40.5505C26.1238 40.368 26.1964 40.1928 26.3255 40.0637C26.4546 39.9346 26.6297 39.8621 26.8123 39.8621H33.1886C33.3712 39.8621 33.5463 39.9346 33.6754 40.0637C33.8045 40.1928 33.877 40.368 33.877 40.5505C33.877 40.7331 33.8045 40.9082 33.6754 41.0373C33.5463 41.1664 33.3712 41.239 33.1886 41.239H26.8123ZM16.6437 33.9882C16.2178 33.9878 15.8094 33.8184 15.5082 33.5172C15.2071 33.216 15.0377 32.8076 15.0373 32.3817V17.1401C15.037 16.9289 15.0784 16.7198 15.159 16.5246C15.2397 16.3294 15.3579 16.152 15.5071 16.0025C15.6563 15.8531 15.8334 15.7344 16.0285 15.6534C16.2235 15.5724 16.4326 15.5306 16.6437 15.5304H43.3571C43.7831 15.5308 44.1914 15.7002 44.4926 16.0014C44.7938 16.3026 44.9632 16.711 44.9636 17.1369V32.3817C44.9632 32.8076 44.7938 33.216 44.4926 33.5172C44.1914 33.8184 43.7831 33.9878 43.3571 33.9882H16.6437ZM16.4141 17.1401V32.3817C16.4141 32.4426 16.4383 32.501 16.4814 32.5441C16.5244 32.5871 16.5828 32.6113 16.6437 32.6113H43.3571C43.418 32.6113 43.4764 32.5871 43.5195 32.5441C43.5626 32.501 43.5868 32.4426 43.5868 32.3817V17.1401C43.5868 17.0792 43.5626 17.0208 43.5195 16.9777C43.4764 16.9347 43.418 16.9105 43.3571 16.9105H16.6437C16.5828 16.9105 16.5244 16.9347 16.4814 16.9777C16.4383 17.0208 16.4141 17.0792 16.4141 17.1401ZM27.3987 28.7895C27.3985 28.3797 27.4952 27.9757 27.6809 27.6104C27.8667 27.2451 28.1363 26.929 28.4676 26.6878L26.2978 23.4324C25.7495 23.638 25.1453 23.638 24.597 23.4324L22.4208 26.6934C22.9173 27.0594 23.2671 27.5905 23.4071 28.1912C23.5472 28.7919 23.4685 29.4228 23.1852 29.9707C22.9018 30.5186 22.4324 30.9475 21.8612 31.1803C21.29 31.4131 20.6545 31.4346 20.0688 31.2409C19.4832 31.0473 18.9859 30.6511 18.6661 30.1236C18.3463 29.5962 18.2252 28.972 18.3243 28.3632C18.4235 27.7544 18.7365 27.2009 19.2071 26.8021C19.6778 26.4034 20.2751 26.1856 20.892 26.1878C20.9866 26.1919 21.0809 26.2015 21.1744 26.2166L23.5121 22.71C23.1753 22.3363 22.954 21.873 22.8751 21.3761C22.7962 20.8792 22.863 20.3701 23.0675 19.9105C23.272 19.4508 23.6054 19.0603 24.0273 18.7862C24.4492 18.5121 24.9415 18.3663 25.4446 18.3663C25.9477 18.3663 26.44 18.5121 26.8619 18.7862C27.2838 19.0603 27.6172 19.4508 27.8217 19.9105C28.0262 20.3701 28.093 20.8792 28.0141 21.3761C27.9352 21.873 27.714 22.3363 27.3771 22.71L29.706 26.2038C29.8027 26.1931 29.9 26.1877 29.9972 26.1878C30.0948 26.1874 30.1923 26.1924 30.2893 26.203L32.6174 22.71C32.2805 22.3363 32.0593 21.873 31.9803 21.3761C31.9014 20.8792 31.9683 20.3701 32.1728 19.9105C32.3773 19.4508 32.7107 19.0603 33.1326 18.7862C33.5545 18.5121 34.0468 18.3663 34.5499 18.3663C35.053 18.3663 35.5453 18.5121 35.9672 18.7862C36.3891 19.0603 36.7225 19.4508 36.927 19.9105C37.1315 20.3701 37.1983 20.8792 37.1194 21.3761C37.0405 21.873 36.8192 22.3363 36.4824 22.71L38.8217 26.2166C38.9152 26.2015 39.0095 26.1919 39.1041 26.1878C39.7208 26.1855 40.318 26.4031 40.7886 26.8016C41.2591 27.2001 41.5722 27.7534 41.6714 28.362C41.7707 28.9706 41.6496 29.5947 41.3301 30.122C41.0105 30.6494 40.5133 31.0455 39.9279 31.2393C39.3425 31.433 38.7072 31.4116 38.1361 31.1789C37.565 30.9462 37.0957 30.5175 36.8123 29.9698C36.529 29.4222 36.4502 28.7914 36.5902 28.1908C36.7302 27.5903 37.0797 27.0594 37.576 26.6934L35.4015 23.4316C34.8535 23.6372 34.2495 23.6372 33.7014 23.4316L31.5333 26.683C31.8932 26.9452 32.1798 27.2952 32.3658 27.6997C32.5518 28.1043 32.6309 28.5497 32.5956 28.9936C32.5603 29.4374 32.4118 29.8647 32.1642 30.2348C31.9166 30.6048 31.5783 30.9052 31.1815 31.1072C30.7848 31.3092 30.3428 31.406 29.8979 31.3885C29.4531 31.371 29.0201 31.2397 28.6405 31.0071C28.2608 30.7745 27.9472 30.4484 27.7295 30.06C27.5118 29.6717 27.3974 29.2339 27.3971 28.7887L27.3987 28.7895ZM37.8057 28.7895C37.8057 29.0468 37.8819 29.2983 38.0249 29.5122C38.1678 29.7262 38.371 29.8929 38.6087 29.9914C38.8464 30.0898 39.108 30.1156 39.3603 30.0654C39.6127 30.0152 39.8444 29.8913 40.0264 29.7094C40.2083 29.5274 40.3322 29.2956 40.3824 29.0433C40.4326 28.791 40.4068 28.5294 40.3084 28.2917C40.2099 28.054 40.0432 27.8508 39.8292 27.7079C39.6153 27.5649 39.3638 27.4886 39.1065 27.4886C38.9357 27.4885 38.7665 27.5221 38.6086 27.5875C38.4507 27.6528 38.3072 27.7486 38.1864 27.8694C38.0656 27.9902 37.9698 28.1337 37.9045 28.2916C37.8391 28.4494 37.8055 28.6187 37.8057 28.7895ZM30.0004 30.0912C30.2577 30.0912 30.5092 30.0149 30.7232 29.8719C30.9371 29.729 31.1038 29.5258 31.2023 29.2881C31.3007 29.0504 31.3265 28.7889 31.2763 28.5365C31.2261 28.2842 31.1022 28.0524 30.9203 27.8705C30.7384 27.6885 30.5066 27.5646 30.2542 27.5144C30.0019 27.4642 29.7403 27.49 29.5026 27.5885C29.2649 27.6869 29.0618 27.8537 28.9188 28.0676C28.7759 28.2815 28.6996 28.533 28.6996 28.7903C28.6996 29.1353 28.8366 29.4662 29.0806 29.7102C29.3245 29.9541 29.6554 30.0912 30.0004 30.0912ZM19.5943 28.7895C19.5943 29.0468 19.6706 29.2983 19.8135 29.5122C19.9565 29.7262 20.1596 29.8929 20.3973 29.9914C20.635 30.0898 20.8966 30.1156 21.1489 30.0654C21.4013 30.0152 21.6331 29.8913 21.815 29.7094C21.9969 29.5274 22.1208 29.2956 22.171 29.0433C22.2212 28.791 22.1955 28.5294 22.097 28.2917C21.9985 28.054 21.8318 27.8508 21.6179 27.7079C21.404 27.5649 21.1524 27.4886 20.8952 27.4886C20.7243 27.4885 20.5551 27.5221 20.3972 27.5875C20.2393 27.6528 20.0959 27.7486 19.9751 27.8694C19.8543 27.9902 19.7584 28.1337 19.6931 28.2916C19.6278 28.4494 19.5942 28.6187 19.5943 28.7895ZM33.2526 20.9851C33.2526 21.2424 33.3289 21.4939 33.4718 21.7078C33.6148 21.9218 33.818 22.0885 34.0557 22.1869C34.2934 22.2854 34.5549 22.3112 34.8073 22.261C35.0596 22.2108 35.2914 22.0869 35.4733 21.905C35.6553 21.723 35.7792 21.4912 35.8294 21.2389C35.8795 20.9865 35.8538 20.725 35.7553 20.4873C35.6569 20.2496 35.4901 20.0464 35.2762 19.9035C35.0623 19.7605 34.8108 19.6842 34.5535 19.6842C34.2086 19.6842 33.8778 19.8212 33.6339 20.065C33.39 20.3088 33.2528 20.6402 33.2526 20.9851ZM24.1465 20.9851C24.1465 21.2424 24.2228 21.4938 24.3657 21.7077C24.5086 21.9217 24.7117 22.0884 24.9494 22.1869C25.1871 22.2854 25.4486 22.3112 25.7009 22.261C25.9532 22.2109 26.185 22.0871 26.367 21.9052C26.5489 21.7234 26.6729 21.4917 26.7232 21.2394C26.7735 20.9871 26.7478 20.7256 26.6495 20.4878C26.5511 20.2501 26.3845 20.0469 26.1707 19.9039C25.9569 19.7608 25.7055 19.6844 25.4482 19.6842C25.2774 19.6841 25.1082 19.7177 24.9503 19.783C24.7924 19.8482 24.649 19.944 24.5281 20.0647C24.4072 20.1854 24.3113 20.3288 24.2459 20.4865C24.1804 20.6443 24.1466 20.8143 24.1465 20.9851ZM40.5138 13.4687C40.5136 13.3324 40.5539 13.1991 40.6296 13.0857C40.7052 12.9723 40.8128 12.8839 40.9387 12.8317C41.0646 12.7794 41.2031 12.7657 41.3368 12.7923C41.4705 12.8188 41.5933 12.8844 41.6897 12.9808C41.7861 13.0772 41.8517 13.2 41.8783 13.3337C41.9048 13.4674 41.8911 13.606 41.8389 13.7319C41.7866 13.8578 41.6982 13.9654 41.5848 14.041C41.4714 14.1166 41.3381 14.1569 41.2018 14.1567C41.0194 14.1565 40.8445 14.084 40.7155 13.955C40.5866 13.826 40.514 13.6511 40.5138 13.4687ZM22.6729 14.1567C22.4902 14.1567 22.315 14.0842 22.1858 13.955C22.0566 13.8258 21.984 13.6506 21.984 13.4679C21.984 13.2852 22.0566 13.11 22.1858 12.9808C22.315 12.8516 22.4902 12.7791 22.6729 12.7791H37.328C37.5107 12.7791 37.6859 12.8516 37.8151 12.9808C37.9443 13.11 38.0169 13.2852 38.0169 13.4679C38.0169 13.6506 37.9443 13.8258 37.8151 13.955C37.6859 14.0842 37.5107 14.1567 37.328 14.1567H22.6729ZM18.1126 13.4687C18.1126 13.3327 18.1529 13.1997 18.2285 13.0865C18.3041 12.9734 18.4115 12.8852 18.5372 12.8331C18.6628 12.781 18.8011 12.7674 18.9346 12.7938C19.068 12.8203 19.1906 12.8858 19.2869 12.9819C19.3831 13.0781 19.4487 13.2006 19.4754 13.334C19.502 13.4674 19.4885 13.6057 19.4365 13.7315C19.3846 13.8572 19.2965 13.9647 19.1835 14.0404C19.0704 14.1161 18.9375 14.1566 18.8014 14.1567C18.7109 14.157 18.6212 14.1393 18.5375 14.1048C18.4538 14.0704 18.3777 14.0197 18.3136 13.9558C18.2495 13.8919 18.1986 13.816 18.1638 13.7324C18.1291 13.6489 18.1111 13.5592 18.111 13.4687H18.1126Z" fill="#0065C1"/>
</svg>
