<svg width="60" height="51" viewBox="0 0 60 51" fill="none" xmlns="http://www.w3.org/2000/svg">
<path d="M18.6924 38.1554C16.8662 36.1927 15.2714 34.0268 13.9393 31.7002C12.7517 29.7984 12.0566 27.6308 11.9167 25.393V15.3298C11.9171 15.1527 11.9781 14.9811 12.0896 14.8435C12.2011 14.706 12.3564 14.6108 12.5296 14.5738C21.4198 12.681 25.6801 9.16823 28.2258 7.06983C28.7235 6.65943 29.1539 6.30503 29.5411 6.02983C29.6723 5.93642 29.8293 5.88623 29.9904 5.88623C30.1514 5.88623 30.3084 5.93642 30.4396 6.02983C30.8268 6.30663 31.2572 6.66183 31.7565 7.06983C32.8423 7.99006 33.9783 8.8495 35.1591 9.64423C35.2437 9.70026 35.3165 9.77243 35.3733 9.85659C35.43 9.94076 35.4696 10.0353 35.4898 10.1347C35.51 10.2342 35.5105 10.3367 35.491 10.4363C35.4716 10.536 35.4328 10.6308 35.3767 10.7154C35.2634 10.8862 35.0869 11.005 34.8861 11.0458C34.6852 11.0866 34.4764 11.046 34.3054 10.933C33.0797 10.109 31.9004 9.21782 30.7732 8.26343C30.5141 8.04829 30.2536 7.83495 29.9916 7.62343C29.7515 7.81143 29.4939 8.02343 29.2107 8.26343C26.7857 10.2634 22.3174 13.9434 13.4649 15.953V25.393C13.4649 27.2506 14.4369 29.7226 16.1394 32.369V30.8994C16.0926 29.8292 16.3605 28.7688 16.9099 27.8491C17.4593 26.9295 18.2662 26.1911 19.2308 25.725C18.7598 24.9542 18.5106 24.0684 18.5108 23.165C18.5121 21.8553 19.0331 20.5995 19.9596 19.6736C20.886 18.7477 22.1421 18.2273 23.4519 18.2266C24.7614 18.2279 26.0169 18.7484 26.943 19.6741C27.8692 20.5997 28.3903 21.8549 28.3923 23.1642C28.3926 24.0676 28.1434 24.9535 27.6722 25.7242C28.6254 26.2003 29.4284 26.9307 29.9924 27.8346C30.5565 26.9307 31.3594 26.2001 32.3125 25.7234C31.8416 24.9526 31.5924 24.0667 31.5925 23.1634C31.5942 21.8539 32.1154 20.5986 33.0418 19.673C33.9682 18.7475 35.224 18.2273 36.5336 18.2266C37.8431 18.2279 39.0985 18.7484 40.0247 19.6741C40.9508 20.5997 41.472 21.8549 41.4739 23.1642C41.4744 24.0676 41.2252 24.9535 40.7539 25.7242C41.7186 26.19 42.5256 26.9283 43.0752 27.8478C43.6247 28.7673 43.8928 29.8277 43.8461 30.8978V32.365C45.5478 29.7194 46.5191 27.245 46.5191 25.3922V15.9522C44.4982 15.5009 42.5135 14.9009 40.5811 14.157C40.4864 14.1204 40.3999 14.0654 40.3264 13.9953C40.253 13.9253 40.1941 13.8414 40.1531 13.7485C40.1121 13.6557 40.0897 13.5556 40.0874 13.4541C40.0851 13.3526 40.1027 13.2517 40.1394 13.157C40.1762 13.0623 40.2312 12.9758 40.3014 12.9024C40.3716 12.829 40.4555 12.7701 40.5485 12.7292C40.6415 12.6882 40.7416 12.666 40.8431 12.6638C40.9447 12.6616 41.0457 12.6794 41.1403 12.7162C43.1912 13.503 45.3018 14.1242 47.4519 14.5738C47.6253 14.6105 47.7807 14.7056 47.8923 14.8433C48.0039 14.9809 48.0648 15.1527 48.0648 15.3298V25.3938C47.9255 27.6314 47.2309 29.7991 46.0438 31.701C45.3966 32.8618 43.6861 35.2874 43.6677 35.3082C42.9412 36.2682 42.1436 37.2282 41.2907 38.1562C38.0505 41.6882 33.3822 45.4626 29.994 45.4626C26.6057 45.4626 21.935 41.6882 18.6924 38.1554ZM25.8793 38.2578V42.3298C27.0873 43.209 28.5046 43.7562 29.99 43.917C31.4757 43.7562 32.8933 43.2087 34.1014 42.329V38.2578C34.134 37.6825 33.9878 37.1112 33.6828 36.6222C33.3779 36.1332 32.9291 35.7505 32.3981 35.5266C31.7136 36.0711 30.8646 36.3673 29.99 36.3666C29.1155 36.3672 28.2668 36.0711 27.5826 35.5266C27.0519 35.7507 26.6035 36.1335 26.299 36.6225C25.9945 37.1115 25.8487 37.6827 25.8817 38.2578H25.8793ZM17.6835 30.8978V34.5562C18.3626 35.4378 19.0796 36.2895 19.8325 37.109C21.2067 38.6209 22.7127 40.0074 24.3328 41.2522V38.2578C24.2955 37.4567 24.4861 36.6615 24.8826 35.9643C25.2792 35.2672 25.8653 34.6969 26.5729 34.3194C26.2683 33.754 26.1091 33.1217 26.1097 32.4794C26.1111 31.6662 26.3673 30.8739 26.8423 30.2138C27.3173 29.5538 27.9872 29.0591 28.7579 28.7994C28.2744 27.9634 27.5315 27.3079 26.6417 26.9322C25.7516 27.6889 24.621 28.1038 23.4527 28.1026C22.2846 28.1031 21.1545 27.6879 20.2645 26.9314C19.4697 27.2343 18.7916 27.7818 18.3282 28.495C17.8647 29.2082 17.6398 30.0502 17.6859 30.8994L17.6835 30.8978ZM31.226 28.7962C31.9969 29.0558 32.6669 29.5504 33.1421 30.2105C33.6172 30.8705 33.8736 31.6629 33.875 32.4762C33.8761 33.1187 33.7163 33.7513 33.4102 34.3162C34.1179 34.6937 34.704 35.264 35.1005 35.9611C35.497 36.6583 35.6877 37.4535 35.6503 38.2546V41.2498C37.2699 40.0052 38.7754 38.619 40.149 37.1074C40.9025 36.2871 41.62 35.4346 42.2996 34.5522V30.8962C42.3457 30.0468 42.1207 29.2046 41.6571 28.4913C41.1935 27.7779 40.5152 27.2303 39.7202 26.9274C38.8301 27.6841 37.6995 28.099 36.5312 28.0978C35.363 28.0986 34.2328 27.6834 33.343 26.9266C32.4535 27.3043 31.7112 27.9615 31.2284 28.7986L31.226 28.7962ZM27.6522 32.4762C27.6526 33.0964 27.899 33.691 28.3372 34.1298C28.7754 34.5686 29.3698 34.8158 29.99 34.817C30.6103 34.816 31.2048 34.5689 31.6432 34.1301C32.0817 33.6913 32.3281 33.0965 32.3285 32.4762C32.3279 31.8563 32.0813 31.262 31.6428 30.8237C31.2044 30.3854 30.6099 30.1391 29.99 30.1386C29.3697 30.1395 28.7752 30.3865 28.337 30.8254C27.8988 31.2643 27.6528 31.8592 27.653 32.4794L27.6522 32.4762ZM33.1366 23.1594C33.1376 24.0589 33.4955 24.9211 34.1316 25.557C34.7677 26.193 35.6301 26.5506 36.5296 26.5514C37.4292 26.5506 38.2917 26.193 38.9279 25.5571C39.5641 24.9212 39.9222 24.0589 39.9234 23.1594C39.9222 22.2599 39.5641 21.3977 38.9279 20.7618C38.2917 20.1259 37.4292 19.7683 36.5296 19.7674C35.63 19.7689 34.7677 20.1272 34.132 20.7638C33.4963 21.4003 33.1392 22.2631 33.139 23.1626L33.1366 23.1594ZM20.0573 23.1594C20.0584 24.0586 20.416 24.9206 21.0517 25.5565C21.6875 26.1924 22.5495 26.5502 23.4487 26.5514C24.3486 26.551 25.2115 26.1936 25.8481 25.5577C26.4846 24.9217 26.8429 24.0592 26.8441 23.1594C26.8429 22.2596 26.4846 21.3971 25.8481 20.7612C25.2115 20.1253 24.3486 19.7678 23.4487 19.7674C22.5494 19.7693 21.6875 20.1279 21.0522 20.7644C20.4168 21.4008 20.0599 22.2633 20.0597 23.1626L20.0573 23.1594ZM37.3513 12.7082H37.3473C37.256 12.6629 37.1746 12.6 37.1078 12.5231C37.041 12.4462 36.99 12.3569 36.9579 12.2602C36.9257 12.1635 36.9131 12.0614 36.9206 11.9598C36.9281 11.8582 36.9556 11.7591 37.0016 11.6682C37.047 11.5771 37.11 11.4957 37.1869 11.429C37.2638 11.3622 37.3531 11.3112 37.4497 11.279C37.5464 11.2469 37.6484 11.2341 37.75 11.2414C37.8516 11.2488 37.9507 11.2761 38.0417 11.3218C38.2255 11.4139 38.3654 11.575 38.4306 11.7699C38.4958 11.9649 38.4811 12.1777 38.3897 12.3618C38.3256 12.4903 38.2269 12.5984 38.1049 12.6739C37.9828 12.7495 37.8421 12.7897 37.6985 12.7898C37.5791 12.7912 37.461 12.7646 37.3537 12.7122L37.3513 12.7082Z" fill="#0065C1"/>
</svg>
