<svg width="60" height="40" viewBox="0 0 60 40" fill="none" xmlns="http://www.w3.org/2000/svg">
<path d="M44.5653 10.9811H31.4963C31.095 10.5869 30.555 10.366 29.9926 10.366C29.4301 10.366 28.8901 10.5869 28.4888 10.9811H15.4198C15.1414 10.9815 14.8745 11.0923 14.6777 11.2892C14.481 11.4862 14.3703 11.7531 14.3701 12.0315V12.0411C14.3708 12.6285 14.6044 13.1916 15.0197 13.6069C15.435 14.0223 15.9981 14.2559 16.5855 14.2565H16.7455C16.7396 14.3016 16.7367 14.347 16.7367 14.3925V14.4021C16.7373 14.9895 16.9709 15.5526 17.3863 15.9679C17.8016 16.3833 18.3647 16.6169 18.9521 16.6175H19.1121C19.1063 16.6618 19.1034 16.7064 19.1033 16.7511V16.7607C19.1039 17.3481 19.3375 17.9112 19.7529 18.3265C20.1682 18.7418 20.7313 18.9755 21.3187 18.9761H26.6991C26.8205 18.9761 26.9369 18.9279 27.0227 18.842C27.1085 18.7562 27.1567 18.6398 27.1567 18.5184C27.1567 18.3971 27.1085 18.2807 27.0227 18.1949C26.9369 18.109 26.8205 18.0608 26.6991 18.0608H21.3243C20.9798 18.0604 20.6496 17.9234 20.406 17.6798C20.1624 17.4362 20.0254 17.106 20.025 16.7615V16.7519C20.025 16.7193 20.0369 16.6878 20.0584 16.6633C20.0798 16.6387 20.1095 16.6227 20.1418 16.6183H22.0507C22.1721 16.6183 22.2885 16.5701 22.3743 16.4843C22.4601 16.3984 22.5084 16.282 22.5084 16.1607C22.5084 16.0393 22.4601 15.9229 22.3743 15.8371C22.2885 15.7512 22.1721 15.703 22.0507 15.703H18.9545C18.61 15.7026 18.2798 15.5656 18.0362 15.322C17.7926 15.0784 17.6556 14.7482 17.6552 14.4037V14.3941C17.6554 14.3585 17.6696 14.3245 17.6948 14.2993C17.7199 14.2742 17.754 14.2599 17.7896 14.2597H26.083C26.2044 14.2597 26.3208 14.2115 26.4066 14.1257C26.4925 14.0399 26.5407 13.9234 26.5407 13.8021C26.5407 13.6807 26.4925 13.5643 26.4066 13.4785C26.3208 13.3927 26.2044 13.3444 26.083 13.3444H16.5855C16.241 13.344 15.9108 13.207 15.6672 12.9634C15.4236 12.7198 15.2866 12.3896 15.2862 12.0451V12.0355C15.2864 12 15.3006 11.9659 15.3258 11.9407C15.351 11.9156 15.385 11.9013 15.4206 11.9011H27.9336C27.8624 12.1383 27.8324 12.3859 27.8448 12.6332L27.9936 15.7038H23.6509C23.5295 15.7038 23.4131 15.752 23.3273 15.8379C23.2414 15.9237 23.1932 16.0401 23.1932 16.1615C23.1932 16.2828 23.2414 16.3992 23.3273 16.4851C23.4131 16.5709 23.5295 16.6191 23.6509 16.6191H28.0352L28.396 24.0493H27.2679C26.8154 24.0494 26.3736 24.1866 26.0005 24.4428C25.6275 24.6989 25.3408 25.062 25.1782 25.4843C25.0155 25.9066 24.9846 26.3682 25.0894 26.8084C25.1942 27.2486 25.4299 27.6467 25.7654 27.9504C25.8096 27.9919 25.8617 28.0242 25.9185 28.0455C25.9753 28.0667 26.0357 28.0764 26.0964 28.0741C26.157 28.0718 26.2165 28.0574 26.2715 28.0318C26.3265 28.0063 26.3759 27.9701 26.4168 27.9253C26.4576 27.8805 26.4892 27.828 26.5096 27.7709C26.53 27.7138 26.5389 27.6532 26.5357 27.5926C26.5325 27.532 26.5173 27.4727 26.4909 27.4181C26.4646 27.3634 26.4277 27.3146 26.3823 27.2743C26.1851 27.0943 26.0467 26.8591 25.9852 26.5992C25.9237 26.3394 25.942 26.0671 26.0376 25.8178C26.1332 25.5685 26.3018 25.3538 26.5213 25.2018C26.7407 25.0497 27.0009 24.9673 27.2679 24.9654H28.444L28.5728 27.6184H28.4512C27.9212 27.6164 27.4076 27.8024 27.0018 28.1433C26.596 28.4843 26.3242 28.9581 26.2348 29.4805C26.1453 30.003 26.244 30.5402 26.5133 30.9967C26.7826 31.4532 27.2051 31.7995 27.7056 31.9739C27.8199 32.0146 27.9458 32.0081 28.0554 31.956C28.165 31.9038 28.2494 31.8103 28.29 31.6959C28.3307 31.5815 28.3242 31.4557 28.2721 31.3461C28.2199 31.2365 28.1264 31.1521 28.012 31.1115C27.7177 31.0067 27.4697 30.8016 27.3118 30.532C27.1538 30.2625 27.096 29.9459 27.1485 29.638C27.201 29.33 27.3604 29.0505 27.5987 28.8485C27.8369 28.6465 28.1388 28.535 28.4512 28.5336H28.616L28.9129 34.6405C28.9129 34.927 29.0267 35.2017 29.2292 35.4043C29.4318 35.6068 29.7065 35.7206 29.993 35.7206C30.2794 35.7206 30.5541 35.6068 30.7567 35.4043C30.9592 35.2017 31.073 34.927 31.073 34.6405L31.3699 28.5336H32.7196C33.0472 28.5329 33.3708 28.4604 33.6673 28.321C33.9639 28.1817 34.2263 27.979 34.436 27.7273C34.6457 27.4755 34.7976 27.1808 34.8811 26.864C34.9645 26.5471 34.9775 26.2158 34.9189 25.8934C34.9098 25.833 34.8887 25.7751 34.8568 25.723C34.8249 25.6709 34.7829 25.6257 34.7333 25.5901C34.6836 25.5545 34.6274 25.5291 34.5678 25.5156C34.5082 25.5021 34.4466 25.5006 34.3864 25.5113C34.3263 25.522 34.2689 25.5446 34.2176 25.5778C34.1664 25.611 34.1223 25.6542 34.0879 25.7047C34.0536 25.7552 34.0297 25.8121 34.0177 25.872C34.0057 25.9319 34.0059 25.9936 34.0181 26.0534C34.0322 26.1327 34.0391 26.213 34.0389 26.2935C34.0395 26.6442 33.901 26.9809 33.6536 27.2296C33.4063 27.4783 33.0703 27.6187 32.7196 27.62H31.4115L31.5403 24.967H33.8421C34.4362 24.967 35.006 24.7309 35.4261 24.3108C35.8462 23.8907 36.0822 23.3209 36.0822 22.7268C36.0822 22.1327 35.8462 21.5629 35.4261 21.1427C35.006 20.7226 34.4362 20.4866 33.8421 20.4866C33.7207 20.4866 33.6043 20.5348 33.5185 20.6206C33.4326 20.7065 33.3844 20.8229 33.3844 20.9442C33.3844 21.0656 33.4326 21.182 33.5185 21.2678C33.6043 21.3537 33.7207 21.4019 33.8421 21.4019C34.1939 21.4019 34.5313 21.5416 34.78 21.7904C35.0288 22.0392 35.1686 22.3766 35.1686 22.7284C35.1686 23.0802 35.0288 23.4176 34.78 23.6664C34.5313 23.9151 34.1939 24.0549 33.8421 24.0549H31.5859L31.9467 16.6247H36.7015C36.8229 16.6247 36.9393 16.5765 37.0251 16.4907C37.1109 16.4048 37.1591 16.2884 37.1591 16.1671C37.1591 16.0457 37.1109 15.9293 37.0251 15.8435C36.9393 15.7576 36.8229 15.7094 36.7015 15.7094H31.9915L32.1403 12.6388C32.1528 12.3915 32.1227 12.1439 32.0515 11.9067H44.5653C44.6009 11.9069 44.635 11.9212 44.6601 11.9463C44.6853 11.9715 44.6995 12.0056 44.6997 12.0411V12.0507C44.6993 12.3953 44.5622 12.7257 44.3184 12.9693C44.0747 13.2129 43.7442 13.3498 43.3996 13.35H33.7845C33.6631 13.35 33.5467 13.3983 33.4609 13.4841C33.375 13.5699 33.3268 13.6863 33.3268 13.8077C33.3268 13.929 33.375 14.0455 33.4609 14.1313C33.5467 14.2171 33.6631 14.2653 33.7845 14.2653H42.1955C42.2311 14.2655 42.2652 14.2798 42.2903 14.3049C42.3155 14.3301 42.3297 14.3641 42.3299 14.3997V14.4093C42.3295 14.7539 42.1924 15.0843 41.9486 15.3279C41.7049 15.5715 41.3744 15.7084 41.0298 15.7086H38.452C38.3307 15.7086 38.2143 15.7568 38.1284 15.8427C38.0426 15.9285 37.9944 16.0449 37.9944 16.1663C37.9944 16.2876 38.0426 16.404 38.1284 16.4899C38.2143 16.5757 38.3307 16.6239 38.452 16.6239H39.8441C39.8764 16.6283 39.9061 16.6443 39.9275 16.6689C39.949 16.6934 39.9609 16.7249 39.9609 16.7575V16.7671C39.9605 17.1117 39.8234 17.4421 39.5796 17.6857C39.3359 17.9293 39.0054 18.0662 38.6608 18.0664H33.1916C33.1315 18.0664 33.072 18.0783 33.0165 18.1012C32.961 18.1242 32.9105 18.158 32.868 18.2005C32.8255 18.2429 32.7918 18.2934 32.7688 18.3489C32.7458 18.4044 32.734 18.464 32.734 18.5241C32.734 18.5841 32.7458 18.6437 32.7688 18.6992C32.7918 18.7547 32.8255 18.8052 32.868 18.8476C32.9105 18.8901 32.961 18.9239 33.0165 18.9469C33.072 18.9698 33.1315 18.9817 33.1916 18.9817H38.6616C39.249 18.9811 39.8121 18.7474 40.2275 18.3321C40.6428 17.9168 40.8764 17.3537 40.877 16.7663V16.7567C40.8769 16.712 40.874 16.6674 40.8682 16.6231H41.0282C41.6156 16.6225 42.1787 16.3889 42.594 15.9735C43.0094 15.5582 43.243 14.9951 43.2436 14.4077V14.3981C43.2436 14.3526 43.2407 14.3072 43.2348 14.2621H43.3948C43.9822 14.2615 44.5453 14.0279 44.9606 13.6125C45.3759 13.1972 45.6096 12.6341 45.6102 12.0467V12.0371C45.6115 11.7586 45.5022 11.4909 45.3062 11.2929C45.1103 11.0949 44.8439 10.9827 44.5653 10.9811ZM30.157 34.5909C30.157 34.6344 30.1397 34.6761 30.1089 34.7069C30.0782 34.7377 30.0365 34.7549 29.993 34.7549C29.9495 34.7549 29.9077 34.7377 29.877 34.7069C29.8462 34.6761 29.8289 34.6344 29.8289 34.5909L29.5345 28.528H30.4514L30.157 34.5909ZM30.4962 27.6128H29.4913L29.3625 24.9598H30.6266L30.4962 27.6128ZM30.6698 24.0445H29.3161L28.7561 12.5836C28.7471 12.4151 28.7728 12.2467 28.8316 12.0885C28.8904 11.9304 28.9809 11.786 29.0977 11.6643C29.2126 11.5434 29.3509 11.4472 29.5042 11.3814C29.6575 11.3157 29.8226 11.2818 29.9894 11.2818C30.1561 11.2818 30.3212 11.3157 30.4745 11.3814C30.6278 11.4472 30.7661 11.5434 30.881 11.6643C30.9978 11.786 31.0884 11.9304 31.1471 12.0885C31.2059 12.2467 31.2316 12.4151 31.2227 12.5836L30.6698 24.0445ZM29.993 9.59694C30.5054 9.59868 31.0068 9.44832 31.4337 9.1649C31.8606 8.88148 32.1938 8.47774 32.3912 8.00482C32.5885 7.5319 32.641 7.01106 32.5421 6.50826C32.4432 6.00547 32.1973 5.54333 31.8356 5.18037C31.4738 4.81741 31.0126 4.56995 30.5101 4.46934C30.0076 4.36873 29.4866 4.41948 29.013 4.61518C28.5394 4.81087 28.1346 5.1427 27.8497 5.56865C27.5648 5.9946 27.4128 6.49551 27.4128 7.00794C27.4123 7.69319 27.6838 8.35063 28.1675 8.836C28.6512 9.32137 29.3077 9.59504 29.993 9.59694ZM29.993 5.335C30.3244 5.33326 30.6488 5.42994 30.9252 5.61279C31.2016 5.79564 31.4175 6.05643 31.5455 6.36211C31.6736 6.66778 31.708 7.00459 31.6444 7.32984C31.5808 7.65509 31.4221 7.95414 31.1884 8.1891C30.9547 8.42406 30.6564 8.58434 30.3315 8.64964C30.0066 8.71493 29.6696 8.68231 29.3633 8.55589C29.0569 8.42947 28.795 8.21495 28.6107 7.93952C28.4264 7.66409 28.328 7.34014 28.328 7.00874C28.3274 6.56616 28.5023 6.1414 28.8144 5.82763C29.1266 5.51386 29.5504 5.3367 29.993 5.335Z" fill="#0065C1"/>
<path d="M33.0956 28.889C32.9797 28.9248 32.8827 29.0051 32.826 29.1124C32.7693 29.2197 32.7575 29.3451 32.7932 29.4611C32.8939 29.7882 32.8648 30.1415 32.712 30.4478C32.5592 30.7541 32.2943 30.9898 31.9723 31.106C31.9157 31.1261 31.8636 31.1572 31.819 31.1974C31.7743 31.2377 31.7381 31.2864 31.7123 31.3406C31.6865 31.3949 31.6716 31.4537 31.6685 31.5137C31.6654 31.5738 31.6742 31.6338 31.6943 31.6904C31.7144 31.7471 31.7455 31.7992 31.7858 31.8438C31.826 31.8884 31.8747 31.9247 31.929 31.9505C31.9832 31.9763 32.042 31.9912 32.1021 31.9943C32.1621 31.9973 32.2221 31.9886 32.2788 31.9685C32.8234 31.7733 33.2719 31.3757 33.5307 30.8583C33.7896 30.3408 33.8389 29.7435 33.6685 29.1906C33.6507 29.1332 33.6217 29.0798 33.5833 29.0336C33.5449 28.9874 33.4977 28.9491 33.4445 28.9211C33.3913 28.8931 33.3331 28.8759 33.2733 28.8704C33.2134 28.8648 33.153 28.8712 33.0956 28.889ZM25.2198 23.663C25.0325 23.4786 24.9041 23.2428 24.8509 22.9854C24.7976 22.728 24.822 22.4605 24.9209 22.217C25.0197 21.9734 25.1886 21.7647 25.4062 21.6172C25.6238 21.4697 25.8802 21.3901 26.1431 21.3884C26.2644 21.3884 26.3808 21.3402 26.4667 21.2544C26.5525 21.1686 26.6007 21.0522 26.6007 20.9308C26.6007 20.8094 26.5525 20.693 26.4667 20.6072C26.3808 20.5214 26.2644 20.4731 26.1431 20.4731C25.6983 20.4737 25.2638 20.6067 24.8948 20.8551C24.5259 21.1035 24.2392 21.4561 24.0714 21.8679C23.9036 22.2798 23.8621 22.7323 23.9524 23.1679C24.0426 23.6034 24.2605 24.0022 24.5781 24.3134C24.62 24.3597 24.6709 24.3968 24.7276 24.4227C24.7844 24.4486 24.8458 24.4625 24.9082 24.4638C24.9705 24.465 25.0324 24.4535 25.0902 24.43C25.1479 24.4064 25.2002 24.3713 25.2439 24.3268C25.2876 24.2823 25.3217 24.2294 25.3442 24.1712C25.3667 24.113 25.377 24.0509 25.3746 23.9886C25.3722 23.9262 25.3571 23.8651 25.3302 23.8088C25.3033 23.7526 25.2652 23.7024 25.2182 23.6614L25.2198 23.663Z" fill="#0065C1"/>
</svg>
