<svg width="60" height="44" viewBox="0 0 60 44" fill="none" xmlns="http://www.w3.org/2000/svg">
<path d="M13.6092 14.509C13.5966 14.5777 13.5891 14.6472 13.5868 14.717V16.1466C13.5878 16.4343 13.6763 16.715 13.8407 16.9512C14.005 17.1874 14.2373 17.368 14.5068 17.469V19.573C14.5078 19.9122 14.6392 20.238 14.8737 20.4831C15.1082 20.7282 15.4279 20.8738 15.7668 20.8898V33.0442C15.4281 33.0604 15.1087 33.2059 14.8742 33.4508C14.6397 33.6957 14.5082 34.0212 14.5068 34.3602V36.4578C14.2366 36.5615 14.0041 36.7445 13.8399 36.9828C13.6757 37.2211 13.5874 37.5036 13.5868 37.793V39.1914C13.587 39.3166 13.6369 39.4367 13.7255 39.5252C13.8142 39.6137 13.9343 39.6634 14.0596 39.6634H45.9188C46.0439 39.6632 46.1638 39.6134 46.2523 39.5249C46.3408 39.4364 46.3906 39.3165 46.3908 39.1914V37.793C46.3903 37.5036 46.3022 37.2212 46.1381 36.9829C45.9741 36.7446 45.7417 36.5615 45.4716 36.4578V34.349C45.4705 34.0098 45.3391 33.6839 45.1046 33.4389C44.8701 33.1938 44.5504 33.0482 44.2116 33.0322V20.8906C44.5504 20.8746 44.8701 20.729 45.1046 20.4839C45.3391 20.2388 45.4705 19.913 45.4716 19.5738V17.469C45.741 17.3678 45.9732 17.187 46.1374 16.9507C46.3016 16.7143 46.39 16.4336 46.3908 16.1458V14.7274C46.3886 14.6576 46.3811 14.588 46.3684 14.5194C46.4824 14.57 46.6119 14.5732 46.7283 14.5284C46.8447 14.4835 46.9386 14.3942 46.9892 14.2802C47.0398 14.1661 47.043 14.0367 46.9981 13.9202C46.9533 13.8038 46.864 13.71 46.75 13.6594L30.2068 4.96418C30.1388 4.92838 30.0632 4.90967 29.9864 4.90967C29.9096 4.90967 29.8339 4.92838 29.766 4.96418L13.2188 13.6506C13.1107 13.7059 13.028 13.8007 12.988 13.9154C12.948 14.03 12.9537 14.1557 13.004 14.2662C13.0543 14.3768 13.1452 14.4637 13.2579 14.5089C13.3706 14.5541 13.4964 14.5541 13.6092 14.509ZM15.4492 18.2882V17.561H20.8988V18.281L15.4492 18.2882ZM27.5804 20.893V33.0442C27.2416 33.0604 26.922 33.206 26.6875 33.4511C26.4531 33.6961 26.3216 34.0218 26.3204 34.361V36.3706H21.8388V34.3602C21.8373 34.0212 21.7058 33.6957 21.4713 33.4508C21.2369 33.2059 20.9174 33.0604 20.5788 33.0442V20.8906C20.9176 20.8746 21.2373 20.729 21.4718 20.4839C21.7063 20.2388 21.8377 19.913 21.8388 19.5738V17.5618H26.3188V19.5714C26.3194 19.9109 26.4506 20.2373 26.6851 20.4828C26.9196 20.7284 27.2396 20.8744 27.5788 20.8906L27.5804 20.893ZM27.2652 18.2882V17.561H32.714V18.281L27.2652 18.2882ZM39.3964 20.893V33.0442C39.0576 33.0604 38.738 33.206 38.5035 33.4511C38.2691 33.6961 38.1376 34.0218 38.1364 34.361V36.3706H33.6548V34.3602C33.6535 34.021 33.5221 33.6953 33.2876 33.4503C33.0531 33.2052 32.7335 33.0596 32.3948 33.0434V20.8906C32.7336 20.8746 33.0533 20.729 33.2878 20.4839C33.5223 20.2388 33.6537 19.913 33.6548 19.5738V17.5618H38.1348V19.5714C38.1354 19.9109 38.2666 20.2373 38.5011 20.4828C38.7356 20.7284 39.0556 20.8744 39.3948 20.8906L39.3964 20.893ZM39.0812 18.2882V17.561H44.5292V18.281L39.0812 18.2882ZM44.5292 35.6482V36.3682H39.078V35.6482H44.5292ZM32.7132 35.6482V36.3682H27.262V35.6482H32.7132ZM28.0492 19.9554H27.6396C27.5394 19.9554 27.4434 19.9156 27.3726 19.8448C27.3018 19.774 27.262 19.6779 27.262 19.5778V19.2346H32.71V19.5778C32.71 19.6779 32.6702 19.774 32.5994 19.8448C32.5286 19.9156 32.4325 19.9554 32.3324 19.9554H28.0492ZM31.454 20.9002V33.0378H28.522V20.9002H31.454ZM28.0492 33.9826H32.3324C32.382 33.9826 32.4311 33.9923 32.4769 34.0113C32.5227 34.0303 32.5643 34.0581 32.5994 34.0932C32.6344 34.1282 32.6623 34.1699 32.6812 34.2157C32.7002 34.2615 32.71 34.3106 32.71 34.3602V34.7034H27.262V34.3602C27.262 34.26 27.3018 34.164 27.3726 34.0932C27.4434 34.0224 27.5394 33.9826 27.6396 33.9826H28.0492ZM20.894 35.649V36.369H15.4452V35.649H20.894ZM15.4452 19.5866V19.2338H20.894V19.577C20.894 19.6266 20.8842 19.6758 20.8652 19.7217C20.8461 19.7675 20.8182 19.8092 20.7831 19.8443C20.7479 19.8793 20.7062 19.9071 20.6603 19.9261C20.6144 19.945 20.5652 19.9547 20.5156 19.9546H15.814C15.7148 19.9523 15.6205 19.911 15.5515 19.8398C15.4825 19.7685 15.4443 19.673 15.4452 19.5738V19.5866ZM19.634 20.909V33.037H16.7052V20.9002L19.634 20.909ZM15.4452 34.3698C15.4451 34.3201 15.4548 34.2709 15.4737 34.225C15.4926 34.1791 15.5204 34.1374 15.5555 34.1023C15.5906 34.0671 15.6322 34.0392 15.6781 34.0202C15.7239 34.0012 15.7731 33.9914 15.8228 33.9914H20.5156C20.5653 33.9913 20.6145 34.001 20.6605 34.02C20.7065 34.0389 20.7482 34.0668 20.7834 34.102C20.8185 34.1371 20.8464 34.1789 20.8654 34.2248C20.8844 34.2708 20.8941 34.3201 20.894 34.3698V34.713H15.4452V34.3698ZM45.4452 37.8098V38.7354H14.526V37.8122C14.526 37.6828 14.5774 37.5586 14.6689 37.4671C14.7604 37.3756 14.8845 37.3242 15.014 37.3242H44.958C45.086 37.3242 45.2089 37.3745 45.3002 37.4643C45.3915 37.5541 45.4439 37.6761 45.446 37.8042L45.4452 37.8098ZM44.526 34.3698V34.713H39.078V34.3698C39.0779 34.3201 39.0876 34.2709 39.1065 34.225C39.1254 34.1791 39.1532 34.1374 39.1883 34.1023C39.2234 34.0671 39.265 34.0392 39.3109 34.0202C39.3567 34.0012 39.4059 33.9914 39.4556 33.9914H44.158C44.2551 33.9936 44.3476 34.0332 44.4163 34.1019C44.485 34.1706 44.5245 34.2631 44.5268 34.3602L44.526 34.3698ZM40.3388 33.0474V20.9002H43.2708V33.0378L40.3388 33.0474ZM44.5276 19.5874C44.5276 19.6875 44.4878 19.7836 44.417 19.8544C44.3462 19.9252 44.2501 19.965 44.15 19.965H39.4588C39.3586 19.965 39.2626 19.9252 39.1918 19.8544C39.121 19.7836 39.0812 19.6875 39.0812 19.5874V19.2346H44.5292L44.5276 19.5874ZM29.986 5.90898L44.054 13.3034H15.918L29.986 5.90898ZM14.526 14.7274C14.5262 14.6023 14.576 14.4823 14.6645 14.3939C14.7529 14.3054 14.8729 14.2556 14.998 14.2554H44.974C45.0991 14.2556 45.219 14.3054 45.3075 14.3939C45.396 14.4823 45.4458 14.6023 45.446 14.7274V16.157C45.4458 16.2821 45.396 16.402 45.3075 16.4905C45.219 16.579 45.0991 16.6288 44.974 16.629H14.998C14.8729 16.6288 14.7529 16.579 14.6645 16.4905C14.576 16.402 14.5262 16.2821 14.526 16.157V14.7274Z" fill="#0065C1"/>
</svg>
