<svg width="60" height="44" viewBox="0 0 60 44" fill="none" xmlns="http://www.w3.org/2000/svg">
<path d="M46.4502 19.381H45.2575L43.48 20.3161C43.2812 20.2024 43.0685 20.115 42.8472 20.0561L40.6074 19.4962V19.2418C41.0978 18.8991 41.4986 18.4434 41.7758 17.9132C42.053 17.383 42.1986 16.7939 42.2001 16.1956V15.2677C42.2103 14.2864 41.8419 13.3389 41.1714 12.6223C40.501 11.9057 39.5801 11.4751 38.6004 11.42C38.4996 11.42 38.4004 11.42 38.3004 11.4256L38.8803 10.0657L36.0709 7.25947L34.4143 8.33699C33.7873 7.9837 33.1202 7.70707 32.4272 7.51305L32.0184 5.57959H27.9723L27.5628 7.51305C26.8698 7.70698 26.2026 7.98361 25.5757 8.33699L23.919 7.25947L21.1104 10.0673L21.68 11.4272C21.6584 11.4272 21.6376 11.4224 21.616 11.4216C21.1188 11.4065 20.6236 11.4913 20.1597 11.6711C19.6959 11.8509 19.2728 12.122 18.9157 12.4683C18.5585 12.8145 18.2745 13.229 18.0804 13.687C17.8863 14.1451 17.7862 14.6374 17.7859 15.1349V16.1964C17.7875 16.7947 17.9332 17.3837 18.2105 17.9138C18.4879 18.4439 18.8888 18.8994 19.3794 19.2418V19.4986L17.9203 19.8633L15.2757 18.3187H13.5398V29.3178L18.7618 31.0585H19.7793L19.9065 30.6137L21.5064 31.5737C21.5195 31.9927 21.6914 32.3911 21.9873 32.6882C22.2832 32.9852 22.6809 33.1587 23.0999 33.1736C23.1148 33.5912 23.2874 33.9877 23.5829 34.2832C23.8784 34.5788 24.2749 34.7513 24.6926 34.7662C24.7075 35.1839 24.8801 35.5804 25.1756 35.8759C25.4711 36.1714 25.8676 36.344 26.2853 36.3589C26.2948 36.6547 26.3836 36.9424 26.5425 37.1921C26.7013 37.4417 26.9243 37.6441 27.1882 37.7781C27.452 37.912 27.747 37.9726 28.0423 37.9534C28.3376 37.9343 28.6223 37.8361 28.8667 37.6692L29.337 38.0844C29.6326 38.3431 30.0122 38.4853 30.405 38.4844H30.5033C30.9278 38.4838 31.3349 38.3162 31.6368 38.0179C31.9387 37.7196 32.1112 37.3145 32.1168 36.8901C32.5375 36.8845 32.9394 36.7149 33.2368 36.4174C33.5343 36.1199 33.7039 35.7181 33.7095 35.2974C34.1288 35.2908 34.5291 35.1213 34.8256 34.8248C35.1221 34.5283 35.2916 34.128 35.2982 33.7087C35.7248 33.7001 36.1311 33.5249 36.4301 33.2205C36.7292 32.9161 36.8971 32.5067 36.8981 32.08C36.8982 32.0266 36.8955 31.9732 36.8901 31.9201L46.4526 27.1388L46.4502 19.381ZM41.1418 15.2685V16.1964C41.1402 16.6619 41.0167 17.1189 40.7836 17.5219C40.5505 17.9248 40.2159 18.2597 39.8131 18.493L39.5475 18.6466V20.3265L42.1993 20.9889L36.3597 24.0614V22.6311C36.3608 21.9384 36.0896 21.273 35.6046 20.7785L37.426 20.3233V18.6434L37.1613 18.4906C36.7585 18.2575 36.424 17.9228 36.191 17.5199C35.9579 17.1171 35.8347 16.6602 35.8334 16.1948V15.1341C35.8334 14.7786 35.9048 14.4268 36.0434 14.0995C36.1821 13.7721 36.385 13.476 36.6402 13.2286C36.8955 12.9812 37.1978 12.7876 37.5293 12.6592C37.8608 12.5309 38.2147 12.4704 38.57 12.4815C39.2748 12.5258 39.9353 12.8402 40.4143 13.3591C40.8933 13.878 41.1539 14.5616 41.1418 15.2677V15.2685ZM30.7953 23.6439L28.3955 22.8759C27.2952 22.5255 26.1218 22.4719 24.9942 22.7207L24.6902 22.7879V22.6279C24.6898 22.2726 24.8084 21.9274 25.027 21.6473C25.2456 21.3672 25.5517 21.1684 25.8965 21.0824L28.9363 20.3225V18.6426L28.6715 18.4898C28.2687 18.2567 27.9342 17.922 27.7012 17.5191C27.4682 17.1163 27.3449 16.6594 27.3436 16.194V15.1341C27.3436 14.7786 27.4151 14.4268 27.5537 14.0995C27.6923 13.7721 27.8952 13.476 28.1505 13.2286C28.4057 12.9812 28.708 12.7876 29.0395 12.6592C29.371 12.5309 29.7249 12.4704 30.0802 12.4815C30.785 12.5258 31.4456 12.8402 31.9246 13.3591C32.4035 13.878 32.6641 14.5616 32.652 15.2677V16.1956C32.6504 16.6611 32.5269 17.1181 32.2938 17.5211C32.0607 17.924 31.7261 18.2589 31.3233 18.4922L31.0577 18.6458V20.3257L34.0975 21.0856C34.4422 21.1716 34.7483 21.3704 34.967 21.6505C35.1856 21.9306 35.3042 22.2758 35.3038 22.6311V24.6182L35.1726 24.687H34.847L31.5833 23.7543C31.326 23.6854 31.0615 23.6476 30.7953 23.6415V23.6439ZM24.8054 13.5238C25.2938 12.5735 26.0338 11.7755 26.9447 11.217C27.8556 10.6584 28.9024 10.3607 29.9709 10.3564C31.0394 10.352 32.0886 10.6411 33.004 11.1922C33.9195 11.7433 34.666 12.5351 35.1622 13.4814C34.9054 13.9945 34.7718 14.5603 34.7718 15.1341V16.1956C34.7734 16.7938 34.9189 17.3828 35.1961 17.9129C35.4733 18.443 35.8741 18.8985 36.3645 19.241V19.4986L34.2415 20.0305L32.1176 19.4986V19.2442C32.6081 18.9015 33.0088 18.4458 33.286 17.9156C33.5633 17.3854 33.7088 16.7963 33.7103 16.198V15.2701C33.7205 14.2888 33.3521 13.3413 32.6816 12.6247C32.0112 11.9081 31.0904 11.4775 30.1106 11.4224C29.6132 11.4072 29.1179 11.492 28.654 11.6718C28.19 11.8516 27.7669 12.1227 27.4097 12.4691C27.0525 12.8155 26.7685 13.23 26.5745 13.6882C26.3805 14.1464 26.2805 14.6389 26.2805 15.1365V16.198C26.282 16.7962 26.4275 17.3852 26.7047 17.9153C26.982 18.4454 27.3827 18.9009 27.8731 19.2434V19.4986L25.7501 20.0305L23.6247 19.4986V19.2442C24.1157 18.9015 24.517 18.4455 24.7945 17.9148C25.072 17.3842 25.2176 16.7944 25.2189 16.1956V15.2677C25.2184 14.6623 25.0773 14.0654 24.807 13.5238H24.8054ZM22.3647 10.3136L24.0606 8.61777L25.5533 9.58889L25.8389 9.41371C26.5499 8.97647 27.3255 8.65439 28.1371 8.45938L28.4635 8.37938L28.8331 6.63791H31.1577L31.5257 8.37858L31.852 8.45858C32.6635 8.65349 33.4392 8.9753 34.1503 9.41211L34.4359 9.5873L35.9285 8.61937L37.622 10.3136L37.0197 11.7231C36.6041 11.9011 36.2246 12.1535 35.8997 12.4679C35.8782 12.4895 35.859 12.5119 35.8382 12.5335C35.2167 11.5401 34.3522 10.7216 33.3264 10.1552C32.3007 9.58883 31.1474 9.29328 29.9757 9.29648C28.8039 9.29968 27.6524 9.60153 26.6297 10.1735C25.607 10.7455 24.7471 11.5687 24.131 12.5655C23.7979 12.2158 23.4002 11.9338 22.9599 11.7351L22.3647 10.3136ZM20.4401 20.3257V18.6458L20.1753 18.493C19.7726 18.2599 19.438 17.9252 19.205 17.5223C18.972 17.1195 18.8487 16.6626 18.8474 16.1972V15.1341C18.8474 14.7786 18.9189 14.4268 19.0575 14.0995C19.1961 13.7721 19.399 13.476 19.6543 13.2286C19.9095 12.9812 20.2118 12.7876 20.5433 12.6592C20.8748 12.5309 21.2287 12.4704 21.584 12.4815C22.2888 12.5258 22.9494 12.8402 23.4284 13.3591C23.9074 13.878 24.1679 14.5616 24.1558 15.2677V16.1956C24.1543 16.6611 24.0308 17.1181 23.7976 17.5211C23.5645 17.924 23.2299 18.2589 22.8271 18.4922L22.5615 18.6458V20.3257L24.3854 20.7785C23.8994 21.2715 23.6265 21.9356 23.6255 22.6279V23.0215L21.9696 23.3895L22.0128 23.2391L22.0328 22.2584L19.233 20.6249L20.4401 20.3257ZM14.6005 19.3802H14.9877L18.805 21.6072L16.8795 29.3122L14.6013 28.5523L14.6005 19.3802ZM18.9338 29.997L17.8891 29.649L19.7601 22.1648L20.9704 22.8711V23.0231L18.9794 29.997H18.9338ZM22.5631 31.5249C22.5636 31.3671 22.6263 31.2159 22.7375 31.1041L23.6702 30.1714C23.7825 30.0631 23.9328 30.0033 24.0888 30.0047C24.2447 30.0061 24.3939 30.0687 24.5042 30.179C24.6145 30.2893 24.6771 30.4384 24.6785 30.5944C24.6799 30.7504 24.62 30.9006 24.5118 31.0129L23.5791 31.9456C23.4958 32.0289 23.3898 32.0855 23.2744 32.1085C23.1589 32.1314 23.0393 32.1196 22.9306 32.0746C22.8218 32.0296 22.7289 31.9533 22.6635 31.8555C22.5981 31.7576 22.5632 31.6426 22.5631 31.5249ZM24.1558 33.1176C24.1563 32.9598 24.2189 32.8086 24.3302 32.6968L25.2629 31.7641C25.3752 31.6558 25.5255 31.596 25.6815 31.5974C25.8374 31.5988 25.9866 31.6614 26.0969 31.7717C26.2072 31.882 26.2697 32.0311 26.2712 32.1871C26.2726 32.343 26.2127 32.4933 26.1045 32.6056L25.1717 33.5383C25.0885 33.6215 24.9825 33.6782 24.867 33.7011C24.7516 33.7241 24.632 33.7123 24.5232 33.6673C24.4145 33.6222 24.3216 33.546 24.2562 33.4481C24.1908 33.3503 24.1558 33.2353 24.1558 33.1176ZM25.7485 34.7102C25.749 34.5525 25.8116 34.4013 25.9229 34.2895L26.8556 33.3567C26.9671 33.2449 27.1184 33.182 27.2763 33.1818C27.4342 33.1816 27.5857 33.2441 27.6976 33.3555C27.8094 33.467 27.8723 33.6184 27.8725 33.7763C27.8728 33.9342 27.8102 34.0857 27.6988 34.1975L26.766 35.1302C26.6828 35.2134 26.5768 35.2701 26.4613 35.293C26.3459 35.316 26.2262 35.3042 26.1175 35.2592C26.0088 35.2141 25.9158 35.1379 25.8504 35.04C25.785 34.9422 25.7501 34.8271 25.7501 34.7094L25.7485 34.7102ZM27.9387 36.8973C27.821 36.8973 27.706 36.8623 27.6082 36.7969C27.5103 36.7315 27.4341 36.6386 27.389 36.5299C27.344 36.4211 27.3322 36.3015 27.3551 36.1861C27.3781 36.0706 27.4348 35.9646 27.518 35.8814L28.4507 34.9486C28.563 34.8404 28.7133 34.7805 28.8692 34.7819C29.0252 34.7834 29.1743 34.8459 29.2846 34.9562C29.3949 35.0665 29.4575 35.2157 29.4589 35.3716C29.4603 35.5276 29.4005 35.6779 29.2922 35.7902L28.3595 36.7229C28.2477 36.8341 28.0965 36.8968 27.9387 36.8973ZM30.5057 37.4284H30.4074C30.2727 37.4286 30.1426 37.3794 30.0418 37.2901L29.6418 36.9397L30.0418 36.5397C30.1823 36.3969 30.2956 36.2296 30.3762 36.0461L30.8561 36.4461C30.9436 36.5189 31.0066 36.6169 31.0364 36.7268C31.0662 36.8367 31.0614 36.953 31.0226 37.0601C30.9839 37.1671 30.9131 37.2596 30.8199 37.325C30.7267 37.3903 30.6156 37.4253 30.5017 37.4252L30.5057 37.4284ZM35.2662 32.6512H35.1742C35.0405 32.6512 34.9111 32.6042 34.8086 32.5184L31.9288 30.1186L31.2489 30.9345L34.0439 33.264C34.131 33.337 34.1935 33.4351 34.223 33.5449C34.2526 33.6547 34.2476 33.7709 34.2088 33.8778C34.17 33.9846 34.0993 34.077 34.0063 34.1424C33.9133 34.2077 33.8024 34.2429 33.6887 34.2431H33.5727C33.4432 34.2429 33.3178 34.1974 33.2183 34.1143L30.3386 31.7145L29.6586 32.5304L32.4496 34.8574C32.5368 34.9303 32.5995 35.0283 32.6291 35.138C32.6587 35.2477 32.6538 35.3639 32.6151 35.4707C32.5764 35.5776 32.5057 35.6699 32.4127 35.7352C32.3197 35.8005 32.2089 35.8356 32.0952 35.8358C31.8907 35.8354 31.6927 35.7639 31.5353 35.6334L30.3506 34.6462C30.2195 34.3768 30.0176 34.1481 29.7665 33.9846C29.5154 33.8211 29.2245 33.7291 28.9251 33.7183C28.9102 33.3007 28.7376 32.9042 28.4421 32.6086C28.1465 32.3131 27.75 32.1405 27.3324 32.1256C27.3175 31.708 27.1449 31.3115 26.8494 31.016C26.5539 30.7204 26.1574 30.5479 25.7397 30.533C25.7291 30.2109 25.6247 29.899 25.4392 29.6356C25.2537 29.3722 24.9953 29.1687 24.6957 29.0502C24.3961 28.9317 24.0684 28.9034 23.7529 28.9687C23.4374 29.034 23.1478 29.1901 22.9199 29.4178L21.9872 30.3538C21.9333 30.4107 21.8836 30.4713 21.8384 30.5354L20.2073 29.557L21.6368 24.5542L25.2205 23.7543C26.1645 23.5446 27.1471 23.5891 28.0683 23.883L28.8507 24.1334L26.1997 25.4589C25.9036 25.6063 25.6548 25.8338 25.4814 26.1154C25.3081 26.3971 25.2172 26.7217 25.2189 27.0524V27.1572C25.2188 27.4719 25.3022 27.781 25.4606 28.0529C25.619 28.3248 25.8467 28.5498 26.1206 28.7048C26.3944 28.8599 26.7045 28.9395 27.0192 28.9354C27.3338 28.9314 27.6418 28.8439 27.9115 28.6819L29.8866 27.498C30.0849 27.3826 30.3143 27.3324 30.5426 27.3543C30.771 27.3763 30.9867 27.4693 31.1593 27.6204L35.6446 31.6577C35.7305 31.7349 35.791 31.8364 35.818 31.9487C35.8451 32.061 35.8374 32.1789 35.7961 32.2868C35.7548 32.3947 35.6817 32.4875 35.5865 32.553C35.4913 32.6185 35.3785 32.6535 35.263 32.6536L35.2662 32.6512ZM45.3919 26.4845L36.4493 30.9561C36.4203 30.9251 36.3899 30.8955 36.3581 30.8673L31.8736 26.8308C31.5338 26.5243 31.1045 26.3351 30.6489 26.291C30.1934 26.247 29.7358 26.3504 29.3434 26.586L27.3628 27.7716C27.2541 27.8367 27.13 27.8718 27.0033 27.8733C26.8765 27.8748 26.7517 27.8426 26.6414 27.7801C26.5312 27.7175 26.4396 27.6268 26.3759 27.5172C26.3122 27.4077 26.2787 27.2831 26.2789 27.1564V27.0516C26.2789 26.9182 26.3164 26.7874 26.3871 26.6743C26.4578 26.5611 26.5589 26.4701 26.6788 26.4117L29.6386 24.931C30.1512 24.677 30.74 24.6225 31.2905 24.7782L34.6262 25.7309L35.4342 25.7509L45.3887 20.5121L45.3919 26.4845Z" fill="#0065C1"/>
</svg>
