<svg width="60" height="51" viewBox="0 0 60 51" fill="none" xmlns="http://www.w3.org/2000/svg">
<path d="M34.675 35.2458L35.4214 34.4995L34.675 33.7539L33.9286 34.5003L34.675 35.2458ZM45.6745 41.7062C45.5885 41.5626 45.4491 41.459 45.2867 41.4182C45.1244 41.3774 44.9525 41.4027 44.8089 41.4886L44.7793 41.5078V41.491C44.3161 41.7854 43.833 42.063 43.3442 42.3326C43.2066 42.415 43.1055 42.5467 43.0616 42.701C43.0176 42.8552 43.034 43.0204 43.1074 43.163C43.1809 43.3056 43.3058 43.4149 43.4569 43.4686C43.608 43.5224 43.7739 43.5166 43.921 43.4525C44.4425 43.1829 44.9609 42.8845 45.4569 42.5726C45.6005 42.4866 45.7041 42.3472 45.7449 42.1848C45.7857 42.0225 45.7604 41.8499 45.6745 41.7062ZM49.1567 38.5576C49.0352 38.4468 48.8752 38.3879 48.7109 38.3933C48.5465 38.3986 48.3908 38.4679 48.2767 38.5864H48.2807C47.9064 38.9931 47.5104 39.3792 47.0944 39.7431C46.9749 39.8562 46.9041 40.0113 46.8972 40.1757C46.8902 40.34 46.9476 40.5006 47.0572 40.6233C47.1668 40.746 47.3199 40.8211 47.484 40.8327C47.648 40.8444 47.8102 40.7915 47.936 40.6855C48.3567 40.2943 48.8031 39.8775 49.1983 39.4488C49.3112 39.3253 49.3704 39.1622 49.3631 38.9951C49.3557 38.828 49.2824 38.6707 49.1591 38.5576H49.1567ZM27.3418 42.6174C26.845 42.3686 26.3553 42.1061 25.873 41.8302C25.7288 41.75 25.5589 41.7293 25.3996 41.7727C25.2404 41.8161 25.1044 41.9201 25.0208 42.0624C24.9372 42.2047 24.9126 42.3741 24.9523 42.5343C24.992 42.6945 25.0927 42.8329 25.2331 42.9197C25.746 43.2189 26.2696 43.4996 26.8026 43.7613C26.8781 43.7995 26.9605 43.8221 27.0449 43.8279C27.1293 43.8337 27.2141 43.8224 27.2941 43.7949C27.3741 43.7674 27.4477 43.7241 27.5107 43.6675C27.5737 43.611 27.6247 43.5425 27.6607 43.4659C27.6967 43.3893 27.717 43.3063 27.7204 43.2218C27.7237 43.1372 27.7101 43.0529 27.6803 42.9737C27.6505 42.8945 27.6051 42.8221 27.5468 42.7607C27.4885 42.6994 27.4185 42.6504 27.341 42.6166L27.3418 42.6174ZM41.4379 43.8013C41.3828 43.6519 41.2734 43.5288 41.1314 43.4567C40.9894 43.3846 40.8254 43.3688 40.6723 43.4125V43.4333C40.1504 43.6085 39.6176 43.749 39.0772 43.8541C38.917 43.894 38.7788 43.9951 38.6921 44.1356C38.6055 44.2762 38.5773 44.445 38.6136 44.6061C38.6498 44.7672 38.7477 44.9076 38.8862 44.9975C39.0247 45.0873 39.1929 45.1194 39.3548 45.0868C39.931 44.9548 40.5011 44.7976 41.0635 44.6156C41.1419 44.5873 41.2139 44.5437 41.2753 44.4873C41.3367 44.431 41.3864 44.363 41.4214 44.2874C41.4565 44.2118 41.4762 44.1299 41.4794 44.0466C41.4826 43.9633 41.4693 43.8802 41.4403 43.8021L41.4379 43.8013ZM31.6751 43.9933C31.1292 43.9042 30.5895 43.7805 30.0592 43.6229C29.9801 43.5911 29.8953 43.5757 29.81 43.5775C29.7247 43.5794 29.6407 43.5985 29.563 43.6337C29.4853 43.6689 29.4155 43.7195 29.3579 43.7823C29.3003 43.8452 29.2559 43.9191 29.2276 43.9996C29.1993 44.08 29.1876 44.1654 29.1931 44.2505C29.1987 44.3356 29.2214 44.4187 29.26 44.4948C29.2985 44.5709 29.352 44.6385 29.4174 44.6933C29.4827 44.7482 29.5584 44.7892 29.64 44.814C29.6641 44.8224 29.6887 44.8293 29.7136 44.8348C30.2736 44.9948 30.8584 45.1332 31.4392 45.2556H31.5568C31.7207 45.2649 31.8819 45.2103 32.0063 45.1032C32.1308 44.9961 32.209 44.845 32.2243 44.6815C32.2396 44.518 32.191 44.355 32.0886 44.2266C31.9862 44.0983 31.838 44.0146 31.6751 43.9933ZM53.8341 25.4632C53.7512 25.4621 53.6689 25.4772 53.5918 25.5079C53.5148 25.5385 53.4446 25.5841 53.3852 25.6419C53.3257 25.6996 53.2783 25.7686 53.2455 25.8447C53.2127 25.9209 53.1952 26.0027 53.1941 26.0856V26.1824C53.1941 26.7336 53.1685 27.2887 53.1181 27.8399C53.103 28.0065 53.1547 28.1723 53.2618 28.3009C53.3689 28.4295 53.5226 28.5102 53.6893 28.5254H53.7541C53.9144 28.5269 54.0693 28.4673 54.1873 28.3586C54.3052 28.25 54.3775 28.1006 54.3892 27.9407C54.4436 27.3559 54.4692 26.7623 54.4692 26.1736V26.0896C54.4682 25.9229 54.4012 25.7634 54.283 25.6459C54.1647 25.5284 54.0048 25.4624 53.8381 25.4624L53.8341 25.4632ZM51.8342 34.6771L51.8062 34.6619C51.6611 34.586 51.4923 34.5695 51.3353 34.6157C51.1782 34.662 51.0453 34.7675 50.9646 34.9098C50.6998 35.3898 50.4094 35.8698 50.0975 36.3234C50.0488 36.3913 50.0141 36.4682 49.9953 36.5496C49.9765 36.631 49.974 36.7153 49.988 36.7977C50.002 36.8801 50.0322 36.9589 50.0768 37.0296C50.1214 37.1002 50.1795 37.1613 50.2479 37.2094C50.3162 37.2575 50.3934 37.2915 50.475 37.3096C50.5566 37.3277 50.6409 37.3294 50.7232 37.3147C50.8054 37.3 50.884 37.2692 50.9542 37.224C51.0245 37.1787 51.0851 37.1201 51.1326 37.0513C51.4606 36.5633 51.7726 36.0538 52.0582 35.541C52.1001 35.4695 52.1276 35.3905 52.139 35.3084C52.1505 35.2262 52.1456 35.1427 52.1247 35.0625C52.1038 34.9822 52.0674 34.9069 52.0174 34.8408C51.9674 34.7747 51.9057 34.719 51.8342 34.6771ZM56.8787 15.7702C56.8491 15.7059 56.8085 15.6471 56.7587 15.5966L55.6436 14.4351C55.5652 14.3568 55.4669 14.3014 55.3594 14.2747C55.2519 14.2481 55.1391 14.2513 55.0332 14.2839L53.0221 14.8943L50.6726 12.3952L55.962 9.44823C56.0515 9.40696 56.1297 9.34477 56.1902 9.2669C56.2506 9.18902 56.2914 9.09776 56.3091 9.0008C56.3268 8.90385 56.321 8.80405 56.292 8.70984C56.2631 8.61562 56.2119 8.52976 56.1427 8.45949L54.6572 6.97398C54.5777 6.89751 54.4791 6.84387 54.3717 6.81867C54.2643 6.79347 54.1521 6.79766 54.0469 6.83079L47.344 8.85946L45.0889 6.46521C44.8084 6.1415 44.4333 5.91423 44.0165 5.81559C43.5997 5.71696 43.1624 5.75196 42.7666 5.91565H42.729C42.4256 6.04032 42.15 6.22393 41.9181 6.45585C41.6862 6.68777 41.5025 6.96339 41.3779 7.26676C41.3144 7.42673 41.2693 7.59339 41.2435 7.76353L40.9867 7.67554C40.8314 7.63715 40.6673 7.65909 40.5275 7.73693C40.3878 7.81478 40.2827 7.94273 40.2336 8.09497C40.1845 8.24722 40.1949 8.41243 40.2628 8.55728C40.3307 8.70213 40.4511 8.81584 40.5995 8.87546C40.9235 8.98026 41.2475 9.09865 41.5715 9.22024C41.6689 9.37281 41.7833 9.51396 41.9122 9.64102L44.2897 11.8961L43.6082 14.1471C41.5523 12.6794 39.1554 11.7616 36.645 11.4809C34.1346 11.2001 31.5941 11.5658 29.2649 12.5432C29.3681 12.796 29.5361 13.2112 29.7368 13.7216C31.4123 13.0096 33.2145 12.6436 35.035 12.6456C35.3155 12.6456 35.596 12.6542 35.8765 12.6712C38.262 14.8719 37.5565 16.879 35.9605 18.6885C35.017 19.6893 34.0047 20.623 32.9311 21.4827C32.5471 21.8099 32.1687 22.1314 31.8111 22.449C31.8321 22.9549 31.8931 23.4583 31.9935 23.9545C32.5151 23.4626 33.1199 22.945 33.7406 22.4002C34.8619 21.494 35.9179 20.5098 36.9005 19.4548C38.6604 17.4549 39.5644 15.2679 37.7757 12.8784C39.7631 13.2848 41.633 14.135 43.2458 15.3655L42.2738 18.5549C42.2389 18.6621 42.2341 18.7769 42.2601 18.8867C42.286 18.9965 42.3417 19.097 42.421 19.1772C42.421 19.1772 43.9905 20.7339 44.0409 20.7635C44.1809 20.8445 44.3473 20.8667 44.5036 20.8252C44.6598 20.7836 44.7933 20.6818 44.8745 20.5419L44.8825 20.5283L46.1064 18.3149C47.155 19.7982 47.8962 21.4764 48.2863 23.2506C45.6393 24.5969 45.5217 25.556 45.3617 26.8647C45.2185 28.0431 45.0337 29.5846 41.5219 32.5116C40.8538 33.0226 40.2438 33.6052 39.7028 34.2491C39.9595 34.5678 40.2327 34.873 40.5211 35.1634C41.0455 34.5178 41.6452 33.9371 42.3074 33.4339C46.1912 30.1941 46.4104 28.3846 46.5784 26.9919C46.6832 26.112 46.7632 25.456 48.4983 24.5009C48.5679 25.0606 48.6029 25.624 48.6031 26.188H48.6071C48.6063 28.3889 48.0701 30.5567 47.0446 32.5042C46.0192 34.4516 44.5353 36.1204 42.721 37.3665C42.9332 37.737 43.1259 38.1183 43.2986 38.5088C44.9751 37.3738 46.4017 35.9077 47.4904 34.2007C48.5791 32.4937 49.307 30.582 49.6292 28.5831C49.9514 26.5843 49.8612 24.5407 49.364 22.5781C48.8669 20.6155 47.9734 18.7753 46.7384 17.1709L47.8152 15.2271L50.315 17.5837L49.7135 19.574C49.6779 19.6812 49.6729 19.7961 49.6989 19.906C49.7249 20.0159 49.7809 20.1164 49.8607 20.1964C49.8607 20.1964 51.0934 21.4163 51.123 21.4587C51.2629 21.5397 51.4293 21.5619 51.5856 21.5203C51.7419 21.4788 51.8753 21.3769 51.9566 21.2371L51.9646 21.2235L53.6101 18.2069L56.5811 16.587C56.6544 16.5532 56.7203 16.5053 56.7751 16.4461C56.8299 16.3869 56.8724 16.3174 56.9004 16.2417C56.9283 16.166 56.941 16.0856 56.9379 16.0049C56.9347 15.9243 56.9157 15.8451 56.8819 15.7718L56.8787 15.7702ZM21.1325 31.4821C22.2359 34.3861 24.2235 36.8703 26.8147 38.5841C29.4059 40.2978 32.4699 41.1546 35.5742 41.0335C35.1422 40.6003 34.7155 40.1619 34.2942 39.7183C31.8411 39.5782 29.472 38.775 27.4394 37.3944C25.4068 36.0138 23.7869 34.1076 22.7524 31.8788L22.1468 31.7188C21.8268 31.6348 21.4884 31.5589 21.1349 31.4789L21.1325 31.4821ZM53.4669 16.9342L52.9237 17.2037C52.8023 17.264 52.7046 17.3631 52.6461 17.4853L52.3765 18.0325L51.3286 19.926L51.0214 19.5892L51.6318 17.5733C51.6665 17.4579 51.6663 17.3347 51.6311 17.2194C51.596 17.1041 51.5274 17.0018 51.4342 16.9254L48.1143 13.7992C47.9989 13.686 47.8432 13.6233 47.6815 13.6248C47.5198 13.6263 47.3654 13.6919 47.252 13.8072L47.2352 13.8248C47.1928 13.8712 44.2057 19.2524 44.2057 19.2524L43.5538 18.6005L45.5905 11.8889C45.6261 11.7729 45.6263 11.6489 45.5911 11.5328C45.5559 11.4166 45.4869 11.3136 45.3929 11.2369L42.753 8.74987C42.6106 8.6292 42.5104 8.46614 42.4672 8.28451C42.4241 8.10288 42.4401 7.9122 42.513 7.74033C42.6473 7.43472 42.8922 7.19123 43.1986 7.05878H43.2194C43.3894 6.99312 43.5757 6.98219 43.7522 7.02751C43.9288 7.07283 44.0868 7.17213 44.2041 7.31156L46.7288 9.97939C46.8065 10.0627 46.906 10.1226 47.016 10.1523C47.126 10.1819 47.2421 10.1803 47.3512 10.1474L54.0837 8.11471L54.7356 8.76667L49.3919 11.7033C49.2504 11.7814 49.1457 11.9124 49.1007 12.0677C49.0557 12.2229 49.0741 12.3896 49.1519 12.5312L49.1599 12.5448C49.1855 12.5912 52.4037 16.0158 52.4037 16.0158C52.4819 16.0984 52.5816 16.1575 52.6915 16.1865C52.8015 16.2155 52.9174 16.2132 53.0261 16.1798L55.05 15.5694L55.3652 15.8846L53.4717 16.9326L53.4669 16.9342ZM54.2036 23.0138C54.107 22.4309 53.9847 21.8525 53.8373 21.2803C53.7917 21.1219 53.686 20.9877 53.5428 20.9062C53.3995 20.8247 53.2301 20.8025 53.0707 20.8443C52.9112 20.886 52.7745 20.9885 52.6896 21.1298C52.6048 21.2711 52.5785 21.4399 52.6165 21.6003C52.7552 22.1349 52.8702 22.6754 52.9613 23.2202C52.9877 23.3644 53.0634 23.4949 53.1755 23.5893C53.2876 23.6838 53.4291 23.7362 53.5757 23.7377H53.6805C53.8448 23.7108 53.9918 23.62 54.0895 23.4852C54.1872 23.3503 54.2277 23.1823 54.202 23.0178L54.2036 23.0138ZM53.3981 30.2405C53.2357 30.1993 53.0635 30.2243 52.9195 30.3099C52.7755 30.3956 52.6714 30.5349 52.6301 30.6973C52.4938 31.2316 52.3336 31.7596 52.1501 32.2796C52.0996 32.4363 52.1124 32.6066 52.1858 32.754C52.2591 32.9015 52.3873 33.0143 52.5428 33.0685C52.6984 33.1226 52.8689 33.1137 53.018 33.0437C53.167 32.9738 53.2828 32.8482 53.3405 32.694C53.5381 32.1388 53.7109 31.574 53.8581 31.0141C53.8993 30.8517 53.8743 30.6795 53.7887 30.5355C53.703 30.3915 53.5637 30.2874 53.4013 30.2461L53.3981 30.2405ZM36.8749 44.8628C36.8642 44.6955 36.7875 44.5392 36.6617 44.4283C36.5358 44.3175 36.3711 44.2611 36.2037 44.2717C35.6523 44.3135 35.099 44.3261 34.5462 44.3093C34.4611 44.3034 34.3758 44.3147 34.2952 44.3427C34.2147 44.3706 34.1406 44.4146 34.0775 44.4719C34.0144 44.5293 33.9635 44.5988 33.928 44.6763C33.8925 44.7538 33.873 44.8377 33.8707 44.9229C33.8684 45.0081 33.8834 45.0929 33.9148 45.1722C33.9462 45.2515 33.9933 45.3236 34.0532 45.3842C34.1132 45.4448 34.1848 45.4927 34.2638 45.5249C34.3427 45.5571 34.4274 45.573 34.5126 45.5716H35.047C35.4678 45.5716 35.8885 45.5716 36.2837 45.534C36.3666 45.5288 36.4477 45.5073 36.5223 45.4708C36.5969 45.4342 36.6636 45.3833 36.7185 45.321C36.7734 45.2586 36.8154 45.1861 36.8423 45.1075C36.8691 45.0289 36.8802 44.9457 36.8749 44.8628ZM27.0202 9.8314H27.0154C27.106 9.82969 27.1953 9.8084 27.277 9.76901C27.7759 9.53236 28.2855 9.31881 28.8041 9.12905C28.8874 9.11021 28.966 9.07467 29.0352 9.02459C29.1044 8.97451 29.1627 8.91092 29.2067 8.83766C29.2506 8.76441 29.2792 8.68301 29.2908 8.59838C29.3024 8.51375 29.2967 8.42766 29.2741 8.34529C29.2515 8.26292 29.2124 8.186 29.1592 8.11916C29.106 8.05232 29.0398 7.99696 28.9646 7.95641C28.8895 7.91587 28.8068 7.89099 28.7218 7.88328C28.6367 7.87556 28.551 7.88517 28.4697 7.91152C28.4402 7.91958 28.4113 7.92974 28.3833 7.94192C27.8267 8.13966 27.2816 8.36854 26.7506 8.62748C26.6226 8.68899 26.5191 8.79188 26.4568 8.9195C26.3945 9.04713 26.3771 9.19203 26.4073 9.33079C26.4376 9.46955 26.5137 9.59405 26.6235 9.68416C26.7332 9.77428 26.8702 9.82475 27.0122 9.8274H27.0202V9.8314ZM37.9692 6.96998C37.3858 6.88127 36.7985 6.8196 36.2093 6.78519C36.0419 6.77512 35.8774 6.83195 35.7519 6.94319C35.6264 7.05443 35.5502 7.21096 35.5402 7.37836C35.5301 7.54575 35.5869 7.71029 35.6982 7.83578C35.8094 7.96127 35.9659 8.03744 36.1333 8.04751C36.6853 8.08788 37.2356 8.14952 37.7829 8.2323H37.8796C37.9625 8.2384 38.0458 8.2281 38.1247 8.20201C38.2036 8.17592 38.2766 8.13455 38.3395 8.08025C38.4025 8.02595 38.4541 7.95979 38.4914 7.88554C38.5288 7.8113 38.5511 7.73042 38.5572 7.64754C38.5633 7.56465 38.553 7.48138 38.5269 7.40247C38.5008 7.32357 38.4595 7.25057 38.4052 7.18765C38.3509 7.12473 38.2847 7.07313 38.2104 7.03578C38.1362 6.99843 38.0553 6.97607 37.9724 6.96998H37.9692ZM33.8094 7.43475C33.7933 7.26739 33.7113 7.1133 33.5815 7.00635C33.4518 6.8994 33.2849 6.84834 33.1175 6.86439C32.5327 6.92358 31.9431 7.00758 31.3624 7.12117C31.2795 7.12889 31.1989 7.15286 31.1253 7.19172C31.0517 7.23057 30.9864 7.28354 30.9333 7.34761C30.8801 7.41168 30.8401 7.48559 30.8155 7.56512C30.7909 7.64465 30.7823 7.72824 30.79 7.81113C30.7977 7.89401 30.8217 7.97457 30.8605 8.04819C30.8994 8.12181 30.9524 8.18706 31.0164 8.24021C31.0805 8.29335 31.1544 8.33336 31.2339 8.35795C31.3135 8.38253 31.3971 8.39121 31.48 8.38349L31.476 8.36669H31.5952C32.1382 8.26217 32.6856 8.1821 33.2359 8.12671C33.4032 8.11051 33.5573 8.02853 33.6643 7.89878C33.7712 7.76903 33.8223 7.60213 33.8062 7.43475H33.8094ZM18.2006 32.8812C17.9956 32.368 17.8146 31.8456 17.6582 31.3157C17.6352 31.236 17.5966 31.1617 17.5448 31.097C17.493 31.0322 17.4289 30.9783 17.3562 30.9384C17.2836 30.8984 17.2038 30.8731 17.1213 30.864C17.0389 30.8549 16.9555 30.8622 16.8759 30.8853L16.8583 30.8909C16.6992 30.9395 16.5657 31.049 16.4869 31.1955C16.4081 31.342 16.3904 31.5137 16.4375 31.6732C16.6055 32.2332 16.7991 32.8012 17.0183 33.3531C17.0436 33.4386 17.0864 33.5178 17.1441 33.5857C17.2018 33.6537 17.2731 33.7088 17.3533 33.7476C17.4335 33.7864 17.521 33.808 17.6101 33.811C17.6991 33.8141 17.7879 33.7985 17.8705 33.7652C17.9532 33.732 18.0281 33.6819 18.0903 33.618C18.1525 33.5542 18.2006 33.4781 18.2317 33.3946C18.2628 33.311 18.2761 33.2219 18.2707 33.133C18.2654 33.044 18.2415 32.9572 18.2006 32.878V32.8812ZM20.4013 36.8617C20.0768 36.4153 19.7719 35.9549 19.4877 35.4818C19.4022 35.338 19.2631 35.2341 19.1009 35.1928C18.9388 35.1516 18.7668 35.1764 18.623 35.2618C18.4792 35.3474 18.3752 35.4865 18.334 35.6487C18.2927 35.8108 18.3176 35.9827 18.403 36.1266C18.7068 36.6338 19.0341 37.1265 19.3838 37.6033C19.4848 37.7321 19.6319 37.8167 19.7941 37.8391C19.9563 37.8615 20.1209 37.8199 20.253 37.7233C20.3852 37.6266 20.4746 37.4824 20.5024 37.321C20.5303 37.1597 20.4943 36.9938 20.4021 36.8585L20.4013 36.8617ZM40.6619 36.7993L42.2826 38.4192V39.5592L39.7348 42.107H38.5948L29.5361 33.0484L33.2239 29.3606L40.6635 36.8001L40.6619 36.7993ZM9.34824 9.10905C10.4345 8.03989 11.7396 7.21892 13.1736 6.70271C14.6077 6.18649 16.1366 5.98729 17.655 6.11883C20.8646 6.36741 23.8751 7.77145 26.1282 10.0706C28.146 12.05 29.4842 14.6183 29.9504 17.4061L31.9951 29.0262L30.9552 29.2094L28.9073 17.5773C28.4767 15.0074 27.2418 12.6404 25.3803 10.8169C23.308 8.69871 20.5381 7.40357 17.5838 7.17157C16.2144 7.03703 14.8322 7.20775 13.5367 7.67146C12.2412 8.13517 11.0647 8.88032 10.0917 9.85328C9.11871 10.8262 8.37355 12.0028 7.90984 13.2983C7.44612 14.5938 7.2754 15.976 7.40994 17.3453C7.64185 20.3 8.93699 23.0704 11.0554 25.1433C12.8789 27.0045 15.2459 28.2394 17.8158 28.6702L29.4481 30.7181L29.2649 31.758L17.6446 29.7118C14.8569 29.2457 12.2889 27.9075 10.3098 25.8896C8.0104 23.6366 6.60605 20.6261 6.35719 17.4165C6.22568 15.8979 6.42498 14.3688 6.94134 12.9347C7.45771 11.5005 8.27887 10.1953 9.34824 9.10905ZM19.5813 27.4599C16.8574 27.3731 14.258 26.2986 12.2679 24.4367C10.2778 22.5748 9.0328 20.0526 8.76507 17.3405C8.62978 16.1502 8.7647 14.9447 9.15979 13.8138C9.55488 12.6828 10.2 11.6556 11.047 10.8084C11.8941 9.96128 12.9213 9.31611 14.0523 8.92092C15.1832 8.52573 16.3887 8.3907 17.579 8.52588C20.1687 8.78354 22.5894 9.9297 24.4299 11.7697C26.2703 13.6097 27.4171 16.03 27.6753 18.6197C27.8056 19.7487 27.6917 20.8925 27.3415 21.9737C26.9913 23.0549 26.4129 24.0483 25.6454 24.8865C24.8779 25.7247 23.9393 26.3883 22.8931 26.8323C21.8469 27.2763 20.7175 27.4903 19.5813 27.4599ZM28.4873 23.0242L29.6568 29.4182L23.2628 28.2487L24.4939 27.5287C25.8497 26.738 26.9779 25.6101 27.7689 24.2545L28.4873 23.0242ZM23.5395 40.2071C23.5262 40.1954 23.5126 40.1842 23.4987 40.1735C23.078 39.8239 22.6572 39.4536 22.27 39.0624C22.1506 38.9503 21.9922 38.8892 21.8285 38.892C21.6648 38.8948 21.5085 38.9612 21.393 39.0773C21.2775 39.1933 21.2117 39.3498 21.2097 39.5136C21.2076 39.6773 21.2695 39.8354 21.3821 39.9543C21.7974 40.3752 22.2357 40.7728 22.6948 41.1455C22.8205 41.2485 22.9811 41.2992 23.1432 41.2869C23.3053 41.2746 23.4564 41.2004 23.5651 41.0796C23.6739 40.9588 23.7319 40.8007 23.7272 40.6382C23.7224 40.4757 23.6552 40.3213 23.5395 40.2071ZM26.1266 27.6999L28.3449 28.1055L27.9393 25.8872C27.4138 26.5656 26.8053 27.1747 26.1266 27.6999ZM15.2432 11.9953L14.1128 13.128L15.7927 14.8079L16.9231 13.6752L15.2432 11.9953ZM17.6694 12.9312L18.7958 11.8017L17.1159 10.1218L15.9895 11.2521L17.6694 12.9312ZM18.023 22.2818L16.3431 20.6019L15.2128 21.7323L16.8927 23.4122L18.023 22.2818ZM17.639 24.1545L19.319 25.8344L20.4485 24.7049L18.7686 23.025L17.639 24.1545ZM17.0887 19.8524L18.7686 21.5323L19.8981 20.4027L18.2182 18.7228L17.0879 19.8532L17.0887 19.8524ZM17.4726 17.9765L15.7927 16.2966L14.6632 17.4269L16.3431 19.1068L17.4726 17.9765ZM15.5959 19.8564L13.916 18.1765L12.7865 19.306L14.4664 20.9859L15.5959 19.8564ZM13.1705 17.4301L11.4905 15.7502L10.361 16.8806L12.0409 18.5605L13.1705 17.4301ZM13.9168 16.6838L15.0472 15.5534L13.3672 13.8736L12.2361 15.0039L13.916 16.6838H13.9168ZM16.5391 15.5534L18.219 17.2333L19.3486 16.1038L17.6686 14.4239L16.5383 15.5542L16.5391 15.5534ZM18.9646 17.9797L20.6445 19.6596L21.7748 18.5293L20.0949 16.8494L18.9654 17.9797H18.9646ZM21.3909 20.4051L23.0708 22.085L24.2011 20.9547L22.5212 19.2748L21.3909 20.4051ZM20.6445 21.1515L19.5157 22.2826L21.1957 23.9625L22.3252 22.8322L20.6445 21.1515ZM21.9404 24.7073L22.8916 25.6584C23.3801 25.416 23.8369 25.1143 24.2515 24.7601L23.0684 23.5769L21.9388 24.7073H21.9404ZM21.1941 25.4536L20.2693 26.3784C20.7958 26.3344 21.3163 26.2352 21.822 26.0824L21.1941 25.4536ZM16.8919 24.9033L16.1015 25.6936C16.8062 25.9879 17.5441 26.195 18.299 26.3104L16.8919 24.9033ZM16.1463 24.1545L14.4664 22.4746L13.1393 23.8057C13.7352 24.3473 14.3918 24.8181 15.096 25.2088L16.1463 24.1545ZM13.7208 21.7323L12.0409 20.0524L10.989 21.1043C11.381 21.8081 11.8532 22.4641 12.3961 23.0594L13.724 21.7323H13.7208ZM11.2945 19.306L9.88902 17.9013C10.003 18.6558 10.2091 19.3936 10.5026 20.098L11.2945 19.306ZM10.7442 15.0047L10.1154 14.3759C9.96294 14.8817 9.86427 15.4021 9.82102 15.9286L10.7442 15.0047ZM11.4905 14.2583L12.6209 13.128L11.4361 11.9449C11.0822 12.3597 10.7805 12.8165 10.5378 13.3048L11.4905 14.2583ZM13.3672 12.3816L14.4968 11.2521L13.5448 10.3002C13.056 10.5416 12.5988 10.8423 12.1833 11.1953L13.3672 12.3792V12.3816ZM15.2432 10.505L16.1671 9.58102C15.6406 9.6246 15.1202 9.72354 14.6144 9.8762L15.2432 10.505ZM19.5453 11.0553L20.3373 10.2642C19.6329 9.97067 18.8952 9.76462 18.1406 9.65061L19.5461 11.0561L19.5453 11.0553ZM20.2909 11.8017L21.9708 13.4816L23.298 12.1553C22.7026 11.6132 22.0465 11.1419 21.3429 10.7505L20.2909 11.8017ZM19.5453 12.548L18.415 13.6752L20.0949 15.3551L21.2245 14.2255L19.5445 12.5456L19.5453 12.548ZM20.8413 16.1038L22.5212 17.7837L23.6507 16.6534L21.9708 14.9735L20.8413 16.1038ZM23.2668 18.5293L24.9467 20.2092L26.0754 19.0796L24.3955 17.3997L23.266 18.5293H23.2668ZM26.5466 18.0589C26.4325 17.3044 26.2265 16.5666 25.933 15.8622L25.1419 16.6534L26.5466 18.0589ZM25.693 20.9547L26.3218 21.5835C26.4745 21.0777 26.5732 20.5573 26.6162 20.0308L25.693 20.9547ZM24.9467 21.7011L23.8163 22.8314L25.0003 24.0153C25.3543 23.6005 25.656 23.1438 25.8986 22.6554L24.9467 21.7035V21.7011ZM24.0443 12.9016L22.7156 14.2279L24.3955 15.9078L25.4475 14.8559C25.0564 14.1522 24.5853 13.4962 24.0435 12.9008L24.0443 12.9016ZM39.0348 41.0527H39.3004L41.2299 39.1224V38.8568L40.6651 38.292L38.4668 40.4871L39.0316 41.0519L39.0348 41.0527ZM37.7237 39.7415L39.9147 37.5457L33.2223 30.8533L31.0264 33.0484L37.7237 39.7415ZM33.4351 34.0027L34.1814 33.2563L33.4351 32.5108L32.6887 33.2563L33.4351 34.0027Z" fill="#0065C1"/>
</svg>
