<svg width="20" height="17" viewBox="0 0 20 17" fill="none" xmlns="http://www.w3.org/2000/svg">
<path d="M18.0009 4.69119C18.0129 4.86415 18.0129 5.03811 18.0129 5.21107C18.0233 6.70861 17.7359 8.1933 17.1673 9.57887C16.5988 10.9645 15.7605 12.2233 14.7011 13.2823C13.6417 14.3413 12.3823 15.1793 10.9961 15.7477C9.60996 16.3161 8.12461 16.6036 6.62637 16.5933C4.4472 16.5988 2.31285 15.9749 0.47998 14.7968C0.800803 14.8322 1.12343 14.8489 1.4462 14.8468C3.24771 14.8512 4.99821 14.249 6.41532 13.1372C5.58019 13.122 4.77066 12.8465 4.09981 12.3491C3.42896 11.8517 2.93029 11.1573 2.67348 10.3628C2.92362 10.4024 3.17639 10.4231 3.42965 10.4248C3.78437 10.4237 4.13755 10.378 4.48088 10.2888C3.57472 10.1056 2.75999 9.61443 2.17521 8.89869C1.59043 8.18295 1.27168 7.28687 1.27316 6.36279V6.3128C1.82724 6.62193 2.4465 6.79594 3.08057 6.82068C2.23149 6.25418 1.63068 5.38519 1.40075 4.39102C1.17082 3.39686 1.3291 2.35246 1.84329 1.47096C2.84845 2.70782 4.10248 3.71971 5.52404 4.44101C6.94561 5.16231 8.50297 5.57692 10.0951 5.65796C10.0306 5.35658 9.99708 5.04938 9.99513 4.74118C9.99575 3.93874 10.2376 3.155 10.6892 2.4916C11.1409 1.82821 11.7816 1.31576 12.5281 1.02071C13.2747 0.725672 14.0927 0.661649 14.8762 0.83695C15.6596 1.01225 16.3722 1.41879 16.9217 2.00383C17.8181 1.83144 18.6778 1.50465 19.4623 1.03807C19.1638 1.96192 18.5387 2.74532 17.7039 3.24154C18.4972 3.15083 19.2726 2.94224 20.0044 2.62269C19.4564 3.42016 18.7777 4.11949 17.9969 4.69119H18.0009Z" fill="#043B87"/>
</svg>
