<svg width="90" height="100" viewBox="0 0 90 100" fill="none" xmlns="http://www.w3.org/2000/svg">
<rect width="89.67" height="100" rx="8" fill="white"/>
<g clip-path="url(#clip0_86_928)">
<g clip-path="url(#clip1_86_928)">
<g clip-path="url(#clip2_86_928)">
<path d="M65.6643 31.25H23.9971C22.8923 31.2511 21.833 31.6905 21.0517 32.4717C20.2705 33.253 19.8311 34.3123 19.83 35.4171V64.5842C19.8311 65.6891 20.2705 66.7484 21.0517 67.5296C21.833 68.3109 22.8923 68.7503 23.9971 68.7514H65.6643C66.7691 68.7503 67.8284 68.3109 68.6097 67.5296C69.3909 66.7484 69.8303 65.6891 69.8314 64.5842V35.4171C69.8303 34.3123 69.3909 33.253 68.6097 32.4717C67.8284 31.6905 66.7691 31.2511 65.6643 31.25ZM23.9971 33.3336H65.6643C65.8114 33.3467 65.9566 33.3762 66.0972 33.4215C62.4894 36.72 50.5282 47.6656 46.3418 51.4369C46.1467 51.6415 45.9122 51.8043 45.6523 51.9156C45.3924 52.0269 45.1127 52.0843 44.83 52.0843C44.5473 52.0843 44.2676 52.0269 44.0077 51.9156C43.7479 51.8043 43.5133 51.6415 43.3182 51.4369C39.1318 47.6642 27.1706 36.7214 23.5628 33.4215C23.7039 33.3761 23.8496 33.3466 23.9971 33.3336ZM21.9136 64.5842V35.4171C21.9241 35.2205 21.9635 35.0265 22.0304 34.8413C24.7915 37.3674 33.1368 45.0034 38.5491 49.9237C33.1615 54.5581 24.8067 62.4732 22.029 65.1271C21.9656 64.9524 21.9267 64.7697 21.9136 64.5842ZM65.6643 66.6678H23.9971C23.8372 66.6548 23.6793 66.6225 23.5271 66.5716C26.4023 63.8297 34.8039 55.8693 40.1035 51.3366C40.7907 51.9633 41.4257 52.535 41.9232 52.9858C42.7006 53.7446 43.7438 54.1693 44.83 54.1693C45.9163 54.1693 46.9595 53.7446 47.7368 52.9858C48.2344 52.5378 48.8666 51.966 49.5579 51.3366C54.8561 55.8693 63.2605 63.8228 66.1329 66.5716C65.9811 66.6219 65.8237 66.6551 65.6643 66.6678ZM67.7478 64.5842C67.737 64.7717 67.7 64.9568 67.6379 65.134C64.8534 62.4787 56.5054 54.565 51.1123 49.932C56.526 45.0034 64.8685 37.3687 67.631 34.8413C67.6979 35.0265 67.7373 35.2205 67.7478 35.4171V64.5842Z" fill="#0B4AA8"/>
</g>
</g>
</g>
<defs>
<clipPath id="clip0_86_928">
<rect width="50" height="100" fill="white" transform="translate(19.83)"/>
</clipPath>
<clipPath id="clip1_86_928">
<rect width="50" height="100" fill="white" transform="translate(19.83)"/>
</clipPath>
<clipPath id="clip2_86_928">
<rect width="50" height="37.5" fill="white" transform="translate(19.83 31.25)"/>
</clipPath>
</defs>
</svg>
