<svg width="90" height="100" viewBox="0 0 90 100" fill="none" xmlns="http://www.w3.org/2000/svg">
<rect width="89.67" height="100" rx="8" fill="white"/>
<g clip-path="url(#clip0_86_904)">
<g clip-path="url(#clip1_86_904)">
<g clip-path="url(#clip2_86_904)">
<path d="M23.1545 46.524L22.2378 48.0528L21.3171 46.524H20.8837V49.4137H21.2679V47.1594L22.2132 48.7283H22.2631L23.2084 47.1555V49.4156H23.588V46.5259L23.1545 46.524ZM27.7574 48.134H28.9752V47.775H27.7574V46.8875H29.0783V46.5246H27.3731V49.4143H29.1016V49.0506H27.7574V48.134ZM34.5241 48.6791L33.0377 46.524H32.7279V49.4137H33.1121V47.2545L34.5985 49.4137H34.9083V46.524H34.5241V48.6791ZM38.6935 49.4137H39.0777V46.524H38.6935V49.4137ZM44.6592 48.6791L43.1727 46.524H42.8629V49.4137H43.2472V47.2545L44.7336 49.4137H45.0434V46.524H44.6592V48.6791ZM50.1701 47.9811V48.3274H51.2337C51.1887 48.56 51.0582 48.7675 50.868 48.9088C50.6779 49.0501 50.4417 49.1151 50.206 49.0912C50.053 49.0968 49.9006 49.0712 49.7579 49.0157C49.6152 48.9603 49.4854 48.8763 49.3764 48.7689C49.1721 48.5522 49.0584 48.2656 49.0584 47.9678C49.0584 47.67 49.1721 47.3834 49.3764 47.1667C49.4816 47.0584 49.6084 46.9735 49.7486 46.9172C49.8887 46.861 50.0391 46.8348 50.19 46.8403C50.3768 46.8358 50.5612 46.8818 50.724 46.9734C50.8868 47.065 51.0218 47.1988 51.1147 47.3608L51.4471 47.1667C51.3243 46.9549 51.1459 46.7808 50.9313 46.6629C50.703 46.5298 50.4435 46.4594 50.1792 46.4591C49.9149 46.4587 49.6553 46.5284 49.4267 46.661C49.1981 46.7935 49.0086 46.9844 48.8777 47.2139C48.7467 47.4435 48.6788 47.7035 48.681 47.9678C48.6777 48.1676 48.715 48.3661 48.7907 48.5511C48.8664 48.7361 48.9789 48.9037 49.1214 49.0438C49.2639 49.184 49.4334 49.2937 49.6197 49.3663C49.8059 49.4389 50.0049 49.4728 50.2047 49.4661C50.583 49.4833 50.9526 49.3497 51.2324 49.0946C51.3593 48.9735 51.4593 48.8271 51.5262 48.665C51.5931 48.5029 51.6252 48.3286 51.6206 48.1533V47.9798L50.1701 47.9811Z" fill="black"/>
<path d="M31.494 59.9602L28.2906 51.3727H29.8308L31.6463 56.5161C31.8426 57.0705 32.0243 57.6465 32.1914 58.2444C32.3197 57.7917 32.4965 57.2474 32.7285 56.6118L34.6152 51.3721H36.0929L32.8781 59.9595L31.494 59.9602ZM36.8122 55.6671C36.8122 54.081 37.2495 52.9065 38.1239 52.1438C38.8638 51.5049 39.8156 51.1655 40.7929 51.1919C41.3239 51.1738 41.8529 51.2676 42.3454 51.4672C42.8379 51.6668 43.2828 51.9678 43.6514 52.3506C44.4298 53.2271 44.8287 54.3766 44.7609 55.5468C44.803 56.4401 44.6349 57.3308 44.2702 58.1473C43.9511 58.7705 43.4523 59.2835 42.8383 59.6199C42.213 59.9697 41.5074 60.1504 40.7909 60.1437C40.2565 60.1654 39.7235 60.074 39.2268 59.8753C38.7302 59.6767 38.2812 59.3752 37.9092 58.991C37.1234 58.0689 36.73 56.8757 36.8135 55.6671H36.8122ZM38.2847 55.6671C38.2182 56.546 38.471 57.4193 38.9967 58.1267C39.2188 58.3843 39.4937 58.5911 39.8028 58.7327C40.112 58.8744 40.4481 58.9478 40.7881 58.9478C41.1282 58.9478 41.4644 58.8744 41.7736 58.7327C42.0828 58.5911 42.3577 58.3843 42.5797 58.1267C43.1086 57.4028 43.3611 56.5137 43.2917 55.6199C43.3535 54.7576 43.0984 53.9024 42.5744 53.2148C42.3525 52.9582 42.0782 52.7522 41.7697 52.6109C41.4613 52.4695 41.126 52.3962 40.7867 52.3957C40.4474 52.3952 40.112 52.4675 39.8032 52.608C39.4943 52.7484 39.2194 52.9535 38.9967 53.2094C38.4705 53.9168 38.218 54.7908 38.286 55.6699L38.2847 55.6671ZM45.6902 59.9582V58.7723L51.0669 52.4955C50.4562 52.5287 49.919 52.5453 49.4555 52.5453H46.0172V51.3708H52.9402V52.3273L48.3381 57.7711L47.4571 58.7829C48.1037 58.7275 48.7092 58.7 49.2734 58.7004H53.2021V59.9576L45.6902 59.9582ZM54.6306 59.9582V51.3708H56.0699V59.9602L54.6306 59.9582ZM58.265 59.9582V51.3708H59.5573V52.5839C59.8227 52.1639 60.1881 51.8162 60.6209 51.5722C61.08 51.3115 61.6008 51.1789 62.1286 51.1885C62.6705 51.1664 63.207 51.3039 63.6716 51.5835C64.0714 51.8453 64.3704 52.235 64.5198 52.6889C64.7903 52.2319 65.1752 51.8533 65.6365 51.5902C66.0979 51.3271 66.6198 51.1886 67.1509 51.1885C67.507 51.1649 67.8642 51.2155 68.1997 51.337C68.5352 51.4585 68.8418 51.6483 69.1001 51.8945C69.603 52.5029 69.8487 53.2837 69.7848 54.0704V59.9582H68.3449V54.5529C68.364 54.1299 68.3161 53.7066 68.2033 53.2985C68.1088 53.0405 67.929 52.8225 67.6935 52.681C67.4343 52.5204 67.134 52.4389 66.8292 52.4463C66.5528 52.4381 66.2777 52.487 66.021 52.5899C65.7643 52.6929 65.5317 52.8478 65.3376 53.0447C64.896 53.5853 64.6836 54.2772 64.7458 54.9725V59.9582H63.3059V54.3848C63.3417 53.8757 63.2188 53.368 62.9542 52.9316C62.8168 52.7626 62.6401 52.6301 62.4394 52.5455C62.2388 52.4609 62.0204 52.4268 61.8035 52.4463C61.4067 52.4444 61.0177 52.5566 60.6827 52.7694C60.3337 52.9911 60.0703 53.3245 59.9355 53.7153C59.7591 54.2965 59.6816 54.9034 59.7062 55.5103V59.9642L58.265 59.9582Z" fill="black"/>
<path d="M19.83 55.6677C19.83 54.0816 20.2672 52.9073 21.1416 52.1446C21.8815 51.5057 22.8334 51.1661 23.8106 51.1925C24.3417 51.1744 24.8706 51.2681 25.363 51.4676C25.8555 51.6671 26.3005 51.9679 26.6692 52.3505C27.4475 53.227 27.8465 54.3765 27.7787 55.5468C27.8208 56.4401 27.6527 57.3307 27.2881 58.1473C26.9691 58.7703 26.4705 59.2833 25.8568 59.6198C25.2314 59.9694 24.5257 60.15 23.8093 60.1437C23.2749 60.1654 22.7419 60.0739 22.2453 59.8753C21.7486 59.6766 21.2996 59.3752 20.9275 58.9909C20.1406 58.0693 19.7461 56.8761 19.8287 55.6671L19.83 55.6677ZM21.3025 55.6677C21.2357 56.5465 21.4883 57.42 22.0138 58.1275C22.2326 58.3896 22.5075 58.5991 22.8181 58.7408C23.1288 58.8826 23.4673 58.9529 23.8086 58.9464C24.1489 58.9523 24.486 58.8814 24.7951 58.7392C25.1042 58.597 25.3773 58.3869 25.5942 58.1247C26.1231 57.4009 26.3756 56.5117 26.3062 55.6179C26.368 54.7558 26.113 53.9008 25.5889 53.2135C25.3722 52.9525 25.0999 52.7434 24.7918 52.6016C24.4837 52.4598 24.1478 52.3888 23.8086 52.3939C23.4677 52.3872 23.1297 52.4568 22.8191 52.5975C22.5086 52.7383 22.2334 52.9467 22.0138 53.2075C21.4867 53.9155 21.2341 54.7905 21.3025 55.6705V55.6677Z" fill="black"/>
<path d="M52.9482 50.0844H20.8405V50.4547H52.9482V50.0844Z" fill="black"/>
<path d="M69.83 50.0731H58.2397V50.4434H69.83V50.0731Z" fill="black"/>
<path d="M55.5188 50.3763C56.7209 50.3763 57.6953 49.4018 57.6953 48.1998C57.6953 46.9978 56.7209 46.0233 55.5188 46.0233C54.3168 46.0233 53.3424 46.9978 53.3424 48.1998C53.3424 49.4018 54.3168 50.3763 55.5188 50.3763Z" fill="#980000"/>
<path d="M62.9581 39.8569L66.667 44.6506L61.6111 46.1742C61.653 46.2593 61.6687 46.3524 61.7033 46.4402C61.7312 46.5479 61.7176 46.6622 61.6656 46.7606C61.6136 46.859 61.5269 46.9344 61.4222 46.972C61.2836 47.0221 61.142 47.065 60.9989 47.1003C60.6319 47.2266 60.2564 47.327 59.8881 47.4499C59.7554 47.4951 59.6118 47.494 59.4798 47.4466C59.3988 47.3915 59.3327 47.317 59.2876 47.23C59.2426 47.1429 59.2196 47.046 59.2214 46.948L58.1827 47.2545L57.4186 46.266L62.9581 39.8569ZM59.5966 46.8211C59.6598 47.0411 59.614 47.2013 59.8979 47.1734C60.1638 47.1109 60.7866 46.8769 61.1742 46.7566C61.4494 46.6708 61.3546 46.5113 61.2754 46.2726L59.5966 46.8211Z" fill="#980000"/>
</g>
</g>
</g>
<defs>
<clipPath id="clip0_86_904">
<rect width="50" height="100" fill="white" transform="translate(19.83)"/>
</clipPath>
<clipPath id="clip1_86_904">
<rect width="50" height="100" fill="white" transform="translate(19.83)"/>
</clipPath>
<clipPath id="clip2_86_904">
<rect width="50" height="20.2861" fill="white" transform="translate(19.83 39.8569)"/>
</clipPath>
</defs>
</svg>
