<svg width="90" height="100" viewBox="0 0 90 100" fill="none" xmlns="http://www.w3.org/2000/svg">
<rect width="89.67" height="100" rx="8" fill="white"/>
<g clip-path="url(#clip0_86_919)">
<g clip-path="url(#clip1_86_919)">
<g filter="url(#filter0_d_86_919)">
<path d="M50.4727 51.1544H39.1873C39.0798 51.184 38.9851 51.2482 38.9176 51.3368C38.8501 51.4255 38.8135 51.5339 38.8135 51.6453C38.8135 51.7568 38.8501 51.8652 38.9176 51.9539C38.9851 52.0426 39.0798 52.1067 39.1873 52.1364H50.4727C50.5801 52.1067 50.6749 52.0426 50.7424 51.9539C50.8099 51.8652 50.8464 51.7568 50.8464 51.6453C50.8464 51.5339 50.8099 51.4255 50.7424 51.3368C50.6749 51.2482 50.5801 51.184 50.4727 51.1544ZM42.1746 39.7715C42.2688 39.6843 42.3924 39.6358 42.5208 39.6358C42.6492 39.6358 42.7728 39.6843 42.867 39.7715L43.3506 40.2809C43.4801 40.4085 43.6547 40.48 43.8365 40.48C44.0184 40.48 44.1929 40.4085 44.3224 40.2809L46.7608 37.837C46.8044 37.7892 46.8571 37.7505 46.9159 37.7235C46.9746 37.6964 47.0382 37.6815 47.1029 37.6795C47.1676 37.6775 47.232 37.6885 47.2923 37.7119C47.3526 37.7352 47.4076 37.7706 47.454 37.8156C47.5004 37.8607 47.5373 37.9146 47.5625 37.9742C47.5876 38.0338 47.6006 38.0979 47.6005 38.1625C47.6004 38.2272 47.5873 38.2912 47.562 38.3508C47.5367 38.4103 47.4997 38.4641 47.4532 38.5091L44.3988 41.5635C44.3223 41.639 44.2317 41.6985 44.1321 41.7387C44.0325 41.779 43.926 41.7991 43.8186 41.798C43.7119 41.7991 43.606 41.7789 43.5072 41.7387C43.4084 41.6984 43.3186 41.6389 43.243 41.5635L42.1737 40.4602C42.0877 40.366 42.0402 40.243 42.0406 40.1155C42.0409 39.988 42.0891 39.8653 42.1755 39.7715H42.1746ZM42.5663 42.2458C42.906 42.5791 43.3629 42.7658 43.8388 42.7658C44.3147 42.7658 44.7716 42.5791 45.1113 42.2458L48.1658 39.1913C48.326 39.0599 48.4567 38.8962 48.5492 38.7108C48.6418 38.5254 48.6941 38.3225 48.7028 38.1155C48.7115 37.9084 48.6763 37.7019 48.5997 37.5094C48.523 37.3169 48.4065 37.1427 48.2578 36.9984C48.1092 36.854 47.9317 36.7427 47.737 36.6717C47.5423 36.6007 47.3348 36.5716 47.1281 36.5864C46.9214 36.6012 46.7202 36.6594 46.5376 36.7573C46.355 36.8553 46.1951 36.9907 46.0685 37.1548L43.8333 39.389L43.5574 39.1132C43.279 38.8521 42.91 38.7093 42.5283 38.7152C42.1466 38.7211 41.7822 38.8752 41.5119 39.1448C41.2417 39.4144 41.0869 39.7785 41.0801 40.1602C41.0734 40.5419 41.2153 40.9112 41.4758 41.1902L42.5663 42.2458ZM44.8217 33.4493C43.4691 33.4481 42.1527 33.8859 41.0703 34.697C40.9703 34.7767 40.9053 34.8923 40.8891 35.0191C40.873 35.146 40.907 35.2742 40.9839 35.3764C41.0608 35.4786 41.1746 35.5467 41.301 35.5663C41.4273 35.5859 41.5564 35.5554 41.6606 35.4813C42.5722 34.7972 43.682 34.4289 44.8217 34.4323C45.9894 34.4311 47.1247 34.8159 48.0509 35.5269C48.9772 36.2379 49.6424 37.2352 49.943 38.3636C50.2435 39.4919 50.1627 40.688 49.7129 41.7656C49.2632 42.8432 48.4698 43.7418 47.4563 44.3217C46.4428 44.9016 45.266 45.1301 44.1091 44.9718C42.9522 44.8134 41.8801 44.277 41.0598 43.4461C40.2394 42.6152 39.7167 41.5363 39.5731 40.3775C39.4295 39.2187 39.673 38.0449 40.2658 37.0389C40.2982 36.9306 40.2937 36.8146 40.2529 36.7092C40.2122 36.6038 40.1376 36.515 40.0408 36.4566C39.944 36.3983 39.8306 36.3738 39.7183 36.387C39.6061 36.4002 39.5014 36.4503 39.4208 36.5295C38.7193 37.7214 38.4314 39.1117 38.6019 40.4842C38.7725 41.8567 39.3919 43.1343 40.3638 44.1182C41.3357 45.1021 42.6056 45.7372 43.9759 45.9246C45.3462 46.112 46.7399 45.8412 47.9403 45.1543C49.1408 44.4675 50.0805 43.4031 50.6132 42.1268C51.146 40.8505 51.242 39.4339 50.8862 38.0975C50.5304 36.761 49.7428 35.5796 48.646 34.7372C47.5492 33.8947 46.2047 33.4384 44.8217 33.4392V33.4493ZM50.4672 48.2121H39.1873C39.0817 48.2432 38.9891 48.3076 38.9232 48.3956C38.8572 48.4837 38.8216 48.5908 38.8216 48.7008C38.8216 48.8108 38.8572 48.9179 38.9232 49.006C38.9891 49.0941 39.0817 49.1585 39.1873 49.1895H50.4727C50.5783 49.1585 50.6709 49.0941 50.7368 49.006C50.8027 48.9179 50.8384 48.8108 50.8384 48.7008C50.8384 48.5908 50.8027 48.4837 50.7368 48.3956C50.6709 48.3076 50.5783 48.2432 50.4727 48.2121H50.4672ZM58.6117 40.383V56.0413H53.9639V40.3866L58.6117 40.383ZM52.9819 56.0413H36.6928V32.9629C36.694 32.5731 36.8494 32.1996 37.125 31.924C37.4006 31.6484 37.7741 31.493 38.1639 31.4918H51.5365C51.9259 31.4931 52.2989 31.6486 52.5738 31.9243C52.8487 32.2001 53.003 32.5736 53.003 32.9629L52.9819 56.0413ZM35.6741 56.0413H31.0216V40.3866H35.6741V56.0413ZM47.8256 61.9975C48.1123 61.9975 48.3906 62.0939 48.6159 62.2712C48.8412 62.4484 49.0003 62.6963 49.0678 62.9749H40.572C40.6383 62.6967 40.7964 62.449 41.0208 62.2717C41.2451 62.0943 41.5227 61.9978 41.8087 61.9975H47.8256ZM43.3864 58.9789H46.2469V61.0155H43.4048L43.3864 58.9789ZM61.0455 50.7958C61.1806 50.7958 61.3102 50.7421 61.4057 50.6466C61.5012 50.5511 61.5549 50.4215 61.5549 50.2864V39.8966C61.5549 39.2467 61.2971 38.6233 60.8381 38.1632C60.379 37.7032 59.7563 37.444 59.1064 37.4425H53.9648V32.9574C53.9633 32.3085 53.7049 31.6866 53.246 31.2277C52.7871 30.7688 52.1652 30.5104 51.5163 30.5089H38.1437C37.4943 30.5089 36.8715 30.7669 36.4124 31.2261C35.9532 31.6852 35.6952 32.3081 35.6952 32.9574V37.4526H30.5536C29.9036 37.4539 29.2807 37.713 28.8216 38.1731C28.3625 38.6332 28.1048 39.2567 28.1051 39.9067V56.5424C28.1065 57.1913 28.365 57.8132 28.8238 58.2721C29.2827 58.731 29.9047 58.9894 30.5536 58.9909H42.4302V61.0275H41.8096C41.2121 61.0287 40.6394 61.2664 40.2167 61.6887C39.7941 62.1111 39.5559 62.6836 39.5542 63.2811C39.5556 63.4629 39.6285 63.6369 39.7572 63.7654C39.8859 63.894 40.06 63.9667 40.2419 63.9679H49.4052C49.5874 63.9679 49.762 63.8955 49.8909 63.7667C50.0197 63.6379 50.092 63.4632 50.092 63.2811C50.0908 62.6833 49.8528 62.1103 49.4301 61.6876C49.0074 61.2649 48.4344 61.0269 47.8366 61.0256H47.2206V58.989H59.0972C59.7461 58.9876 60.3681 58.7292 60.8269 58.2703C61.2858 57.8114 61.5442 57.1895 61.5457 56.5406V52.6053C61.516 52.4978 61.4519 52.4031 61.3632 52.3356C61.2745 52.2681 61.1662 52.2315 61.0547 52.2315C60.9433 52.2315 60.8349 52.2681 60.7462 52.3356C60.6575 52.4031 60.5934 52.4978 60.5637 52.6053V56.5406C60.5637 56.9299 60.4093 57.3034 60.1344 57.5791C59.8595 57.8549 59.4865 58.0104 59.0972 58.0117H30.5536C30.1639 58.0102 29.7905 57.8548 29.515 57.5792C29.2394 57.3036 29.0839 56.9303 29.0825 56.5406V39.8984C29.0825 39.7052 29.1205 39.5139 29.1945 39.3354C29.2684 39.157 29.3767 38.9948 29.5134 38.8581C29.65 38.7215 29.8121 38.6132 29.9906 38.5393C30.1691 38.4653 30.3604 38.4273 30.5536 38.4273H35.6952V39.4046H30.7476C30.5662 39.4058 30.3927 39.4788 30.2649 39.6074C30.1371 39.7361 30.0654 39.9101 30.0654 40.0915V56.5341C30.0654 56.6692 30.119 56.7987 30.2146 56.8943C30.3101 56.9898 30.4396 57.0435 30.5747 57.0435H58.9289C59.1111 57.0435 59.2858 56.9711 59.4146 56.8423C59.5434 56.7135 59.6158 56.5388 59.6158 56.3566V40.0924C59.6143 39.9107 59.5415 39.7368 59.413 39.6083C59.2845 39.4799 59.1106 39.407 58.9289 39.4056H53.9859V38.4282H59.1275C59.3205 38.4282 59.5116 38.4663 59.6898 38.5403C59.868 38.6143 60.0299 38.7227 60.1662 38.8593C60.3024 38.996 60.4103 39.1582 60.4837 39.3367C60.5572 39.5151 60.5947 39.7063 60.5941 39.8993V50.3168C60.599 50.4422 60.65 50.5614 60.7374 50.6515C60.8248 50.7416 60.9423 50.7963 61.0676 50.805L61.0455 50.7958Z" fill="#0B4AA8"/>
</g>
</g>
</g>
<defs>
<filter id="filter0_d_86_919" x="22.5883" y="27.7505" width="44.4833" height="44.4925" filterUnits="userSpaceOnUse" color-interpolation-filters="sRGB">
<feFlood flood-opacity="0" result="BackgroundImageFix"/>
<feColorMatrix in="SourceAlpha" type="matrix" values="0 0 0 0 0 0 0 0 0 0 0 0 0 0 0 0 0 0 127 0" result="hardAlpha"/>
<feOffset dy="2.75837"/>
<feGaussianBlur stdDeviation="2.75837"/>
<feColorMatrix type="matrix" values="0 0 0 0 0 0 0 0 0 0 0 0 0 0 0 0 0 0 0.161 0"/>
<feBlend mode="normal" in2="BackgroundImageFix" result="effect1_dropShadow_86_919"/>
<feBlend mode="normal" in="SourceGraphic" in2="effect1_dropShadow_86_919" result="shape"/>
</filter>
<clipPath id="clip0_86_919">
<rect width="50" height="100" fill="white" transform="translate(19.83)"/>
</clipPath>
<clipPath id="clip1_86_919">
<rect width="50" height="100" fill="white" transform="translate(19.83)"/>
</clipPath>
</defs>
</svg>
