<svg width="13" height="14" viewBox="0 0 13 14" fill="none" xmlns="http://www.w3.org/2000/svg">
<path d="M3.7959 6.06445H4.875V7.15625H3.7959V6.06445ZM3.7959 8.23535H4.875V9.31445H3.7959V8.23535ZM5.9541 6.06445H7.0459V7.15625H5.9541V6.06445ZM5.9541 8.23535H7.0459V9.31445H5.9541V8.23535ZM8.125 6.06445H9.2041V7.15625H8.125V6.06445ZM8.125 8.23535H9.2041V9.31445H8.125V8.23535ZM2.7041 12.0312H10.2959C10.5921 12.0312 10.846 11.9255 11.0576 11.7139C11.2692 11.5023 11.375 11.2441 11.375 10.9395V3.36035C11.375 3.06413 11.2692 2.81022 11.0576 2.59863C10.846 2.38704 10.5921 2.28125 10.2959 2.28125H9.2041V1.18945H8.125V2.28125H4.875V1.18945H3.7959V2.28125H2.7041C2.40788 2.28125 2.15397 2.38704 1.94238 2.59863C1.73079 2.81022 1.625 3.06413 1.625 3.36035V10.9395C1.625 11.2441 1.73079 11.5023 1.94238 11.7139C2.15397 11.9255 2.40788 12.0312 2.7041 12.0312ZM10.2959 4.43945V10.9395H2.7041V4.43945H10.2959Z" fill="#737373"/>
</svg>
