<svg width="37" height="37" viewBox="0 0 37 37" fill="none" xmlns="http://www.w3.org/2000/svg">
<path d="M26.5884 17.3524H22.3634V14.7118C22.3634 14.1458 22.5059 13.6713 22.7953 13.3457C23.0695 13.0373 23.5756 12.7502 24.5514 12.7502H26.8148H27.5693V11.9957V7.46895V6.86374L26.9785 6.73245L26.8148 7.46895C26.9785 6.73245 26.9784 6.73244 26.9783 6.73242L26.9781 6.73237L26.9775 6.73224L26.9757 6.73185L26.9701 6.73061L26.95 6.72627C26.9329 6.72258 26.9082 6.71734 26.8765 6.71076C26.8131 6.69761 26.7215 6.67912 26.6058 6.65708C26.3746 6.61303 26.046 6.55463 25.6522 6.4963C24.8683 6.38017 23.8099 6.26181 22.7407 6.26181C20.5498 6.26181 18.6437 6.93408 17.2843 8.2935C15.9239 9.65394 15.196 11.6173 15.196 14.0328V17.3524H11.4237H10.6692V18.1069V23.3127V24.0672H11.4237H15.196V35.0815C7.39193 33.4306 1.54023 26.4781 1.54023 18.1069C1.54023 8.56465 9.35066 0.75422 18.8929 0.75422C28.4352 0.75422 36.2456 8.56465 36.2456 18.1069C36.2456 26.4967 30.3692 33.6686 22.1371 35.3164V24.0672H25.6831H26.3177L26.4264 23.442L27.3318 18.2362L27.4854 17.3524H26.5884Z" stroke="white" stroke-width="1.50893"/>
</svg>
