<svg width="37" height="37" viewBox="0 0 37 37" fill="none" xmlns="http://www.w3.org/2000/svg">
<path d="M11.0826 2.8949H11.0592L11.0359 2.89781C9.28599 3.11655 8.3878 3.33749 7.70458 3.56421C6.75551 3.80446 6.04701 4.28375 5.36194 4.96881C4.79762 5.53314 4.52889 6.10197 4.23757 6.71861L4.22929 6.73612C4.22929 6.73613 4.22929 6.73613 4.22929 6.73613C4.15115 6.90151 4.07116 7.07078 3.98233 7.24844L3.97034 7.27242L3.96186 7.29785C3.93017 7.39291 3.8932 7.49401 3.851 7.6093C3.61645 8.25009 3.28803 9.14997 3.28803 10.6895V25.5243V25.5478L3.29094 25.5711C3.50967 27.3209 3.73062 28.2191 3.95734 28.9024C4.19759 29.8514 4.67687 30.5599 5.36194 31.245C5.92627 31.8093 6.49511 32.078 7.11175 32.3694L7.12927 32.3776C7.29477 32.4558 7.46374 32.5357 7.64156 32.6246L7.66554 32.6366L7.69098 32.6451C7.78604 32.6768 7.88714 32.7137 8.00242 32.7559C8.64322 32.9905 9.5431 33.3189 11.0826 33.3189H25.9174H25.9409L25.9642 33.316C27.714 33.0973 28.6122 32.8763 29.2954 32.6496C30.2445 32.4094 30.953 31.9301 31.6381 31.245C32.2024 30.6807 32.4712 30.1118 32.7625 29.4952L32.7708 29.4777C32.8489 29.3122 32.9288 29.1432 33.0177 28.9654L33.0297 28.9414L33.0382 28.916C33.0699 28.8209 33.1069 28.7198 33.1491 28.6045C33.3836 27.9637 33.712 27.0638 33.712 25.5243V10.6895V10.666L33.7091 10.6427C33.4904 8.8929 33.2694 7.99471 33.0427 7.31149C32.8025 6.36241 32.3232 5.65389 31.6381 4.96881C31.0738 4.40449 30.505 4.13576 29.8883 3.84444L29.8708 3.83616C29.7055 3.75808 29.536 3.67796 29.3585 3.5892L29.3345 3.57721L29.3091 3.56873C29.214 3.53705 29.1129 3.50007 28.9976 3.45787C28.3568 3.22333 27.457 2.8949 25.9174 2.8949H11.0826ZM7.90176 4.29258L7.91582 4.28906L7.92956 4.28448C8.55079 4.0774 9.3928 3.8645 11.1062 3.64936H25.9174C27.3258 3.64936 28.1291 3.94338 28.735 4.16515L28.7383 4.16637L28.7415 4.16754C28.8444 4.20519 28.9463 4.24251 29.0448 4.27585C29.2219 4.36399 29.3903 4.44359 29.5475 4.51784L29.5485 4.51832L29.7096 4.17724L29.5485 4.51832C30.177 4.81529 30.6385 5.03621 31.1046 5.5023C31.7251 6.12277 32.1171 6.71958 32.3144 7.50863L32.3179 7.52269L32.3224 7.53643C32.5295 8.15766 32.7424 8.99967 32.9576 10.713V25.5243C32.9576 26.9327 32.6636 27.736 32.4418 28.3418L32.4406 28.3452L32.4394 28.3483C32.4017 28.4512 32.3644 28.5532 32.3311 28.6517C32.2429 28.8288 32.1636 28.9966 32.0893 29.1539L32.0886 29.1554L32.4297 29.3165L32.0886 29.1554C31.7916 29.7839 31.5707 30.2454 31.1046 30.7115C30.4842 31.332 29.8874 31.724 29.0983 31.9212L29.0842 31.9247L29.0705 31.9293C28.4493 32.1364 27.6073 32.3493 25.8939 32.5644H11.0826C9.67424 32.5644 8.87099 32.2704 8.26512 32.0487L8.26177 32.0474L8.25924 32.0465C8.15613 32.0088 8.05396 31.9714 7.95525 31.938C7.778 31.8497 7.61007 31.7704 7.45269 31.696L7.45157 31.6955L7.29042 32.0366L7.45156 31.6955C6.82303 31.3985 6.36153 31.1776 5.89543 30.7115C5.27496 30.091 4.88297 29.4942 4.6857 28.7052L4.68219 28.6911L4.67761 28.6774C4.47053 28.0561 4.25763 27.2141 4.04249 25.5007V10.6895C4.04249 9.2811 4.33651 8.47784 4.55828 7.87197L4.55949 7.86863L4.56059 7.86564C4.59827 7.7627 4.63561 7.66068 4.66898 7.56211C4.75701 7.38528 4.83636 7.21734 4.91055 7.06034L4.91144 7.05844L4.91145 7.05843C5.20841 6.4299 5.42933 5.9684 5.89543 5.5023C6.5159 4.88183 7.1127 4.48984 7.90176 4.29258ZM18.5 23.8381C15.4272 23.8381 12.7688 21.3804 12.7688 18.1069C12.7688 15.034 15.2266 12.3757 18.5 12.3757C21.5729 12.3757 24.2312 14.8334 24.2312 18.1069C24.2312 21.1709 21.5641 23.8381 18.5 23.8381ZM12.0144 18.1069C12.0144 21.8145 15.0281 24.5926 18.5 24.5926C21.9807 24.5926 24.9857 21.5876 24.9857 18.1069C24.9857 14.3993 21.9719 11.6212 18.5 11.6212C14.7924 11.6212 12.0144 14.635 12.0144 18.1069ZM18.5 8.34886C13.0559 8.34886 8.74199 12.6628 8.74199 18.1069C8.74199 23.551 13.0559 27.8649 18.5 27.8649C23.9442 27.8649 28.2581 23.551 28.2581 18.1069C28.2581 12.6628 23.9442 8.34886 18.5 8.34886ZM9.49645 18.1069C9.49645 13.0794 13.4726 9.10332 18.5 9.10332C23.5275 9.10332 27.5036 13.0794 27.5036 18.1069C27.5036 23.1344 23.5275 27.1105 18.5 27.1105C13.4726 27.1105 9.49645 23.1344 9.49645 18.1069ZM29.9033 8.50793C29.9033 9.50445 29.0955 10.3123 28.099 10.3123C27.1025 10.3123 26.2946 9.50445 26.2946 8.50793C26.2946 7.51142 27.1025 6.70358 28.099 6.70358C29.0955 6.70358 29.9033 7.51142 29.9033 8.50793ZM28.099 11.0667C29.5122 11.0667 30.6578 9.92113 30.6578 8.50793C30.6578 7.09474 29.5122 5.94912 28.099 5.94912C26.6858 5.94912 25.5402 7.09474 25.5402 8.50793C25.5402 9.92113 26.6858 11.0667 28.099 11.0667ZM11.0826 0.376988H25.8965C27.839 0.593347 29.0941 0.806756 30.1261 1.21691C31.4237 1.86572 32.2458 2.28027 33.2862 3.32072C34.3385 4.37304 34.9657 5.41991 35.3843 6.46645C35.8104 7.53171 36.2299 8.79102 36.2299 10.6895V25.5034C36.0136 27.4459 35.8002 28.7009 35.39 29.733C34.7412 31.0306 34.3266 31.8526 33.2862 32.8931C32.2339 33.9454 31.187 34.5725 30.1405 34.9912C29.0752 35.4173 27.8159 35.8368 25.9174 35.8368H11.1036C9.16101 35.6204 7.90599 35.4071 6.87396 34.9969C5.57638 34.3481 4.75428 33.9335 3.71385 32.8931C2.66153 31.8408 2.03439 30.7939 1.61577 29.7474C1.18967 28.6821 0.770115 27.4228 0.770115 25.5243V10.7104C0.986474 8.76789 1.19988 7.51286 1.61003 6.48084C2.25885 5.18324 2.6734 4.36116 3.71385 3.32072C4.76616 2.2684 5.81303 1.64126 6.85958 1.22264C7.92484 0.796539 9.18415 0.376988 11.0826 0.376988Z" stroke="white" stroke-width="0.754464"/>
</svg>
