<svg width="587" height="565" viewBox="0 0 587 565" fill="none" xmlns="http://www.w3.org/2000/svg">
<path d="M88.6415 492.133L87.1538 492.257L86.2859 491.265L79.8806 491.224L79.7153 490.191L74.0125 490.232L73.8472 489.282H68.1031L67.2766 488.497L62.1936 488.249L61.6151 487.381L56.2842 487.174L55.8296 486.224L50.3748 486.183L49.7136 485.356L44.2174 485.191L43.6801 484.24H38.3493L38.06 483.248L32.2745 483.207L32.1505 482.009H26.2411L26.1171 481.265L20.1664 481.058L19.9184 480.273L15.0421 480.108L14.7942 479.364L8.3475 479.281L8.1822 478.537L5.45477 478.124L4.87622 478.207L4.95887 470.438L6.28126 470.273V458.288L7.3557 458.206L7.43835 446.387L8.59545 445.726L8.43015 434.32L9.58724 433.824L9.23374 422.513L10.2857 422.279L10.3441 410.416L11.4545 410.299L11.25 398.815L12.1558 398.698L12.3019 387.682L13.2078 376.548L14.0552 375.993L14.3766 364.597L15.2533 364.188L15.1364 352.616L16.3637 351.915V341.571L17.2987 341.337L17.1818 329.473L18.3507 329.298L18.1169 317.434L19.5195 316.908L19.4026 306.389L20.3377 305.804L20.1624 294.467L21.3897 294.35L21.1559 282.311L22.3247 282.135L22.1494 270.505L23.2014 270.155L23.1429 258.525L24.078 257.824L23.9611 246.369L25.3637 246.018L25.3053 235.323L34.0424 142.138L41.5726 52.8513L53.5154 50.2479L91.0383 42.6028L147.736 30.536L194.887 20.6594L241.626 10.5348L252.825 8.17929L254.271 7.47677L255.924 6.31968L258.114 5.94775C257.908 7.72472 257.517 9.96089 257.412 11.8572C257.312 13.8632 256.64 14.1988 256.461 15.3285L254.188 20.0808L253.527 21.0726C251.185 23.9929 248.959 25.9169 245.552 29.007C244.433 32.0925 242.659 33.1945 241.626 35.5363L240.964 37.3546L238.692 37.3132L238.237 38.8836C238.03 40.206 238.03 41.943 237.824 42.8921L235.799 43.2227L235.675 50.2892L236.584 50.7438C236.804 51.1333 237.264 51.5573 236.005 51.7356L234.146 52.0248L232.741 54.215L232.162 56.3226L227.74 64.5462L227.286 67.0257L225.881 68.2241L224.063 72.6046L222.658 75.5386L222.534 77.8941L220.881 78.0181L219.971 79.3818L219.806 88.9278L220.674 89.8783L220.633 96.201L221.914 98.4738L222.658 100.747L223.815 103.309L224.311 103.268L224.972 103.763L225.054 111.45L223.815 112.152L222.038 114.095L220.798 116.698L219.765 118.268L219.724 120.913L218.525 121.037L218.484 146.328L219.682 146.411L219.724 150.254L223.482 156.485L226.58 159.524L226.989 161.219L229.736 163.849L230.203 165.135L230.904 165.427L231.021 169.459L229.911 170.687L229.736 172.031L227.982 172.498L226.93 173.2L226.872 184.011L225.703 184.304L225.586 195.817V196.284L223.307 197.687L220.794 199.966C220.246 200.322 221.541 201.566 219.333 201.369C221.207 205.128 220.172 208.07 219.8 211.83L229.268 234.505V234.388L235.58 234.505L235.93 237.427L225.294 237.31L221.203 239.94L219.625 242.161L217.346 244.733L215.183 247.246C214.594 247.978 216.331 247.384 214.891 250.927C214.77 252.057 215.192 253.187 213.313 254.317L213.196 257.648L214.365 258.876L218.339 262.499L221.671 265.012L223.19 265.83L224.242 266.94L225.995 267.525L228.625 267.642L230.086 268.051L231.723 268.402L236.047 268.928L237.859 269.57L246.567 270.447L258.197 270.622L259.482 272.668L260.476 275.707L261.995 277.168L264.333 277.577H266.379L272.398 277.811L274.677 279.389L278.359 279.33L280.229 278.629L281.398 279.097L281.574 288.33L283.794 289.791L286.366 289.616L286.132 291.428L286.015 295.519L285.022 296.22L284.905 302.824L284.788 313.051L281.457 313.343L278.827 315.506L275.262 318.72L274.619 319.714L274.444 320.824L274.502 321.233L272.573 321.292L271.989 320.064L269.242 320.123L268.775 319.129H259.015L258.84 325.616L255.976 323.863L254.456 321.993L244.93 322.051L244.054 323.805L244.112 326.318L242.768 327.019L241.424 327.253L240.723 326.727H239.612L237.391 327.545L236.865 329.532L236.924 332.396L237.216 332.863L236.865 333.097L234.002 333.798L233.943 336.486V337.48L234.528 337.655L234.761 338.649L234.177 339.116L231.956 339.058L230.378 339.175L229.56 339.292H229.093L228.917 340.11H227.515L226.989 338.883L224.417 339L222.547 337.889L215.242 334.675L213.138 334.032L207.294 334.149L203.67 335.785L200.514 337.363L199.229 338.006L198.878 339.233L196.19 339.35L194.612 340.636L194.787 346.597L196.248 348.467L199.521 351.214L203.027 353.493L204.43 353.902L204.839 354.428L207.352 354.779L207.82 355.831V357.759L210.274 362.61L212.144 365.298L212.846 367.344L214.716 370.208L217.521 374.591L218.69 375.701L218.748 377.221L218.865 378.623L220.443 379.734L221.612 380.493L222.839 381.019L222.898 381.954L221.787 382.247L219.976 381.37L217.696 381.136L217.579 381.954L215.651 381.195L215.066 380.669L215.242 379.091L215.3 377.688L216.527 376.928L216.06 375.526L215.359 374.474L212.261 370.383L210.859 367.987L208.638 366.409L205.482 363.311L203.436 360.798L202.735 360.272L196.365 360.156L195.43 361.5L194.612 360.915L194.086 358.987L193.443 356.707L190.345 354.428L188.534 354.019L184.092 354.194C184.092 354.194 183.858 354.662 183.449 354.837C183.04 355.013 180.527 355.246 180.527 355.246L179.358 356.298L177.839 357.526L175.56 358.11L173.806 359.571L171.936 363.136V366.759L174.274 370.149L175.209 370.909L174.858 373.013L174.04 373.305L173.806 380.786L173.28 381.078L173.164 384L172.345 384.175L171.761 383.299L166.267 383.123L164.865 384.818L163.287 385.519L163.754 390.078L155.572 390.136L153.001 391.422L152.183 392.123L150.546 391.48L149.495 390.136L146.28 390.078L144.819 389.377L140.027 388.909L139.326 388.208L128.163 387.974L127.287 388.851L124.774 389.435L121.442 390.779L117.176 393.117L115.423 394.344L114.079 395.454L113.202 396.039L111.507 396.448L110.572 397.675L106.715 405.097L105.137 410.416L104.377 411.643L102.215 413.455L99.8773 413.864L97.6565 414.156L95.7279 414.682L92.2798 416.494L88.9486 419.942L86.9031 425.26L86.7278 429L85.4421 429.526L85.8512 442.091L84.4486 442.325L84.6823 450.507L85.8512 451.325L86.0849 453.955L87.2538 455.299L87.8382 457.286L88.4811 458.455V460.033L87.4291 460.442L87.6044 475.286L88.7733 477.858L90.059 480.604L91.3447 482.182L91.4616 483.293L92.572 483.76L92.9811 484.637L91.4032 485.221L89.533 487.325L89.007 488.962L88.6415 492.133Z" fill="#00B7FB" stroke="#F7FCFE" stroke-opacity="0.25" stroke-linecap="round" stroke-linejoin="round"/>
<path d="M337.444 271.031L336.246 272.054L332.33 272.112H326.282L326.048 267.583L324.324 266.005L319.619 265.129L318.012 264.223L316.054 263.726L315.002 263.112H309.275L307.755 264.077L302.028 264.661L300.158 270.797L296.885 275.093L295.892 275.59L295.658 277.898V278.307L292.005 278.161L291.246 277.548L289.492 277.84L287.703 279.435L287.62 285.22L288.198 285.881L287.785 287.452C287.785 287.452 287.041 287.452 286.711 287.534C286.38 287.617 284.231 287.617 284.231 287.617L283.322 287.121L283.157 279.104V277.617L281.752 276.79L280.429 276.377L278.942 276.459L278.363 277.203L277.619 277.699L275.222 277.369L273.983 275.716L264.643 275.798L262.412 274.807L261.751 272.492L259.602 268.525L248.361 268.36L246.708 267.699L238.196 267.533L236.047 266.707L231.418 266.294L230.013 265.632L226.129 265.219L223.319 263.484L215.384 257.12L215.715 254.723L216.624 253.979L217.781 247.284L223.236 240.838L226.459 239.267L238.113 239.185L237.865 233.399L234.972 232.159H231.005L222.244 211.745L222.161 202.406L223.484 200.835L224.062 199.844L225.55 199.182H227.534L228.112 185.958L229.435 184.884L228.939 174.801L231.418 173.809L231.831 172.073L233.237 170.751L232.989 164.552L231.997 163.395L228.773 160.172L228.691 158.519L224.972 155.047L222.327 149.593L222.409 145.295L221.17 144.964L221.087 122.649L222.409 122.318L222.492 119.426L224.31 115.624L227.038 113.64L226.872 102.565L225.963 102.069L223.319 95.2919L223.236 89.0106L222.079 87.9361L221.996 80.663L223.071 79.8365L224.806 79.7538L225.054 76.1172L228.36 69.7532L229.931 68.3482L230.013 65.5381L235.055 54.5457L236.79 53.9672L239.187 52.1489V49.5041L237.948 48.7603L237.865 45.041L239.931 44.2972L240.262 39.6688L241.997 39.3382L243.154 38.1811L243.32 36.7761L247.37 29.7509L255.469 21.6512L259.106 12.973V8.50978L259.85 8.01388L259.932 4.79055L260.759 3.55081L261.007 2.06312L263.321 1.98047L263.652 3.79876L274.479 11.8158L276.132 14.2952L287.951 21.3204L304.366 27.2112L324.47 40.4191L328.911 44.7438L330.197 45.3283L359.535 73.9649L370.522 86.8221L376.717 93.8351L385.366 101.549L404.418 120.718L405.47 121.186L429.081 144.563L431.302 145.849L439.133 153.68L441.354 153.913L449.886 163.264L451.99 163.615L455.263 168.056L460.172 172.381L463.562 174.368L471.51 183.135L469.99 186.057L468.588 189.563L468.003 195.758L467.653 202.07L463.445 210.135L462.977 215.394L462.276 222.992L460.99 227.434L459.705 229.187L457.133 230.239L452.458 230.823L452.107 236.2L450.588 239.706L448.25 240.758L445.094 241.577L444.159 245.083L443.575 248.005L441.237 249.992L439.133 251.862L438.198 255.018L436.678 256.304L435.743 256.771L434.458 257.59L429.899 257.473L428.146 256.421L420.315 256.304L417.276 255.719L412.016 255.603L410.379 255.018L404.418 254.434L403.483 253.732L399.86 256.655L396.704 259.226L394.249 259.927L391.912 260.161L388.99 259.81L386.652 258.057L380.601 258.276L376.468 260.26L373.575 262.161L371.179 264.971L368.947 265.88L362.996 265.55L361.343 264.31L359.69 264.392L356.302 269.021L350.847 269.93L345.061 269.269L344.731 270.591L343.078 270.674L342.747 273.236L339.358 273.153L338.945 273.236L337.444 271.031Z" fill="#00B7FB" stroke="#F7FCFE" stroke-opacity="0.25" stroke-linecap="round" stroke-linejoin="round"/>
<path d="M582.844 294.89L578.505 300.924L575.199 305.18L570.653 311.338L561.272 323.9L557.76 328.735L553.462 334.107L552.801 337.124L550.735 339.273L549.206 339.149L548.875 337.29L546.891 334.851L543.172 332.661L537.552 329.396L531.808 326.214L508.707 314.065L506.063 314.313L505.98 316.297L504.079 317.619L503.996 319.107L501.93 320.842L501.103 321.338L499.12 321.173L494.74 317.454L493.004 316.627L491.516 315.057L490.276 314.974L487.218 311.833L485.979 311.916L483.995 310.18L481.185 308.197L475.601 304.343H471.86L471.627 305.045L464.614 305.162L463.445 306.097H456.315L455.847 307.032H448.133L447.899 308.084H444.743L438.249 316.503L437.298 318.652L435.025 320.47L434.777 322.495L433.124 323.9L432.711 325.181L428.613 329.473L428.847 330.993L426.042 333.447L425.574 335.201L423.938 336.486L423.47 338.59L421.6 340.11L421.717 341.396L417.86 345.136L417.743 359.863L418.912 361.149V374.006L419.964 376.928L421.25 379.85L422.068 381.253V387.097H421.016L420.899 390.136H418.444L416.691 388.032H415.289L413.418 386.162L411.665 385.812L410.029 384.058L406.756 381.136L404.769 380.552L403.016 379.266L399.509 375.876L398.224 375.759L396.938 374.24L395.185 374.123L392.613 370.967H391.444L389.457 369.448L388.172 369.097L385.6 365.707H384.314L383.146 364.539L381.392 364.422L379.522 362.084L379.23 357.321L378.207 357.175L378.119 351.974L379.376 351.623L379.201 346.772L380.253 346.568V343.967L386.551 338.86L389.527 337.042L391.014 336.05V334.479L389.527 334.149L388.865 333.074L386.386 332.248L386.138 328.033L384.981 327.867L384.733 325.057L383.824 324.314L382.997 323.404L381.51 323.156L380.353 324.148L380.105 325.305H376.633L376.22 325.388L376.055 323.239L374.402 322.247L374.154 317.288L372.914 317.04V309.767L374.567 309.106L373.989 308.28L373.08 308.114L373.162 306.296H372.17L372.336 293.32L371.013 293.361L370.889 290.593L372.088 290.303L372.129 288.774L373.452 288.361L373.41 284.89L374.319 284.559L374.278 279.724L375.972 277.947L376.014 276.46L377.749 276.418L380.973 273.03L381.055 270.633L380.188 270.467L380.229 267.864L381.882 265.963L382.543 264.351L384.031 263.153L384.609 262.285L384.898 260.632L384.94 260.136L386.221 259.971L388.122 261.5L391.469 262.285L394.775 261.996L397.756 260.687L403.308 256.246L404.126 256.713L409.678 257.239L411.315 257.882L417.159 257.999L420.139 258.7L427.094 258.759L428.555 259.635L434.75 259.752L438.315 257.999L440.127 256.304L441.237 252.798L445.737 248.823L447.198 243.33L451.932 241.577L454.153 236.726L454.328 232.401L457.601 231.934L461.224 230.765L463.153 227.96L464.205 222.992L465.257 210.252L469.581 202.654L470.75 189.563L473.088 184.596L475.426 186.291L476.302 188.57L483.841 199.089L492.958 211.888L511.426 238.947L525.569 259.694L534.51 272.434L536.264 272.551L537.082 271.733L547.952 271.499L547.835 270.564L558.822 270.681L565.368 283.304L570.861 287.512L582.433 293.473L582.844 294.89Z" fill="#00B7FB" stroke="#F7FCFE" stroke-opacity="0.25" stroke-linecap="round" stroke-linejoin="round"/>
<path d="M549.355 341.454L548.04 341.074L547.397 339.613L547.163 338.152L545.381 336.223L509.121 316.131L508.046 316.048L507.964 317.205L506.31 318.28L506.145 319.933L503.087 322.412V325.553L498.955 329.603V330.677L497.136 332.496V338.446L494.822 341.008L494.409 342.248L493.996 355.142L495.318 356.299L495.153 365.307L494.244 366.465L493.996 380.35L494.905 381.176L494.988 387.871L494.326 389.11L496.971 392.169L496.888 408.698L495.235 411.922L493.748 413.161L493.169 414.98L481.02 426.633L480.028 427.129L478.788 429.443L477.053 431.592L475.978 432.667L469.449 432.749L468.87 432.006H458.374L457.299 431.179H449.613L448.952 431.923L446.638 432.088L444.451 436.013L443.049 437.942L441.938 438.468L438.023 438.175L436.912 437.24L436.678 436.013H436.094L433.744 438.618L432.835 440.353L426.884 440.023L426.058 440.932L426.884 443.081L430.438 443.329L432.174 444.486L433.992 446.139L435.81 448.122L435.645 452.833L434.571 454.238L434.405 455.395L433 455.974L432.257 457.296L432.752 458.206L435.728 458.453L437.216 459.941L436.885 466.223L436.554 467.049L437.216 468.785L437.959 470.52L438.29 471.347L439.116 471.264L442.257 467.462L443.497 467.214L445.067 465.231H445.728L446.059 462.09L446.886 461.759L447.051 455.065L447.96 453.66L449.282 451.759L450.77 450.354L450.853 448.783L451.514 448.37L452.01 448.287L452.093 438.122L453.58 437.295L453.911 436.221L455.316 436.138L456.638 436.469L456.804 437.626L457.795 438.122L459.035 438.617V439.031L459.283 439.527L467.548 439.279L468.127 439.113L468.209 434.402H473.581L474.243 435.146L482.673 435.394L483.169 434.32H488.872L489.037 433.245L490.194 433.41L490.359 434.485L493.83 434.32L494.244 435.807L503.666 435.559L503.996 434.154L506.806 434.32L507.137 433.245H508.707L510.36 431.51L511.848 430.518L514.245 430.187L515.154 429.361L516.89 429.195L517.22 430.435L525.816 430.27L524.493 426.385L523.667 422.997L522.345 422.418L521.766 418.699L521.022 418.451L520.857 414.649L519.7 414.071L519.782 410.269L521.353 410.021L521.105 401.26H521.683L522.014 401.177L521.931 394.648L522.84 394.317L522.923 388.201L523.998 388.118V383.325L524.907 383.16L525.072 379.275L526.064 379.11L525.898 375.308H526.89L526.973 371.01H527.717L527.965 367.952L530.609 365.803L530.692 363.985L533.916 362.001L534.163 359.935L535.486 359.109L538.875 354.811L541.932 350.844L542.015 349.521L544.164 347.951L547.057 344.48L548.379 342.413L549.355 341.454Z" fill="#00B7FB" stroke="#F7FCFE" stroke-opacity="0.25" stroke-linecap="round" stroke-linejoin="round"/>
<path d="M501.207 323.239L498.149 323.074L493.975 319.065L492.074 318.073L490.876 316.792L489.739 316.565L486.578 313.59L485.462 313.569L483.107 311.379L475.338 305.738L473.044 305.655L472.528 306.585L465.399 306.564L464.035 307.783L457.568 307.639L456.948 308.755L449.737 308.527L449.427 309.581L445.646 309.54L440.625 316.152L439.902 317.02L438.786 319.292L436.72 321.09L436.348 323.322L434.509 324.665L433.972 325.925L430.376 329.582L430.108 329.789L430.438 331.649L427.484 334.025L426.926 335.926L425.273 337.227L424.86 339.149L423.227 340.513L423.021 340.637L423.186 341.918L419.508 345.513L419.281 359.212L420.582 360.617L420.479 373.696L420.5 374.006L422.421 378.841L423.641 380.99L423.496 388.511L422.463 388.491L422.298 391.507L421.182 392.169L420.686 392.499L420.851 398.119L420.025 398.781L420.107 403.326L418.868 405.145L415.066 409.442L413.661 409.938L409.941 413.575L409.528 417.459L408.454 418.286L408.371 419.608L399.114 428.369L398.536 430.27L396.139 432.501L395.478 432.832L395.56 435.146L396.222 436.138V439.692L396.966 440.684L397.296 447.792L398.536 450.436L399.197 452.503L401.098 453.99V460.354L402.42 460.189L403.082 461.181L406.718 461.098L407.297 463.33L409.198 464.652L409.032 470.272L409.941 470.603L410.024 472.669L411.512 474.487L413.826 474.322L414.157 478.207L416.058 480.025L416.223 481.265H418.95L421.76 486.058L422.091 490.108L425.48 490.273L428.868 493.91L429.199 496.472L433.91 496.307L436.059 498.373L435.893 499.2L436.803 499.282L438.538 497.133L439.613 495.976L441.018 495.728L442.01 494.902L442.588 495.067L443.167 494.571L443.084 493.579L443.58 493.497L443.745 490.025L441.431 486.306L440.191 484.24L439.117 482.422L438.951 481.182L438.208 480.19L437.629 479.529V478.62L436.72 478.372L436.141 477.628L436.555 476.884V475.562L436.72 472.173L434.902 467.628L434.654 466.966L435.315 465.974L435.728 460.768L434.819 459.941L432.092 459.776L430.521 457.296L431.43 454.982L433.083 454.486L433.166 453.494L433.91 452.668L434.158 448.701L430.025 444.816L425.645 444.568L424.405 441.428L424.322 440.353L426.141 438.535L431.678 438.783L432.174 437.874L434.984 434.898L435.728 434.154H437.298L438.125 434.568L438.456 436.551L438.786 436.882L441.431 437.295L443.332 435.229L445.481 430.766L447.795 430.601L448.704 429.691L458.043 429.939L459.283 430.766L469.449 430.683L470.606 431.427H475.317L476.888 429.195L478.127 426.799L478.293 426.303L480.194 425.642L491.269 414.98L492.426 412.335L494.244 411.095L495.401 408.616L495.649 392.912L492.26 389.276L493.417 387.457L493.583 382.085L492.095 380.763L492.674 366.134L493.665 364.564L493.748 357.208L492.508 355.72L492.178 355.307L493.087 341.504L493.583 340.099L495.649 338.033V331.586L497.302 330.264L497.55 329.024L501.434 325.222L501.207 323.239Z" fill="#00B7FB" stroke="#F7FCFE" stroke-opacity="0.25" stroke-linecap="round" stroke-linejoin="round"/>
<path d="M549.004 551.903L525.744 561.488L499.328 523.15L495.238 519.877L491.731 519.176L474.432 516.137L473.614 515.436L467.419 515.553L463.328 518.007L460.055 520.579L460.289 522.799L459.354 523.15L459.237 529.929L460.406 532.15L459.939 532.851L458.77 532.734L456.315 528.41L453.51 528.059L452.926 527.825L453.042 522.449L454.094 521.747L454.211 515.903L452.575 514.267H449.419L446.964 513.449L442.523 508.306L438.549 508.423L437.964 506.552L436.796 504.682L436.094 503.63V500.942L437.38 501.176L440.185 497.669L441.705 497.552L443.107 496.968L444.159 496.734L445.094 495.799L445.562 494.981L445.445 494.396L445.679 489.838L440.536 481.773V480.137L439.25 478.5L439.367 477.448L438.549 477.215H438.432L438.198 476.747V473.007L440.185 472.773L443.107 468.799L444.393 468.565L445.679 466.929H446.848L447.549 463.305L448.484 462.604L448.601 455.825L451.055 452.318L452.224 451.033V450.331L452.458 449.63L452.926 449.513H453.627V439.344L454.679 438.76L454.913 438.058L455.497 438.292L455.731 438.993L457.718 439.812L458.302 440.864L468.237 440.63L469.757 439.929V435.954L472.562 435.721L473.497 436.656L483.783 436.89L484.484 435.721H488.692L489.393 435.487L489.627 435.838H492.315L492.783 437.24L504.121 436.89L505.071 436.799L505.402 435.394L508.129 435.642L508.542 434.816L509.782 434.568L512.261 431.923L514.989 431.427L515.154 431.096L515.815 430.931L516.229 432.006L525.899 431.675L526.56 432.832L526.725 433.411L527.717 433.989L527.965 434.898L525.899 435.642L521.849 438.122L519.039 438.452L514.41 441.262L512.014 441.51L509.451 443.246L506.228 443.577L504.492 445.229L501.848 446.056L500.773 446.552L500.938 452.089L501.848 453.577L502.426 455.974L503.335 457.544L504.327 460.189L504.823 463.33L507.633 469.446L508.212 471.429L510.113 474.074L512.592 478.62L519.452 492.009L522.427 495.48L525.403 501.844L532.097 516.721L541.685 536.723L547.718 548.955L549.371 551.351L549.004 551.903Z" fill="#00B7FB" stroke="#F7FCFE" stroke-opacity="0.25" stroke-linecap="round" stroke-linejoin="round"/>
<path d="M401.058 423.098L405.821 419.211L406.143 417.896L407.545 416.815L407.954 412.87L412.104 409.188L412.717 408.604L414.12 408.253L417.743 404.279L418.503 403.023L418.562 398.289L419.38 397.558L419.438 392.123L419.643 391.802L418.094 391.743L416.078 389.435H414.587L412.688 387.419L410.876 387.068L406.318 382.422L403.834 381.721L399.071 377.308L397.522 376.987L396.061 375.438L394.308 375.321L391.912 372.224L390.655 372.312L388.698 370.734L387.441 370.412L384.87 367.023H383.642L382.386 365.795L380.662 365.708L377.974 362.201L377.769 358.548L376.805 358.198L376.834 351.156L378.12 350.688L377.944 345.837L378.996 345.487L378.909 343.354L385.25 338.357L389.194 335.902L389.574 335.698L389.633 335.289L388.785 335.142L387.967 334.003L385.074 333.068L384.928 329.269L383.964 329.035L383.584 325.792L382.824 325.061L382.532 324.594L382.094 324.36L381.918 324.448L381.422 324.857L381.1 326.551L376.834 326.493L375.607 326.873L375.314 326.931H375.168L374.905 324.009L373.035 322.957L372.86 318.457L371.691 318.048V309.34L372.217 309.019L371.691 308.756L371.895 307.529L370.99 307.382L371.165 294.438L369.762 294.496L369.499 289.85L370.639 289.47L370.756 288.097L372.188 287.337L372.217 284.006L373.035 283.684L372.918 279.126L374.613 277.489L374.671 275.356L377.097 275.181L379.581 272.668L379.697 271.704L378.938 271.382L379.055 267.174L380.837 265.392L381.597 263.346L382.912 262.645L383.555 261.915L383.438 260.044L381.217 260.103L380.866 260.921L378.12 261.155L377.652 261.739L375.314 262.966L373.093 265.246L370.756 267.057L368.886 267.525L362.866 267.116L362.048 266.999L360.879 265.772H360.704L357.022 270.506L351.178 271.324L346.152 270.622L345.568 272.083L344.106 272.025L344.048 274.363L344.34 275.59L344.165 276.525L349.016 281.61L350.068 283.012L350.243 290.259L349.074 291.136L349.308 302.064L350.535 303.759L351.236 304.928L354.042 305.395L355.97 305.746L358.285 306.461L358.781 307.371L359.608 308.28L359.525 311.172L358.781 311.999V312.66L358.616 313.569L357.542 313.9L354.979 314.148H354.236L353.74 314.726L353.161 315.14L353.244 316.875V318.363L353.492 327.041L352.665 328.198L352.004 329.521L351.178 330.264L350.764 329.851L350.103 330.595L350.434 331.669L350.847 332.331V333.157L352.335 333.653L352.748 335.389L352.169 339.686L352.583 340.348L354.153 340.43L354.979 339.604H355.475L357.872 339.521L358.285 340.761L359.691 341.753L359.443 345.555L358.038 347.621L355.062 353.076L351.756 357.952L350.103 358.117L341.177 358.2L339.524 357.869L338.698 357.622L336.466 360.432L336.383 364.151L337.54 366.052L338.532 368.614L339.937 370.019L339.607 372.25L338.615 373.821L336.383 376.3L335.474 377.871L334.978 378.78L335.144 380.02L338.45 380.598L340.185 380.846L344.235 383.739L346.962 384.731L348.698 385.309L351.591 385.888L359.525 392.83L361.591 392.913L362.831 393.822L364.567 395.062L368.782 395.558L370.683 395.806L373.41 397.128L375.477 398.698L378.7 400.682L382.171 402.004L384.651 405.724L387.047 408.368L387.543 410.765L387.957 414.567L388.948 414.815L389.196 418.948L391.015 421.84L392.75 422.997L393.742 423.493L401.058 423.098Z" fill="#00B7FB" stroke="#F7FCFE" stroke-opacity="0.25" stroke-linecap="round" stroke-linejoin="round"/>
<path d="M396.85 425.347C394.796 424.871 395.175 425.211 393.431 425.201L391.678 424.587L389.896 423.243L388.113 420.438L387.5 419.591L387.324 416.055L386.448 415.47L386.009 411.146L385.454 408.837L383.409 406.441L381.188 403.022L377.74 401.824L374.058 399.399L372.772 398.289L370.522 397.09L365.525 396.506L364.386 396.389L362.691 395.922L361.288 394.694L359.827 394.519L358.804 394.577L357.197 395.542L355.064 396.126L350.944 396.097L350.067 396.652L349.483 397.967L348.811 399.194L348.665 401.853L348.139 402.701L348.636 403.461L352.464 404.746L354.451 405.828L355.766 407.522L355.736 411.964L355.006 412.987L349.863 413.191L348.928 413.951L349.074 415.996L351.178 417.896L351.09 424.237L352.61 426.75L352.814 429.555L351.762 430.782L351.119 431.425L348.226 431.191L347.671 430.286L346.152 430.315L345.188 431.074L345.334 432.419L345.743 433.354L348.256 434.756L349.98 436.626L353.486 440.133L355.912 441.623L356.964 442.938L359.214 443.376L360.382 443.581L362.983 442.588L364.064 441.302L364.24 440.075L366.665 440.016C366.665 440.016 367.658 440.484 367.688 440.601C367.717 440.717 368.623 442.266 368.623 442.266L369.879 442.646C369.879 442.646 370.61 441.857 370.581 441.594C370.551 441.331 370.581 439.928 370.405 439.841C370.23 439.753 368.623 438.76 368.623 438.76L368.857 434.523L369.821 433.967L369.792 432.36L372.831 432.185L373.21 433.85L373.736 435.691L375.577 435.721L375.636 432.886L378.47 433.324L378.85 431.513L379.931 430.519L381.217 430.432L382.357 430.169L382.649 428.591L385.103 428.269L386.068 429L387.09 431.367L388.581 432.652L392.438 433.003H393.081L393.84 431.98L395.155 431.104L396.295 430.11C396.48 429.789 397.303 429.503 397.084 429.263C397.203 428.672 397.588 428.155 397.814 427.422L398.603 426.516L399.305 426.048L399.655 425.464L400.065 424.85L399.451 424.88C399.184 424.996 394.423 425.077 396.85 425.347Z" fill="#00B7FB" stroke="#F7FCFE" stroke-opacity="0.25" stroke-linecap="round" stroke-linejoin="round"/>
<path d="M348.285 329.851L349.69 328.446H350.434L351.839 326.875L351.591 314.395L353.244 313.238L354.401 312.825H357.128L357.376 311.42L358.203 310.511V308.94L357.046 307.535L351.508 306.544H350.599L347.954 302.576L347.706 290.758L348.822 289.642L348.657 283.319L342.665 276.872L342.913 275.674L342.789 274.6L339.813 274.352L338.863 274.682H338.119L337.54 273.443L337.416 273.029L336.879 273.525L336.673 275.633L336.755 276.459L337.83 277.162L337.458 280.344L336.838 281.046L335.02 281.17L334.73 283.939L336.218 285.303L336.425 288.319L335.929 290.386L334.813 291.873L333.863 292.328L333.904 293.609L334.689 293.857L334.854 298.072L333.862 298.981L333.201 299.725L329.606 299.601L327.788 299.312L326.631 298.527H325.432L323.242 298.857L320.887 299.436L319.44 301.047L317.994 302.205L317.209 303.486L316.919 305.469L316.837 307.205L317.787 307.742L318.035 309.106L319.647 310.841L322.374 313.734L323.779 314.23L324.11 314.891L323.945 322.702V324.065L324.275 324.52L325.06 324.974L325.226 325.594L325.267 326.049L329.441 326.297L330.267 327.619L331.714 327.95L332.127 328.859L333.036 329.066L332.912 331.38L333.986 331.752L334.11 334.438H336.879L337.747 333.322L338.367 332.867L339.359 332.124L339.813 331.38L345.557 331.173L346.384 330.636L347.293 330.429L348.285 329.851Z" fill="#00B7FB" stroke="#F7FCFE" stroke-opacity="0.25" stroke-linecap="round" stroke-linejoin="round"/>
<path d="M322 324.41L322.827 324.381L323 325.41L323.062 326.588L323.657 327.233L328.285 327.419L329.009 328.596L330.331 328.865L330.662 329.609L331.137 329.795L331.116 331.758L331.219 332.378L332.376 332.688L332.48 335.58L337.149 335.746L338.389 334.237L339.877 333.142L340.187 332.543L345.559 332.378L346.62 331.842L347.76 331.579L348.257 331.433L348.724 332.398L348.958 332.631L348.987 333.274L348.929 333.683L348.9 334.18L350.536 334.706L350.887 335.349L350.098 339.82L351.062 341.427L351.822 341.778L353.897 341.982L354.54 341.895L355.153 341.018L356.293 340.93L356.877 341.603L357.812 342.392L357.666 344.846L355.504 348.002L353.371 352.356L350.565 356.447L345.949 356.651L340.952 356.827L338.322 355.833L337.708 354.314H335.4L332.799 354.898L331.864 355.862L330.87 356.418L329.38 357.236L327.305 357.908L326.663 357.966L325.669 354.84L324.646 352.414L323.127 349.492C323.127 349.492 322.776 347.768 322.718 347.534C322.659 347.301 321.929 345.518 321.929 345.518L319.62 341.573L318.919 340.58L318.393 339.762L317.224 339.002L318 338.41V337.41L319 336.41L320 334.41L319 333.41V331.41V330.41V329.41H320L321 328.41V327.41V326.41L321.928 326.328L322 324.41Z" fill="#00B7FB" stroke="#F7FCFE" stroke-opacity="0.25" stroke-linecap="round" stroke-linejoin="round"/>
<path d="M334.358 273.566L335.061 273.442L335.391 273.649L335.123 275.757L335.474 277.203L336.321 277.782L336.135 279.683L335.991 279.807L334.048 279.91L333.656 280.654L333.139 284.249L334.792 285.964L335.102 288.134L334.771 289.787L333.945 290.84L332.581 291.419L332.685 294.374L333.532 294.828L333.552 297.37L332.602 298.341L329.792 298.155L328.366 298.052L327.085 297.101H325.101L320.246 298.093L318.489 300.097L317.064 301.089L315.886 303.073L315.411 307.288L315.473 308.114L316.589 308.672L316.692 309.788L321.217 314.582L321.589 315.119L322.725 315.367L322 323.41H321V324.41V325.41H320V326.41V327.41V328.41H319L318 329.41V331.41V333.41L319 334.41L318 336.41L317 337.41V338.41C317 338.41 315.209 339.102 315.18 338.927C315.15 338.752 314.391 336.852 314.391 336.852L312.374 335.917L308.78 335.683L308.517 331.972L306.063 331.417L302.03 330.57L300.774 329.372L298.377 328.349L296.215 328.203L294.637 327.005L294.403 323.147L293.293 321.745L292.066 320.927L290.926 318.355L289.465 316.748L289.26 314.001L287.595 313.767L286.894 313.504L287.01 297.287L288.15 296.03L288.121 291.296L288.559 288.725L288.997 288.316L289.699 285.54L289.027 284.342L288.881 280.134L289.494 279.287L290.312 278.994L290.838 279.637L296.098 279.929H296.683L296.946 276.861L297.735 276.335L301.358 271.455L302.877 266.108L307.962 265.494L309.306 264.53L313.777 264.442L315.033 265.027L317.05 265.611L318.423 266.634L322.836 267.189L323.771 267.978L323.946 268.416L324.443 273.588L334.358 273.566Z" fill="#00B7FB" stroke="#F7FCFE" stroke-opacity="0.25" stroke-linecap="round" stroke-linejoin="round"/>
<path d="M334.463 356.737L335.749 356.328L336.538 356.298L336.83 356.824L336.45 357.643L334.726 359.717L334.522 360.419L334.463 364.597L335.749 367.081L336.684 369.331L338.058 370.558L337.736 371.756L336.86 373.305L334.347 376.023L333.645 377.191L332.915 377.776L332.418 378.273L329.496 378.302L328.122 377.016C328.122 377.016 327.538 376.315 327.48 376.198C327.421 376.081 327.1 374.912 327.071 374.795C327.041 374.678 326.282 373.743 326.282 373.743L324.996 373.217H323.301L322.249 373.919L320.408 374.123L319.473 373.539C319.473 373.539 318.538 372.837 318.509 372.691C318.48 372.545 318.129 372.399 318.129 372.399L318.217 366.789L316.726 365.065L307.317 364.977L306.505 364.151L306.278 361.258L303.592 359.212L301.237 359.006L299.79 357.167L298.344 356.96L299.005 356.01L299.253 355.018L300.183 354.687L300.389 354.109L300.307 349.232L299.728 348.323L299.108 347.993L298.902 338.571L298.323 336.959L298.364 334.893L297.29 334.273L297.001 333.901V332.95L296.546 332.248L296.092 331.711L296.794 330.967L297.125 330.636L298.075 331.256L299.728 331.504L300.513 332.207L301.836 332.331L304.067 333.281L304.728 333.942H306.381L306.795 333.901L307.125 337.909L308.613 338.24H309.729L312.043 338.199L312.911 338.323L313.2 340.306L314.15 341.174L315.06 341.257L316.093 341.215L317.291 341.298L319.853 345.555L320.597 346.67L321.258 349.233L322.015 350.951L324.353 355.685L325.668 359.6L325.902 360.214L327.333 360.273L329.145 360.039L331.98 358.432L333.704 357.789L334.463 356.737Z" fill="#00B7FB" stroke="#F7FCFE" stroke-opacity="0.25" stroke-linecap="round" stroke-linejoin="round"/>
<path d="M286.629 315.476C286.512 315.418 284.788 315.213 284.788 315.213L282.655 315.33L277.22 319.304L276.489 320.21L276.401 321.905L276.635 322.606L275.875 323.366L272.135 323.22L271.434 322.898L270.966 321.642L268.687 321.788L267.752 321.379L267.401 320.678L260.856 320.59L260.564 327.106L259.921 327.72L259.658 329.327L260.768 329.97L260.71 331.84L261.528 332.571L261.908 333.944L263.135 334.733L263.778 335.493L266.028 335.931L267.606 336.194L269.184 336.925L272.924 338.941L273.859 340.11L275.349 340.314L276.138 340.986L276.781 341.775L276.84 350.045L278.71 350.132L279.879 350.6L280.2 352.061L280.872 350.863L280.989 350.571L282.129 349.051L289.522 349.022L290.866 351.126L291.742 352.441L293.028 352.821L293.583 353.844L295.132 353.99L295.22 354.72L295.453 355.246L296.33 355.392L296.622 354.72L297.031 354.311L297.85 353.99L298.2 353.522L298.288 352.908C298.288 352.908 298.405 351.009 298.288 350.892C298.171 350.775 298.025 350.22 298.025 350.22L297.236 349.782L297.148 349.11L296.739 338.356L296.418 336.194L295.804 335.376L295.307 334.879L295.074 333.652L294.431 332.688L294.051 332.541L294.518 330.496L294.986 330.087L294.869 329.678L293.817 329.006L293.554 328.334L293.087 327.399L292.94 323.658L291.626 322.723L291.158 321.993L289.726 319.129L288.148 317.376L287.973 315.506L286.629 315.476Z" fill="#00B7FB" stroke="#F7FCFE" stroke-opacity="0.25" stroke-linecap="round" stroke-linejoin="round"/>
<path d="M253.638 323.921L246.654 323.863L245.895 324.593L245.924 326.843L245.398 327.837L243.703 328.275L243.002 328.86L241.891 329.181L241.336 330.058L242.213 331.314L243.089 332.249L246.713 337.041L248.846 339.642L251.301 341.191L252.353 343.207L255.947 348.525L257.758 351.272L260.739 353.99L261.966 355.597L265.151 358.431L267.869 360.652L271.054 361.938L273.041 363.253C273.041 363.253 275.437 363.516 275.788 363.516C276.138 363.516 278.944 363.516 278.944 363.516L280.375 362.902L282.158 362.61C282.158 362.61 284.466 363.399 284.525 363.545C284.583 363.691 285.635 364.597 285.635 364.597L286.337 364.568L286.775 363.457L287.71 362.61C287.71 362.61 288.031 361.616 288.031 361.207C288.031 360.798 288.09 359.483 288.09 359.337C288.09 359.191 287.768 357.438 287.768 357.438L287.651 357.759L286.512 356.736C286.512 356.736 286.541 356.24 286.541 356.123C286.541 356.006 286.103 355.392 285.986 355.392C285.869 355.392 284.729 355.363 284.729 355.363C284.729 355.363 284.466 354.691 284.349 354.691C284.233 354.691 282.801 354.603 282.801 354.603L282.129 354.954L281.983 355.421L280.463 355.626L279.353 355.363L278.534 355.158L278.242 352.996L277.132 352.587L276.401 352.441L275.437 351.769L274.502 351.301L274.473 350.483L274.736 343.003L273.684 342.681L273.129 341.951L272.457 341.249L268.541 338.736L267.489 338.327L265.765 337.684L263.544 337.334L262.346 336.34C262.346 336.34 261.411 335.785 261.236 335.756C261.06 335.727 260.33 335.259 260.33 335.259L259.833 333.418L259.278 332.629L258.986 331.051L258.43 330.233L257.934 329.356L258.226 327.545L257.408 326.726L255.421 325.645L254.456 324.36L253.638 323.921Z" fill="#00B7FB" stroke="#F7FCFE" stroke-opacity="0.25" stroke-linecap="round" stroke-linejoin="round"/>
<path d="M321.84 365.21L321.139 368.425L322.57 370.558L325.814 371.113L328.619 369.097L329.496 365.649L328.269 363.574L325.58 362.727L323.213 362.873L321.898 364.129L321.665 364.772L321.84 365.21Z" fill="#00B7FB" stroke="#F7FCFE" stroke-opacity="0.25" stroke-linecap="round" stroke-linejoin="round"/>
<path d="M283.157 352.579L283.074 351.298L284.975 351.133L287.041 351.05H288.157L288.901 351.711L289.314 352.373L289.48 352.951L289.686 353.323C289.686 353.323 290.389 353.778 290.761 353.943C291.133 354.108 290.967 354.026 291.174 354.15C291.38 354.274 291.628 354.356 291.628 354.356L292.083 354.77L292.538 355.059C292.538 355.059 292.744 355.059 292.827 355.307C292.91 355.555 293.116 355.844 293.116 355.844L293.447 356.092L294.067 356.175L294.397 356.216L295.017 356.671L295.513 357.166L296.174 357.621L296.05 358.571L296.381 359.026L297.621 359.233L298.778 359.315L299.687 359.977L300.1 360.679L301.009 361.216L302.084 361.299C302.084 361.299 302.29 361.299 302.497 361.423C302.704 361.547 302.786 361.464 302.91 361.63C303.034 361.795 303.365 362.084 303.365 362.084L303.695 362.373L304.067 362.415V363.406L304.109 364.44L304.48 365.183L305.018 365.721C305.018 365.721 305.142 366.051 305.183 366.175C305.224 366.299 305.266 366.506 305.39 366.712C305.514 366.919 306.175 367.126 306.175 367.126C306.175 367.126 306.753 367.332 307.084 367.374C307.415 367.415 307.58 367.415 308.076 367.374C308.572 367.332 310.142 367.332 310.142 367.332L313.076 367.25C313.076 367.25 314.481 367.291 314.729 367.332C314.977 367.374 315.308 367.415 315.308 367.415L315.555 367.911L315.597 368.861L315.679 371.01L315.721 372.374L315.803 373.077L317.415 374.192L317.994 374.812L316.671 376.135L314.729 376.259L314.15 377.581V378.697L313.407 380.019L312.621 380.556L312.043 381.755L311.34 382.54L311.795 384.647L310.514 385.97L308.985 387.334L308.82 388.863L308.985 390.061L308.406 391.259L307.993 392.458L307.786 393.326L305.348 393.863L303.695 393.656L302.662 393.243L301.422 392.912C301.422 392.912 300.265 390.557 300.265 390.392C300.265 390.226 299.315 388.573 299.108 388.325C298.902 388.077 296.546 386.548 296.546 386.548L295.017 383.49C295.017 383.49 294.397 382.581 294.025 382.209C293.653 381.837 292.29 380.432 292.248 380.226C292.207 380.019 291.876 377.457 291.835 377.292C291.794 377.126 290.595 374.11 290.595 374.11L290.513 372.043L289.521 371.093C289.521 371.093 289.19 369.357 289.108 369.192C289.025 369.027 288.446 367.663 288.446 367.498C288.446 367.332 288.24 366.051 288.24 366.051L288.653 364.109L289.562 363.159L289.727 361.63V359.977L290.099 357.786L289.355 356.423L288.86 355.803L288.198 355.307L287.579 355.059L286.835 354.563L286.421 354.274L285.802 353.654L285.223 353.447C285.223 353.447 284.892 353.406 284.686 353.406C284.479 353.406 283.901 353.406 283.901 353.406L283.57 353.241L283.198 353.117L283.157 352.579Z" fill="#00B7FB" stroke="#F7FCFE" stroke-opacity="0.25" stroke-linecap="round" stroke-linejoin="round"/>
<path d="M310.269 393.058L310.736 391.539L310.911 390.019L310.853 388.85L312.08 387.681L313.6 386.688C313.6 386.688 313.95 386.104 313.95 385.87C313.95 385.636 314.126 385.344 314.067 384.935C314.009 384.526 313.6 383.941 313.6 383.941V382.948L314.593 381.896C314.593 381.896 315.002 381.603 315.061 381.136C315.119 380.668 315.119 380.376 315.119 380.376L315.821 379.5L316.171 378.389L316.872 378.039L317.808 377.571L318.801 376.636L319.444 376.285H320.321L321.957 375.759H323.009L323.71 375.818L324.412 375.876C324.412 375.876 325.463 377.571 325.639 378.155C325.814 378.74 325.639 378.564 325.873 378.798C326.106 379.032 326.399 379.266 326.632 379.441C326.866 379.616 326.749 379.499 327.217 379.733C327.684 379.967 327.743 379.909 328.853 380.142C329.964 380.376 331.249 380.551 331.249 380.551C331.249 380.551 331.6 380.376 332.067 380.61C332.535 380.844 332.944 380.844 333.178 381.136C333.412 381.428 333.47 381.428 333.821 381.72C334.171 382.012 334.405 382.188 334.931 382.188C335.457 382.188 336.918 382.538 336.918 382.538C336.918 382.538 337.386 382.597 337.795 382.714C338.204 382.831 338.087 382.48 338.438 382.831C338.788 383.181 338.847 383.181 339.431 383.707C340.016 384.233 340.542 384.116 341.126 384.409C341.71 384.701 341.827 384.642 342.119 384.935C342.412 385.227 342.119 385.285 342.821 385.577C343.522 385.87 345.158 386.279 345.451 386.279C345.743 386.279 346.093 386.571 346.795 386.688C347.496 386.805 348.022 387.097 348.256 387.331C348.49 387.564 350.243 388.909 350.243 388.909C350.243 388.909 350.068 388.967 350.652 389.142C351.236 389.318 351.587 389.493 351.587 389.493L353.983 391.48L355.327 392.298L356.438 392.941L357.022 393.526L355.678 394.168L354.451 394.344L351.353 393.993C351.353 393.993 351.821 393.993 351.061 393.993C350.301 393.993 348.373 394.753 348.373 394.753L347.671 395.454L347.029 397.324L347.321 398.435L346.736 399.194C346.736 399.194 346.736 399.253 346.736 399.896C346.736 400.539 346.678 400.948 346.678 400.948C346.678 400.948 346.561 401.181 346.561 401.474C346.561 401.766 346.152 402.233 346.152 402.233L345.451 402.935L344.516 402.818L344.048 402.701C344.048 402.701 343.814 401.707 343.639 401.006C343.464 400.305 343.639 399.954 343.113 399.779C342.587 399.604 341.71 398.727 341.71 398.376C341.71 398.026 342.061 397.324 341.652 397.09C341.243 396.857 338.964 395.629 338.73 395.571C338.496 395.513 338.262 395.513 337.853 395.513C337.444 395.513 335.34 396.214 334.873 396.506C334.405 396.798 333.821 396.915 333.529 397.207C333.236 397.5 330.606 397.617 330.606 397.617C330.606 397.617 330.606 397.149 329.964 396.798C329.321 396.448 329.438 396.039 328.386 395.805C327.334 395.571 327.567 395.396 326.106 395.513C324.645 395.629 324.528 395.513 324.003 395.629C323.477 395.746 321.314 395.746 321.314 395.746L319.853 395.162L319.444 394.694C319.444 394.694 316.522 394.402 316.171 394.402C315.821 394.402 315.645 394.578 315.119 394.694C314.593 394.811 314.301 394.87 314.009 394.87C313.717 394.87 311.437 394.753 311.437 394.753L310.619 394.694L310.269 393.058Z" fill="#00B7FB" stroke="#F7FCFE" stroke-opacity="0.25" stroke-linecap="round" stroke-linejoin="round"/>
</svg>
