<svg width="37" height="37" viewBox="0 0 37 37" fill="none" xmlns="http://www.w3.org/2000/svg">
<path d="M25.0971 10.5627L25.0963 10.5627C24.6472 10.5707 24.1476 10.6977 23.2437 11.0256C22.327 11.3583 20.9128 11.9303 18.6004 12.8921C16.9731 13.5689 13.7298 14.966 8.87629 17.0806C8.45948 17.247 8.09445 17.4293 7.81476 17.637C7.55218 17.832 7.23514 18.1458 7.17766 18.6043C7.13929 18.9104 7.20943 19.2027 7.37839 19.4512C7.53275 19.6782 7.74215 19.8287 7.92339 19.9319C8.25393 20.1199 8.69564 20.2586 9.08494 20.3808C9.10242 20.3863 9.11979 20.3918 9.13705 20.3972C9.25521 20.4344 9.37378 20.4717 9.49481 20.511C9.9308 20.6527 10.4473 20.8083 10.9364 20.9309C11.408 21.0492 11.9143 21.1527 12.3035 21.1611C13.0614 21.1775 13.8186 20.8661 14.5525 20.3626C15.6949 19.5915 16.6977 18.9167 17.561 18.3381C17.4414 18.4494 17.3277 18.5551 17.2219 18.6534L17.1593 18.7117C16.8019 19.0439 16.5192 19.3067 16.4459 19.3828L16.9894 19.9061L16.4459 19.3828C16.3265 19.5068 16.2033 19.6257 16.0739 19.7505L16.0573 19.7665C15.872 19.9451 15.6601 20.1493 15.4877 20.3583C15.3121 20.5712 15.1165 20.8593 15.0458 21.2173C14.8782 22.067 15.4711 22.7012 16.2152 23.1915C16.8907 23.6367 17.4313 24.0048 17.9749 24.375L17.9763 24.3759C18.5695 24.7799 19.1661 25.1862 19.9376 25.6919L20.3512 25.0609L19.9376 25.6919C20.1185 25.8105 20.2931 25.9348 20.4764 26.0655C20.5023 26.084 20.5286 26.1028 20.5553 26.1219C21.1811 26.5696 22.0112 27.1635 23.0616 27.0668C24.0479 26.9761 24.6264 26.0662 24.8736 24.7449C25.4254 21.7947 26.5175 15.3653 26.772 12.6904C26.8022 12.3736 26.7663 12.0081 26.7367 11.8353C26.7065 11.6585 26.6201 11.2408 26.2312 10.9252L25.7558 11.511L26.2312 10.9252C26.0114 10.7469 25.765 10.6616 25.585 10.6186C25.4001 10.5744 25.2251 10.5606 25.0971 10.5627ZM18.1071 35.4598C8.52352 35.4598 0.754464 27.6908 0.754464 18.1071C0.754464 8.52352 8.52352 0.754464 18.1071 0.754464C27.6908 0.754464 35.4598 8.52352 35.4598 18.1071C35.4598 27.6908 27.6908 35.4598 18.1071 35.4598Z" stroke="white" stroke-width="1.50893"/>
</svg>
