<svg width="14" height="14" viewBox="0 0 14 14" fill="none" xmlns="http://www.w3.org/2000/svg">
<path d="M8.48901 6.61035C8.19279 6.61035 7.93888 6.50456 7.72729 6.29297C7.51571 6.08138 7.40991 5.82747 7.40991 5.53125C7.40991 5.42969 7.42261 5.33447 7.448 5.24561C7.47339 5.15674 7.50724 5.07422 7.54956 4.99805C7.53263 4.99805 7.51147 4.99593 7.48608 4.9917C7.46069 4.98747 7.4353 4.98535 7.40991 4.98535C6.96134 4.98535 6.57837 5.14404 6.26099 5.46143C5.9436 5.77881 5.78491 6.16178 5.78491 6.61035C5.78491 7.05892 5.9436 7.44189 6.26099 7.75928C6.57837 8.07666 6.96134 8.23535 7.40991 8.23535C7.85848 8.23535 8.24146 8.07666 8.55884 7.75928C8.87622 7.44189 9.03491 7.05892 9.03491 6.61035C9.03491 6.58496 9.0328 6.55957 9.02856 6.53418C9.02433 6.50879 9.02222 6.48763 9.02222 6.4707C8.94604 6.51302 8.86353 6.54688 8.77466 6.57227C8.68579 6.59766 8.59058 6.61035 8.48901 6.61035ZM7.40991 2.81445C6.37736 2.81445 5.51408 3.00065 4.82007 3.37305C4.13452 3.75391 3.58439 4.16862 3.16968 4.61719C2.75496 5.06576 2.45874 5.48047 2.28101 5.86133C2.11174 6.23372 2.0271 6.42839 2.0271 6.44531L1.96362 6.61035L2.0271 6.77539C2.0271 6.79232 2.11174 6.98698 2.28101 7.35938C2.45874 7.74023 2.75496 8.15495 3.16968 8.60352C3.58439 9.05208 4.13452 9.4668 4.82007 9.84766C5.51408 10.2201 6.37736 10.4062 7.40991 10.4062C8.44246 10.4062 9.30575 10.2201 9.99976 9.84766C10.6853 9.4668 11.2354 9.05208 11.6501 8.60352C12.0649 8.15495 12.3611 7.74023 12.5388 7.35938C12.7081 6.98698 12.7927 6.79232 12.7927 6.77539L12.8562 6.61035L12.7927 6.44531C12.7927 6.42839 12.7081 6.23372 12.5388 5.86133C12.3611 5.48047 12.0649 5.06576 11.6501 4.61719C11.2354 4.16862 10.6853 3.75391 9.99976 3.37305C9.30575 3.00065 8.44246 2.81445 7.40991 2.81445ZM7.40991 9.31445C6.68205 9.31445 6.06421 9.20443 5.5564 8.98438C5.04012 8.76432 4.61271 8.50407 4.27417 8.20361C3.93563 7.90316 3.67749 7.60059 3.49976 7.2959C3.31356 6.99121 3.1866 6.7627 3.1189 6.61035C3.1866 6.44954 3.31356 6.22103 3.49976 5.9248C3.67749 5.62012 3.93563 5.31755 4.27417 5.01709C4.61271 4.71663 5.04012 4.45638 5.5564 4.23633C6.06421 4.01628 6.68205 3.90625 7.40991 3.90625C8.13778 3.90625 8.75562 4.01628 9.26343 4.23633C9.7797 4.45638 10.2071 4.71663 10.5457 5.01709C10.8842 5.31755 11.1423 5.62012 11.3201 5.9248C11.5063 6.22949 11.6332 6.45801 11.7009 6.61035C11.6332 6.77116 11.5063 6.99967 11.3201 7.2959C11.1423 7.60059 10.8842 7.90316 10.5457 8.20361C10.2071 8.50407 9.7797 8.76432 9.26343 8.98438C8.75562 9.20443 8.13778 9.31445 7.40991 9.31445Z" fill="#737373"/>
</svg>
